<svg width="24" height="25" viewBox="0 0 24 25" fill="none" xmlns="http://www.w3.org/2000/svg">
<g clip-path="url(#clip0_94_188)">
<path d="M12 22.48C17.5228 22.48 22 18.0028 22 12.48C22 6.95713 17.5228 2.47998 12 2.47998C6.47715 2.47998 2 6.95713 2 12.48C2 18.0028 6.47715 22.48 12 22.48Z" stroke="#202020" stroke-width="1.5"/>
<path d="M14.4 7.97998L15.3153 9.15017C15.8415 9.82276 15.7447 10.0254 14.8973 10.0254H9.6C8.13846 10.0254 8 10.7925 8 12.0709M9.6 16.98L8.68465 15.8098C8.15854 15.1372 8.25535 14.9345 9.10274 14.9345H14.4C15.8615 14.9345 16 14.1675 16 12.8891" stroke="#202020" stroke-width="1.5" stroke-linecap="round" stroke-linejoin="round"/>
</g>
<defs>
<clipPath id="clip0_94_188">
<rect width="24" height="24" fill="white" transform="translate(0 0.47998)"/>
</clipPath>
</defs>
</svg>
