<svg width="24" height="25" viewBox="0 0 24 25" fill="none" xmlns="http://www.w3.org/2000/svg">
<path d="M18 2.47998V4.47998M6 2.47998V4.47998" stroke="#202020" stroke-width="1.5" stroke-linecap="round" stroke-linejoin="round"/>
<path d="M10 17.48L9.99999 13.8272C9.99999 13.6355 9.86325 13.48 9.69458 13.48H9M13.6297 17.48L14.9842 13.8292C15.0475 13.6585 14.9128 13.48 14.7207 13.48H13" stroke="#202020" stroke-width="1.5" stroke-linecap="round"/>
<path d="M2.5 12.7232C2.5 8.36592 2.5 6.18726 3.75212 4.83362C5.00424 3.47998 7.01949 3.47998 11.05 3.47998H12.95C16.9805 3.47998 18.9958 3.47998 20.2479 4.83362C21.5 6.18726 21.5 8.36592 21.5 12.7232V13.2368C21.5 17.5941 21.5 19.7727 20.2479 21.1264C18.9958 22.48 16.9805 22.48 12.95 22.48H11.05C7.01949 22.48 5.00424 22.48 3.75212 21.1264C2.5 19.7727 2.5 17.5941 2.5 13.2368V12.7232Z" stroke="#202020" stroke-width="1.5" stroke-linecap="round" stroke-linejoin="round"/>
<path d="M6 8.47998H18" stroke="#202020" stroke-width="1.5" stroke-linecap="round" stroke-linejoin="round"/>
</svg>
