<svg width="24" height="39" viewBox="0 0 24 39" fill="none" xmlns="http://www.w3.org/2000/svg">
<g clip-path="url(#clip0_94_211)">
<path d="M20.016 9.47998C18.9026 9.47998 18 12.1663 18 15.48H20.016C20.9876 15.48 21.4734 15.48 21.7741 15.1445C22.0749 14.8091 22.0225 14.3673 21.9178 13.4838C21.6414 11.1514 20.8943 9.47998 20.016 9.47998Z" stroke="#202020" stroke-width="1.5"/>
<path d="M18 15.5342V26.1258C18 27.6375 18 28.3933 17.538 28.6908C16.7831 29.1771 15.6161 28.1574 15.0291 27.7873C14.5441 27.4814 14.3017 27.3285 14.0325 27.3197C13.7417 27.3101 13.4949 27.4568 12.9709 27.7873L11.06 28.9924C10.5445 29.3174 10.2868 29.48 10 29.48C9.71321 29.48 9.45546 29.3174 8.94 28.9924L7.02913 27.7873C6.54415 27.4814 6.30166 27.3285 6.03253 27.3197C5.74172 27.3101 5.49493 27.4568 4.97087 27.7873C4.38395 28.1574 3.21687 29.1771 2.46195 28.6908C2 28.3933 2 27.6375 2 26.1258V15.5342C2 12.6802 2 11.2532 2.87868 10.3666C3.75736 9.47998 5.17157 9.47998 8 9.47998H20" stroke="#202020" stroke-width="1.5" stroke-linecap="round" stroke-linejoin="round"/>
<path d="M6 13.48H14" stroke="#202020" stroke-width="1.5" stroke-linecap="round" stroke-linejoin="round"/>
<path d="M8 17.48H6" stroke="#202020" stroke-width="1.5" stroke-linecap="round" stroke-linejoin="round"/>
<path d="M12.5 18.355C11.6716 18.355 11 18.9426 11 19.6675C11 20.3924 11.6716 20.98 12.5 20.98C13.3284 20.98 14 21.5676 14 22.2925C14 23.0174 13.3284 23.605 12.5 23.605M12.5 18.355C13.1531 18.355 13.7087 18.7202 13.9146 19.23M12.5 18.355V17.48M12.5 23.605C11.8469 23.605 11.2913 23.2398 11.0854 22.73M12.5 23.605V24.48" stroke="#202020" stroke-width="1.5" stroke-linecap="round"/>
</g>
<defs>
<clipPath id="clip0_94_211">
<rect width="24" height="24" fill="white" transform="translate(0 7.47998)"/>
</clipPath>
</defs>
</svg>
