<svg width="24" height="24" viewBox="0 0 24 24" fill="none" xmlns="http://www.w3.org/2000/svg">
<g clip-path="url(#clip0_108_116)">
<g clip-path="url(#clip1_108_116)">
<path d="M6.97977 18.0578V16.1336M11.7902 18.0578V15.1715M16.6006 18.0578V13.2474M2.65039 12.2853C2.65039 7.97676 2.65039 5.82249 3.98888 4.484C5.32738 3.14551 7.48165 3.14551 11.7902 3.14551C16.0987 3.14551 18.253 3.14551 19.5915 4.484C20.93 5.82249 20.93 7.97676 20.93 12.2853C20.93 16.5938 20.93 18.7481 19.5915 20.0866C18.253 21.4251 16.0987 21.4251 11.7902 21.4251C7.48165 21.4251 5.32738 21.4251 3.98888 20.0866C2.65039 18.7481 2.65039 16.5938 2.65039 12.2853Z" stroke="#202020" stroke-width="1.44313" stroke-linecap="round" stroke-linejoin="round"/>
<path d="M6.01001 11.7908C8.0834 11.8599 12.7849 11.5469 15.4591 7.30273M13.7068 6.78997L15.5112 6.49956C15.7311 6.47155 16.054 6.64518 16.1333 6.85215L16.6104 8.42847" stroke="#202020" stroke-width="1.44313" stroke-linecap="round" stroke-linejoin="round"/>
</g>
</g>
<defs>
<clipPath id="clip0_108_116">
<rect width="23.09" height="23.09" fill="white" transform="translate(0.245117 0.740234)"/>
</clipPath>
<clipPath id="clip1_108_116">
<rect width="23.09" height="23.09" fill="white" transform="translate(0.245117 0.740234)"/>
</clipPath>
</defs>
</svg>
