<svg width="31" height="24" viewBox="0 0 31 24" fill="none" xmlns="http://www.w3.org/2000/svg">
<g clip-path="url(#clip0_391_17200)">
<g clip-path="url(#clip1_391_17200)">
<g clip-path="url(#clip2_391_17200)">
<path d="M1.379 18.8832C1.206 18.7672 1.301 18.5782 1.3 18.4292C1.29 16.2792 1.29 14.1292 1.288 11.9782C1.10061 11.9393 0.908299 11.9299 0.718 11.9502C0.48517 11.9809 0.248414 11.9576 0.026 11.8822L0 9.80024V9.75224C0 9.64324 0.022 9.55224 0.167 9.58524C0.408578 9.5673 0.651019 9.56396 0.893 9.57524C1.204 9.60724 1.316 9.50324 1.307 9.12224C1.25344 8.52728 1.27461 7.92795 1.37 7.33824C1.3528 6.82238 1.51988 6.31724 1.84129 5.91337C2.1627 5.5095 2.61744 5.23329 3.124 5.13424C3.18803 5.10353 3.2595 5.09174 3.33 5.10024C3.41055 5.11362 3.49323 5.09766 3.563 5.05524L3.763 5.04424C4.093 5.01724 4.418 5.00024 4.744 5.00024H4.813C5.12634 5.00085 5.43944 5.01787 5.751 5.05124C5.81435 5.81293 5.81435 6.57856 5.751 7.34024C5.342 7.35224 4.932 7.34724 4.524 7.38224C4.224 7.40824 3.901 7.43824 3.88 7.91724C3.88 8.36224 3.88 8.80824 3.868 9.25324C3.861 9.49424 3.94 9.57824 4.15 9.57224C4.45 9.56424 4.744 9.56524 5.041 9.57224H5.565C5.713 9.57224 5.831 9.57224 5.803 9.81524C5.72916 10.4242 5.66881 11.0346 5.622 11.6462C5.602 11.9202 5.488 11.9662 5.281 11.9572C5.137 11.9512 4.992 11.9572 4.847 11.9572C4.65463 11.9648 4.46199 11.9614 4.27 11.9472C3.953 11.9172 3.859 12.0312 3.862 12.4022C3.878 14.4152 3.871 16.4282 3.862 18.4422C3.862 18.5862 3.925 18.7502 3.803 18.8762C3.424 18.9052 3.044 18.9162 2.665 18.9162C2.23621 18.9107 1.80751 18.8997 1.379 18.8832ZM0.944 9.69124C0.994132 9.69679 1.04366 9.70683 1.092 9.72124H1.138C1.162 9.72124 1.097 9.62124 1.105 9.68324H1.04C1.00788 9.68423 0.975839 9.6869 0.944 9.69124ZM1.459 9.36624C1.464 9.36624 1.459 9.35824 1.443 9.36624C1.427 9.37424 1.423 9.36624 1.421 9.34824C1.421 9.37924 1.45 9.37224 1.459 9.36624ZM1.411 9.10024C1.411 9.17424 1.411 9.24924 1.42 9.32424C1.427 9.17424 1.427 9.02424 1.425 8.87524C1.42198 8.95034 1.41732 9.02536 1.411 9.10024Z" fill="black"/>
</g>
</g>
</g>
<defs>
<clipPath id="clip0_391_17200">
<rect width="6.63" height="13.91" fill="white" transform="translate(0 5.00024)"/>
</clipPath>
<clipPath id="clip1_391_17200">
<rect width="6.63" height="13.91" fill="white" transform="translate(0 5.00024)"/>
</clipPath>
<clipPath id="clip2_391_17200">
<rect width="6.624" height="13.91" fill="white" transform="translate(0 5.00024)"/>
</clipPath>
</defs>
</svg>
