<svg width="39" height="24" viewBox="0 0 39 24" fill="none" xmlns="http://www.w3.org/2000/svg">
<g clip-path="url(#clip0_391_17212)">
<g clip-path="url(#clip1_391_17212)">
<g clip-path="url(#clip2_391_17212)">
<path d="M7.4098 18.8892C6.61904 18.8617 5.82756 18.8617 5.0368 18.8892H4.6468C4.48017 18.8819 4.31326 18.8836 4.1468 18.8942C3.24616 18.856 2.39173 18.485 1.74887 17.853C1.10602 17.2211 0.720457 16.3731 0.666801 15.4732C0.496483 13.1654 0.496483 10.8481 0.666801 8.54024C0.733875 7.61636 1.14341 6.75079 1.81521 6.11302C2.48701 5.47526 3.37268 5.11124 4.2988 5.09224C5.3328 5.03091 6.3668 5.00024 7.4008 5.00024H7.6578C8.6978 5.00024 9.7378 5.03124 10.7778 5.09324C11.5585 5.11628 12.3112 5.38899 12.9255 5.87135C13.5398 6.3537 13.9833 7.02029 14.1908 7.77324C14.3788 8.25945 14.4633 8.77953 14.4388 9.30024C14.4481 10.0089 14.4528 10.7182 14.4528 11.4282V11.9472C14.4528 12.8912 14.4468 13.8332 14.4438 14.7772C14.4325 14.9453 14.4098 15.1123 14.3758 15.2772C14.3747 15.9997 14.153 16.7045 13.7404 17.2975C13.3277 17.8904 12.7438 18.3432 12.0668 18.5952C10.9935 18.8274 9.89669 18.9331 8.7988 18.9102C8.3388 18.9102 7.8718 18.9002 7.4098 18.8892ZM8.1958 17.9892C7.7328 17.9892 7.2708 17.9802 6.8088 17.9702C7.2718 17.9782 7.7388 17.9862 8.1968 17.9862L8.1958 17.9892ZM5.7788 17.8582C5.21456 17.8818 4.64984 17.8245 4.1018 17.6882C4.65025 17.824 5.21536 17.8802 5.7798 17.8552L5.7788 17.8582ZM10.8848 17.8582C11.3356 17.7991 11.7668 17.6369 12.1448 17.3842C11.7665 17.6345 11.3358 17.7946 10.8858 17.8522L10.8848 17.8582ZM10.1758 17.7142C10.6262 17.7396 11.0768 17.6672 11.4966 17.502C11.9164 17.3368 12.2955 17.0827 12.6078 16.7572L13.0688 15.8352C13.0652 15.6567 13.0905 15.4787 13.1438 15.3082C13.1491 15.2931 13.1561 15.2787 13.1648 15.2652C13.1587 15.2533 13.156 15.2398 13.1571 15.2264C13.1581 15.213 13.1629 15.2001 13.1708 15.1892C13.1708 13.0906 13.1728 10.9906 13.1768 8.88924C13.1588 8.81524 13.1348 8.74124 13.1208 8.66524C13.0869 8.04218 12.8149 7.45596 12.3609 7.02786C11.9069 6.59976 11.3058 6.36253 10.6818 6.36524C9.86507 6.2852 9.04393 6.25948 8.2238 6.28824C7.9238 6.28824 7.6238 6.29624 7.3238 6.29524C6.26642 6.25078 5.20722 6.27952 4.1538 6.38124C3.6837 6.41271 3.23363 6.58352 2.86103 6.87188C2.48843 7.16024 2.21018 7.55307 2.0618 8.00024C1.91249 8.43891 1.83943 8.89991 1.8458 9.36324V14.6402C1.84741 15.0258 1.8944 15.4097 1.9858 15.7842C2.10378 16.2729 2.36632 16.7146 2.73915 17.0518C3.11199 17.3889 3.5778 17.6058 4.0758 17.6742C6.1098 17.7632 8.1388 17.7792 10.1768 17.7092L10.1758 17.7142ZM13.1258 15.6212C13.1258 15.5622 13.1178 15.5022 13.1178 15.4432C13.1218 15.5002 13.1298 15.5622 13.1298 15.6212H13.1258ZM13.1758 15.5652C13.1758 15.4832 13.1598 15.3982 13.1598 15.3152C13.1638 15.4002 13.1798 15.4822 13.1798 15.5652H13.1758ZM13.2198 14.9542C13.2198 14.8802 13.2108 14.8062 13.2108 14.7332C13.2148 14.8002 13.2238 14.8792 13.2238 14.9532L13.2198 14.9542ZM13.2648 14.9542C13.2648 14.9032 13.2598 14.8542 13.2598 14.8012C13.2638 14.8492 13.2688 14.9002 13.2688 14.9522L13.2648 14.9542ZM14.3648 14.5082C14.3563 14.175 14.3523 13.8416 14.3528 13.5082C14.3608 13.8402 14.3628 14.1722 14.3728 14.5062L14.3648 14.5082ZM13.2238 9.11424C13.2259 9.03714 13.2105 8.96057 13.1788 8.89024C13.21 8.96034 13.225 9.03655 13.2228 9.11324L13.2238 9.11424ZM4.6688 14.1552C4.28315 13.6687 4.039 13.0853 3.96315 12.4691C3.88729 11.853 3.98267 11.2278 4.2388 10.6622C4.4544 10.0826 4.82613 9.57382 5.31287 9.19226C5.79962 8.8107 6.38241 8.5712 6.9968 8.50024C7.51946 8.37088 8.06987 8.41295 8.5668 8.62024C9.32878 8.83156 9.9955 9.29729 10.4561 9.94002C10.9168 10.5828 11.1435 11.3638 11.0988 12.1532C11.0851 12.9822 10.7762 13.7791 10.2276 14.4007C9.67898 15.0222 8.92663 15.4277 8.1058 15.5442L7.9408 15.5632C7.75831 15.5896 7.57418 15.603 7.3898 15.6032C6.85266 15.6016 6.32404 15.4688 5.84986 15.2164C5.37567 14.9641 4.97025 14.5998 4.6688 14.1552ZM7.4248 15.5372C7.42375 15.5323 7.42375 15.5272 7.4248 15.5222C7.42561 15.5278 7.4273 15.5332 7.4298 15.5382L7.4248 15.5372ZM8.0778 15.5292C8.00852 15.487 7.92984 15.4626 7.8488 15.4582C7.93146 15.4615 8.01196 15.4855 8.0828 15.5282L8.0778 15.5292ZM5.2288 12.0322C5.2243 12.3356 5.28006 12.6369 5.39283 12.9186C5.50561 13.2002 5.67317 13.4567 5.88581 13.6732C6.09844 13.8896 6.35191 14.0617 6.63154 14.1795C6.91117 14.2973 7.21139 14.3584 7.5148 14.3592C8.12428 14.3528 8.70691 14.1075 9.13743 13.676C9.56795 13.2445 9.81199 12.6614 9.8171 12.0519C9.82221 11.4424 9.58797 10.8552 9.16475 10.4166C8.74152 9.97796 8.16309 9.72291 7.5538 9.70624H7.5388C7.23239 9.70004 6.9279 9.75609 6.64378 9.87099C6.35966 9.98589 6.10181 10.1573 5.88585 10.3747C5.66989 10.5922 5.50031 10.8512 5.38737 11.1361C5.27443 11.421 5.22048 11.7259 5.2288 12.0322ZM11.1818 9.08624C11.0741 9.08663 10.9676 9.06484 10.8687 9.02222C10.7698 8.97961 10.6808 8.9171 10.6072 8.83857C10.5335 8.76005 10.4768 8.6672 10.4406 8.5658C10.4044 8.46441 10.3895 8.35665 10.3968 8.24924C10.4021 8.03272 10.4903 7.8265 10.6433 7.67316C10.7963 7.51982 11.0023 7.43107 11.2188 7.42524C11.4345 7.44056 11.6374 7.53365 11.7896 7.68722C11.9419 7.84079 12.0333 8.0444 12.0468 8.26024C12.0408 8.48063 11.9495 8.69009 11.792 8.84439C11.6345 8.99869 11.4233 9.08577 11.2028 9.08724L11.1818 9.08624Z" fill="url(#paint0_linear_391_17212)"/>
<path d="M7.4098 18.8892C6.61904 18.8617 5.82756 18.8617 5.0368 18.8892H4.6468C4.48017 18.8819 4.31326 18.8836 4.1468 18.8942C3.24616 18.856 2.39173 18.485 1.74887 17.853C1.10602 17.2211 0.720457 16.3731 0.666801 15.4732C0.496483 13.1654 0.496483 10.8481 0.666801 8.54024C0.733875 7.61636 1.14341 6.75079 1.81521 6.11302C2.48701 5.47526 3.37268 5.11124 4.2988 5.09224C5.3328 5.03091 6.3668 5.00024 7.4008 5.00024H7.6578C8.6978 5.00024 9.7378 5.03124 10.7778 5.09324C11.5585 5.11628 12.3112 5.38899 12.9255 5.87135C13.5398 6.3537 13.9833 7.02029 14.1908 7.77324C14.3788 8.25945 14.4633 8.77953 14.4388 9.30024C14.4481 10.0089 14.4528 10.7182 14.4528 11.4282V11.9472C14.4528 12.8912 14.4468 13.8332 14.4438 14.7772C14.4325 14.9453 14.4098 15.1123 14.3758 15.2772C14.3747 15.9997 14.153 16.7045 13.7404 17.2975C13.3277 17.8904 12.7438 18.3432 12.0668 18.5952C10.9935 18.8274 9.89669 18.9331 8.7988 18.9102C8.3388 18.9102 7.8718 18.9002 7.4098 18.8892ZM8.1958 17.9892C7.7328 17.9892 7.2708 17.9802 6.8088 17.9702C7.2718 17.9782 7.7388 17.9862 8.1968 17.9862L8.1958 17.9892ZM5.7788 17.8582C5.21456 17.8818 4.64984 17.8245 4.1018 17.6882C4.65025 17.824 5.21536 17.8802 5.7798 17.8552L5.7788 17.8582ZM10.8848 17.8582C11.3356 17.7991 11.7668 17.6369 12.1448 17.3842C11.7665 17.6345 11.3358 17.7946 10.8858 17.8522L10.8848 17.8582ZM10.1758 17.7142C10.6262 17.7396 11.0768 17.6672 11.4966 17.502C11.9164 17.3368 12.2955 17.0827 12.6078 16.7572L13.0688 15.8352C13.0652 15.6567 13.0905 15.4787 13.1438 15.3082C13.1491 15.2931 13.1561 15.2787 13.1648 15.2652C13.1587 15.2533 13.156 15.2398 13.1571 15.2264C13.1581 15.213 13.1629 15.2001 13.1708 15.1892C13.1708 13.0906 13.1728 10.9906 13.1768 8.88924C13.1588 8.81524 13.1348 8.74124 13.1208 8.66524C13.0869 8.04218 12.8149 7.45596 12.3609 7.02786C11.9069 6.59976 11.3058 6.36253 10.6818 6.36524C9.86507 6.2852 9.04393 6.25948 8.2238 6.28824C7.9238 6.28824 7.6238 6.29624 7.3238 6.29524C6.26642 6.25078 5.20722 6.27952 4.1538 6.38124C3.6837 6.41271 3.23363 6.58352 2.86103 6.87188C2.48843 7.16024 2.21018 7.55307 2.0618 8.00024C1.91249 8.43891 1.83943 8.89991 1.8458 9.36324V14.6402C1.84741 15.0258 1.8944 15.4097 1.9858 15.7842C2.10378 16.2729 2.36632 16.7146 2.73915 17.0518C3.11199 17.3889 3.5778 17.6058 4.0758 17.6742C6.1098 17.7632 8.1388 17.7792 10.1768 17.7092L10.1758 17.7142ZM13.1258 15.6212C13.1258 15.5622 13.1178 15.5022 13.1178 15.4432C13.1218 15.5002 13.1298 15.5622 13.1298 15.6212H13.1258ZM13.1758 15.5652C13.1758 15.4832 13.1598 15.3982 13.1598 15.3152C13.1638 15.4002 13.1798 15.4822 13.1798 15.5652H13.1758ZM13.2198 14.9542C13.2198 14.8802 13.2108 14.8062 13.2108 14.7332C13.2148 14.8002 13.2238 14.8792 13.2238 14.9532L13.2198 14.9542ZM13.2648 14.9542C13.2648 14.9032 13.2598 14.8542 13.2598 14.8012C13.2638 14.8492 13.2688 14.9002 13.2688 14.9522L13.2648 14.9542ZM14.3648 14.5082C14.3563 14.175 14.3523 13.8416 14.3528 13.5082C14.3608 13.8402 14.3628 14.1722 14.3728 14.5062L14.3648 14.5082ZM13.2238 9.11424C13.2259 9.03714 13.2105 8.96057 13.1788 8.89024C13.21 8.96034 13.225 9.03655 13.2228 9.11324L13.2238 9.11424ZM4.6688 14.1552C4.28315 13.6687 4.039 13.0853 3.96315 12.4691C3.88729 11.853 3.98267 11.2278 4.2388 10.6622C4.4544 10.0826 4.82613 9.57382 5.31287 9.19226C5.79962 8.8107 6.38241 8.5712 6.9968 8.50024C7.51946 8.37088 8.06987 8.41295 8.5668 8.62024C9.32878 8.83156 9.9955 9.29729 10.4561 9.94002C10.9168 10.5828 11.1435 11.3638 11.0988 12.1532C11.0851 12.9822 10.7762 13.7791 10.2276 14.4007C9.67898 15.0222 8.92663 15.4277 8.1058 15.5442L7.9408 15.5632C7.75831 15.5896 7.57418 15.603 7.3898 15.6032C6.85266 15.6016 6.32404 15.4688 5.84986 15.2164C5.37567 14.9641 4.97025 14.5998 4.6688 14.1552ZM7.4248 15.5372C7.42375 15.5323 7.42375 15.5272 7.4248 15.5222C7.42561 15.5278 7.4273 15.5332 7.4298 15.5382L7.4248 15.5372ZM8.0778 15.5292C8.00852 15.487 7.92984 15.4626 7.8488 15.4582C7.93146 15.4615 8.01196 15.4855 8.0828 15.5282L8.0778 15.5292ZM5.2288 12.0322C5.2243 12.3356 5.28006 12.6369 5.39283 12.9186C5.50561 13.2002 5.67317 13.4567 5.88581 13.6732C6.09844 13.8896 6.35191 14.0617 6.63154 14.1795C6.91117 14.2973 7.21139 14.3584 7.5148 14.3592C8.12428 14.3528 8.70691 14.1075 9.13743 13.676C9.56795 13.2445 9.81199 12.6614 9.8171 12.0519C9.82221 11.4424 9.58797 10.8552 9.16475 10.4166C8.74152 9.97796 8.16309 9.72291 7.5538 9.70624H7.5388C7.23239 9.70004 6.9279 9.75609 6.64378 9.87099C6.35966 9.98589 6.10181 10.1573 5.88585 10.3747C5.66989 10.5922 5.50031 10.8512 5.38737 11.1361C5.27443 11.421 5.22048 11.7259 5.2288 12.0322ZM11.1818 9.08624C11.0741 9.08663 10.9676 9.06484 10.8687 9.02222C10.7698 8.97961 10.6808 8.9171 10.6072 8.83857C10.5335 8.76005 10.4768 8.6672 10.4406 8.5658C10.4044 8.46441 10.3895 8.35665 10.3968 8.24924C10.4021 8.03272 10.4903 7.8265 10.6433 7.67316C10.7963 7.51982 11.0023 7.43107 11.2188 7.42524C11.4345 7.44056 11.6374 7.53365 11.7896 7.68722C11.9419 7.84079 12.0333 8.0444 12.0468 8.26024C12.0408 8.48063 11.9495 8.69009 11.792 8.84439C11.6345 8.99869 11.4233 9.08577 11.2028 9.08724L11.1818 9.08624Z" fill="black"/>
</g>
</g>
</g>
<defs>
<linearGradient id="paint0_linear_391_17212" x1="0.539062" y1="5.00024" x2="11.7529" y2="18.9138" gradientUnits="userSpaceOnUse">
<stop stop-color="#0027FF"/>
<stop offset="0.335" stop-color="#FF270A"/>
<stop offset="0.685" stop-color="#FF3915"/>
<stop offset="1" stop-color="#FFD008"/>
</linearGradient>
<clipPath id="clip0_391_17212">
<rect width="13.91" height="13.91" fill="white" transform="translate(0.539062 5.00024)"/>
</clipPath>
<clipPath id="clip1_391_17212">
<rect width="13.91" height="13.91" fill="white" transform="translate(0.539062 5.00024)"/>
</clipPath>
<clipPath id="clip2_391_17212">
<rect width="13.91" height="13.91" fill="white" transform="translate(0.539062 5.00024)"/>
</clipPath>
</defs>
</svg>
