<svg width="24" height="24" viewBox="0 0 24 24" fill="none" xmlns="http://www.w3.org/2000/svg">
<g clip-path="url(#clip0_325_84)">
<path d="M11.7898 21.166C17.1032 21.166 21.4106 16.8585 21.4106 11.5451C21.4106 6.23171 17.1032 1.92432 11.7898 1.92432C6.47634 1.92432 2.16895 6.23171 2.16895 11.5451C2.16895 16.8585 6.47634 21.166 11.7898 21.166Z" stroke="#F2F2F2" stroke-width="1.44313"/>
<path d="M14.099 7.21582L14.9796 8.34164C15.4858 8.98873 15.3927 9.18371 14.5774 9.18371H9.48098C8.07486 9.18371 7.94165 9.92168 7.94165 11.1516M9.48098 15.8746L8.60034 14.7487C8.09418 14.1016 8.18732 13.9066 9.00258 13.9066H14.099C15.5051 13.9066 15.6383 13.1687 15.6383 11.9388" stroke="#F2F2F2" stroke-width="1.44313" stroke-linecap="round" stroke-linejoin="round"/>
</g>
<defs>
<clipPath id="clip0_325_84">
<rect width="23.09" height="23.09" fill="white" transform="translate(0.244873)"/>
</clipPath>
</defs>
</svg>
