<svg width="39" height="24" viewBox="0 0 39 24" fill="none" xmlns="http://www.w3.org/2000/svg">
<g clip-path="url(#clip0_391_17206)">
<g clip-path="url(#clip1_391_17206)">
<g clip-path="url(#clip2_391_17206)">
<path d="M3.74717 18.9112H0.863169V9.6242H3.74717V18.9112ZM2.30317 8.3572C1.9713 8.35878 1.64641 8.26191 1.36959 8.07885C1.09277 7.89578 0.876456 7.63474 0.747994 7.32874C0.619532 7.02273 0.584695 6.68551 0.64789 6.35971C0.711084 6.0339 0.86947 5.73415 1.10302 5.49837C1.33657 5.26258 1.63479 5.10134 1.95998 5.03504C2.28517 4.96875 2.62271 5.00037 2.92992 5.1259C3.23714 5.25144 3.50023 5.46526 3.68593 5.74032C3.87162 6.01538 3.97158 6.33933 3.97317 6.6712C3.97371 7.11576 3.79845 7.54249 3.4856 7.85834C3.17276 8.17418 2.74771 8.35351 2.30317 8.3572ZM14.5402 18.9112H11.6632V14.3902C11.6632 13.3132 11.6412 11.9312 10.1632 11.9312C8.66417 11.9312 8.43317 13.1002 8.43317 14.3122V18.9122H5.55317V9.6242H8.31917V10.8912H8.35917C8.63572 10.4176 9.03562 10.028 9.51622 9.76379C9.99683 9.49962 10.5401 9.37085 11.0882 9.3912C14.0072 9.3912 14.5432 11.3132 14.5432 13.8092V18.9092L14.5402 18.9112Z" fill="black"/>
</g>
</g>
</g>
<defs>
<clipPath id="clip0_391_17206">
<rect width="13.91" height="13.91" fill="white" transform="translate(0.632812 5.00024)"/>
</clipPath>
<clipPath id="clip1_391_17206">
<rect width="13.91" height="13.91" fill="white" transform="translate(0.632812 5.00024)"/>
</clipPath>
<clipPath id="clip2_391_17206">
<rect width="13.91" height="13.91" fill="white" transform="translate(0.632812 5.00024)"/>
</clipPath>
</defs>
</svg>
