<svg width="166" height="29" viewBox="0 0 166 29" fill="none" xmlns="http://www.w3.org/2000/svg">
<path d="M122.936 28.435H115.346L111.756 24.4761V20.404H113.307L108.758 15.8951L104.261 20.404H105.985V24.6061L102.179 28.435H94.6362V20.7349L101.237 14.1659L94.6362 7.42864V0H102.265L108.758 6.40356L115.363 0H122.932V7.42723L116.383 14.1687L122.932 20.7377V28.4378L122.936 28.4336V28.435ZM106.045 11.4512L95.7685 21.2114V27.3039L108.754 14.1701L121.804 27.3039V21.2071L111.915 11.4512L121.804 1.13678H115.821L108.754 7.98713L101.808 1.13678H95.7728L106.05 11.4512H106.045Z" fill="url(#paint0_linear_94_1251)"/>
<path d="M129.334 28.2696C128.893 28.2696 128.673 28.049 128.673 27.6064V25.036C128.673 24.65 128.893 24.4549 129.334 24.4549H132.186C132.6 24.4549 132.804 24.65 132.804 25.036V27.6064C132.804 28.049 132.597 28.2696 132.186 28.2696H129.334Z" fill="white"/>
<path d="M137.473 7.83019C137.473 7.4145 137.68 7.20949 138.091 7.20949H150.11C151.186 7.20949 152.154 7.30139 153.021 7.47813C153.889 7.66052 154.624 7.96734 155.232 8.40989C155.836 8.85244 156.3 9.45901 156.615 10.2352C156.931 11.0115 157.091 11.9913 157.091 13.179V27.6474C157.091 28.0631 156.884 28.2681 156.473 28.2681H154.408L153.704 26.9419C153.428 27.3845 153.048 27.7181 152.568 27.9345C152.085 28.155 151.445 28.2681 150.645 28.2681H141.271C139.867 28.2681 138.73 27.8949 137.863 27.1497C136.994 26.4046 136.563 25.2862 136.563 23.7889V20.9272C136.563 20.0435 136.724 19.2757 137.038 18.6253C137.353 17.9749 137.781 17.4419 138.316 17.029C138.852 16.6176 139.487 16.3051 140.218 16.0973C140.947 15.8894 141.712 15.7848 142.512 15.7848H153.169V13.466C153.169 12.8849 153.075 12.4169 152.88 12.0563C152.686 11.6972 152.427 11.4144 152.094 11.2066C151.762 10.9987 151.378 10.8602 150.937 10.7909C150.496 10.7216 150.03 10.6863 149.533 10.6863H138.09C137.676 10.6863 137.471 10.4657 137.471 10.0232V7.82454L137.476 7.82878L137.473 7.83019ZM153.168 18.566H143.133C142.17 18.566 141.487 18.7964 141.089 19.2517C140.692 19.707 140.49 20.2838 140.49 20.9724V22.7158C140.49 23.1583 140.563 23.509 140.719 23.7734C140.87 24.0378 141.056 24.2371 141.277 24.3757C141.496 24.5411 141.743 24.6528 142.02 24.7051C142.296 24.7617 142.57 24.7871 142.846 24.7871H151.273C151.852 24.7871 152.314 24.6358 152.656 24.3318C153.001 24.0279 153.17 23.5867 153.17 23.0056V18.566H153.168Z" fill="white"/>
<path d="M160.891 2.40222C160.891 1.95967 161.098 1.7391 161.51 1.7391H164.481C164.866 1.7391 165.06 1.95967 165.06 2.40222V4.60084C165.06 5.01794 164.866 5.22154 164.481 5.22154H161.51C161.094 5.22154 160.891 5.0137 160.891 4.60084V2.40222ZM161.017 7.83443C161.017 7.41874 161.224 7.21373 161.635 7.21373H164.322C164.736 7.21373 164.94 7.42157 164.94 7.83443V27.6489C164.94 28.0645 164.733 28.2696 164.322 28.2696H161.635C161.22 28.2696 161.017 28.0617 161.017 27.6489V7.83019V7.83443Z" fill="white"/>
<path d="M19.8635 24.8267C20.2776 24.8267 20.4818 25.0346 20.4818 25.4474V27.646C20.4818 28.0617 20.2748 28.2667 19.8635 28.2667H7.47417C6.15172 28.2667 5.02503 28.1579 4.08706 27.9331C3.1491 27.7125 2.38013 27.3307 1.77594 26.792C1.17176 26.2548 0.722489 25.5224 0.432367 24.5934C0.143653 23.6701 0 22.5122 0 21.1336V14.0443C0 12.7435 0.159145 11.659 0.474618 10.7881C0.790091 9.91711 1.26471 9.2144 1.89988 8.67288C2.53505 8.13559 3.31247 7.75384 4.23213 7.53186C5.15601 7.31129 6.20665 7.19818 7.38967 7.19818H13.2132C14.2583 7.19818 15.23 7.29008 16.1243 7.46682C17.0186 7.64921 17.7918 7.95603 18.4354 8.39858C19.0833 8.84113 19.5847 9.4477 19.9424 10.2239C20.3015 11.0002 20.4776 11.98 20.4776 13.1677V13.8704C20.4776 15.3917 20.0494 16.5497 19.1988 17.3514C18.3439 18.1531 17.1341 18.5518 15.5652 18.5518H3.91806V21.1223C3.91806 22.5319 4.23353 23.4976 4.86871 24.0236C5.50388 24.5482 6.50663 24.8126 7.88401 24.8126H19.8635V24.8253V24.8267ZM17.1806 13.22C17.1806 12.2274 16.9046 11.5459 16.3553 11.1868C15.8018 10.8277 15.0075 10.6495 13.9583 10.6495H7.63754C6.37143 10.6495 5.43487 10.8969 4.82927 11.3961C4.22508 11.8937 3.92229 12.8043 3.92229 14.132V15.7876H14.8258C16.3933 15.7876 17.1806 15.15 17.1806 13.8803V13.2172V13.2214V13.22Z" fill="white"/>
<path d="M24.3252 7.83019C24.3252 7.4145 24.5322 7.20949 24.9435 7.20949H36.961C38.037 7.20949 39.0046 7.30139 39.8721 7.47813C40.7411 7.66052 41.4748 7.96734 42.0832 8.40989C42.6874 8.85244 43.1508 9.45901 43.4663 10.2352C43.7817 11.0115 43.9409 11.9913 43.9409 13.179V27.6474C43.9409 28.0631 43.7338 28.2681 43.3226 28.2681H41.2579L40.5538 26.9419C40.2777 27.3845 39.8975 27.7181 39.4172 27.9345C38.9327 28.155 38.2948 28.2681 37.4948 28.2681H28.1207C26.7166 28.2681 25.5801 27.8949 24.7125 27.1497C23.8436 26.4046 23.4126 25.2862 23.4126 23.7889V20.9272C23.4126 20.0435 23.5731 19.2757 23.8886 18.6253C24.2041 17.9749 24.6308 17.4419 25.1674 17.029C25.704 16.6162 26.3378 16.3051 27.0687 16.0973C27.7982 15.8894 28.563 15.7848 29.3629 15.7848H40.02V13.466C40.02 12.8849 39.9242 12.4169 39.7313 12.0563C39.5369 11.6972 39.2778 11.4144 38.9454 11.2066C38.613 10.9987 38.2286 10.8602 37.7877 10.7909C37.3469 10.7216 36.8808 10.6863 36.3836 10.6863H24.9407C24.5252 10.6863 24.3224 10.4657 24.3224 10.0232V7.82454L24.3266 7.82878L24.3252 7.83019ZM40.02 18.566H29.9854C29.0221 18.566 28.339 18.7964 27.9419 19.2517C27.5447 19.707 27.3419 20.2838 27.3419 20.9724V22.7158C27.3419 23.1583 27.4152 23.509 27.5715 23.7734C27.7222 24.0378 27.9081 24.2371 28.1292 24.3757C28.3489 24.5411 28.5954 24.6528 28.8714 24.7051C29.1474 24.7617 29.4207 24.7871 29.6967 24.7871H38.1243C38.7032 24.7871 39.1651 24.6358 39.5073 24.3318C39.8524 24.0279 40.0214 23.5867 40.0214 23.0056V18.566H40.02Z" fill="white"/>
<path d="M47.7434 7.83019C47.7434 7.4145 47.9504 7.20949 48.3617 7.20949H50.4263L51.1305 8.53573C51.4066 8.09318 51.7826 7.76374 52.2671 7.54317C52.7473 7.3226 53.3909 7.20949 54.1895 7.20949H63.8973C64.2818 7.20949 64.4888 7.41733 64.5156 7.83019V10.067C64.5156 10.453 64.3086 10.6608 63.8973 10.6877H53.529C52.9501 10.6877 52.4966 10.8531 52.1643 11.1868C51.8361 11.5205 51.6671 11.9885 51.6671 12.595V27.6446C51.6671 28.0306 51.4601 28.2385 51.0488 28.2653H48.3659C47.9814 28.2653 47.7744 28.0575 47.7476 27.6446V7.83019H47.7434Z" fill="white"/>
<path d="M67.4465 7.83019C67.4465 7.4145 67.6535 7.20949 68.0647 7.20949H70.1294L70.8336 8.53573C71.1096 8.09318 71.4857 7.76374 71.9701 7.54317C72.449 7.3226 73.0926 7.20949 73.8925 7.20949H84.0525C85.4566 7.20949 86.5931 7.58276 87.4607 8.32789C88.3297 9.07301 88.7606 10.1914 88.7606 11.6831V27.6432C88.7606 28.0589 88.5536 28.2639 88.1423 28.2639H85.4594C85.0439 28.2639 84.8411 28.0561 84.8411 27.6432V13.3444C84.8411 12.3519 84.5778 11.6576 84.0553 11.2716C83.8356 11.0511 83.5708 10.8984 83.2694 10.8164C82.9666 10.7343 82.6652 10.6905 82.3624 10.6905H73.2348C72.656 10.6905 72.2025 10.8559 71.8701 11.1896C71.542 11.5233 71.373 11.9913 71.373 12.5979V27.6474C71.373 28.0631 71.166 28.2681 70.7547 28.2681H68.0718C67.6563 28.2681 67.4535 28.0603 67.4535 27.6474V7.83019H67.4451H67.4465Z" fill="white"/>
<defs>
<linearGradient id="paint0_linear_94_1251" x1="94.056" y1="23.4354" x2="126.963" y2="3.00602" gradientUnits="userSpaceOnUse">
<stop stop-color="#002AFF"/>
<stop offset="1" stop-color="#A26CFE"/>
</linearGradient>
</defs>
</svg>
