<svg width="167" height="29" viewBox="0 0 167 29" fill="none" xmlns="http://www.w3.org/2000/svg">
<path d="M123.905 28.6787H116.316L112.726 24.73V20.6685H114.276L109.727 16.1712L105.231 20.6685H106.954V24.8597L103.149 28.6787H95.606V20.9985L102.207 14.4464L95.606 7.72654V0.317051H103.235L109.727 6.7041L116.332 0.317051H123.901V7.72513L117.352 14.4492L123.901 21.0013V28.6815L123.905 28.6773V28.6787ZM107.015 11.7387L96.7383 21.4737V27.5505L109.723 14.4506L122.773 27.5505V21.4695L112.885 11.7387L122.773 1.4509H116.79L109.723 8.28359L102.777 1.4509H96.7426L107.019 11.7387H107.015Z" fill="url(#paint0_linear_1_63)"/>
<path d="M130.303 28.5137C129.862 28.5137 129.643 28.2937 129.643 27.8523V25.2885C129.643 24.9035 129.862 24.7088 130.303 24.7088H133.155C133.569 24.7088 133.773 24.9035 133.773 25.2885V27.8523C133.773 28.2937 133.566 28.5137 133.155 28.5137H130.303Z" fill="#1A1A1A"/>
<path d="M138.442 8.12705C138.442 7.71244 138.649 7.50795 139.06 7.50795H151.079C152.155 7.50795 153.122 7.59961 153.99 7.7759C154.857 7.95782 155.593 8.26385 156.201 8.70526C156.805 9.14667 157.268 9.75167 157.584 10.5259C157.899 11.3001 158.06 12.2774 158.06 13.4621V27.8932C158.06 28.3078 157.853 28.5123 157.442 28.5123H155.377L154.673 27.1895C154.397 27.6309 154.017 27.9637 153.536 28.1795C153.053 28.3995 152.414 28.5123 151.614 28.5123H142.24C140.836 28.5123 139.7 28.14 138.832 27.3968C137.963 26.6536 137.532 25.5381 137.532 24.0446V21.1903C137.532 20.3088 137.693 19.5431 138.007 18.8944C138.322 18.2456 138.75 17.714 139.285 17.3022C139.821 16.8918 140.456 16.5801 141.187 16.3728C141.916 16.1655 142.681 16.0612 143.481 16.0612H154.138V13.7483C154.138 13.1687 154.043 12.7019 153.849 12.3423C153.655 11.9841 153.396 11.7021 153.063 11.4947C152.731 11.2874 152.346 11.1492 151.906 11.0801C151.465 11.011 150.999 10.9758 150.501 10.9758H139.059C138.645 10.9758 138.44 10.7558 138.44 10.3144V8.12141L138.445 8.12564L138.442 8.12705ZM154.136 18.8351H144.102C143.139 18.8351 142.456 19.065 142.058 19.5191C141.661 19.9732 141.459 20.5486 141.459 21.2354V22.9742C141.459 23.4156 141.532 23.7654 141.688 24.0291C141.839 24.2928 142.025 24.4917 142.246 24.6299C142.466 24.7949 142.712 24.9063 142.989 24.9585C143.265 25.0149 143.539 25.0403 143.815 25.0403H152.242C152.821 25.0403 153.283 24.8894 153.625 24.5862C153.97 24.2829 154.139 23.8429 154.139 23.2633V18.8351H154.136Z" fill="#1A1A1A"/>
<path d="M161.86 2.71308C161.86 2.27167 162.067 2.05167 162.478 2.05167H165.45C165.834 2.05167 166.028 2.27167 166.028 2.71308V4.90603C166.028 5.32205 165.834 5.52513 165.45 5.52513H162.478C162.062 5.52513 161.86 5.31782 161.86 4.90603V2.71308ZM161.985 8.13128C161.985 7.71667 162.192 7.51218 162.603 7.51218H165.29C165.704 7.51218 165.909 7.71949 165.909 8.13128V27.8946C165.909 28.3092 165.702 28.5137 165.29 28.5137H162.603C162.188 28.5137 161.985 28.3064 161.985 27.8946V8.12705V8.13128Z" fill="#1A1A1A"/>
<path d="M20.8348 25.0797C21.2489 25.0797 21.4531 25.2871 21.4531 25.6988V27.8918C21.4531 28.3064 21.246 28.5109 20.8348 28.5109H8.4457C7.12328 28.5109 5.99661 28.4023 5.05866 28.1781C4.12071 27.9581 3.35176 27.5773 2.74759 27.04C2.14341 26.5041 1.69415 25.7736 1.40404 24.8471C1.11533 23.9262 0.97168 22.7712 0.97168 21.3962V14.3251C0.97168 13.0277 1.13082 11.946 1.44629 11.0773C1.76175 10.2086 2.23636 9.50769 2.87152 8.96756C3.50668 8.43167 4.28408 8.0509 5.20372 7.82949C6.12759 7.60949 7.17821 7.49667 8.3612 7.49667H14.1847C15.2296 7.49667 16.2014 7.58833 17.0957 7.76461C17.99 7.94654 18.7632 8.25256 19.4068 8.69397C20.0546 9.13538 20.556 9.74038 20.9137 10.5146C21.2728 11.2888 21.4488 12.2662 21.4488 13.4508V14.1517C21.4488 15.6691 21.0207 16.8241 20.1701 17.6237C19.3152 18.4233 18.1055 18.821 16.5366 18.821H4.88966V21.3849C4.88966 22.7909 5.20513 23.7541 5.84029 24.2787C6.47545 24.8019 7.47818 25.0656 8.85553 25.0656H20.8348V25.0783V25.0797ZM18.1519 13.5029C18.1519 12.5129 17.8759 11.8332 17.3267 11.475C16.7732 11.1168 15.9789 10.9391 14.9297 10.9391H8.60907C7.34298 10.9391 6.40644 11.1859 5.80085 11.6837C5.19668 12.1801 4.89389 13.0883 4.89389 14.4126V16.064H15.7972C17.3647 16.064 18.1519 15.4279 18.1519 14.1615V13.5001V13.5044V13.5029Z" fill="#1A1A1A"/>
<path d="M25.2964 8.12705C25.2964 7.71244 25.5034 7.50795 25.9147 7.50795H37.932C39.008 7.50795 39.9755 7.59961 40.843 7.7759C41.712 7.95782 42.4457 8.26385 43.0541 8.70526C43.6583 9.14667 44.1216 9.75167 44.4371 10.5259C44.7525 11.3001 44.9117 12.2774 44.9117 13.4621V27.8932C44.9117 28.3078 44.7047 28.5123 44.2934 28.5123H42.2288L41.5246 27.1895C41.2486 27.6309 40.8684 27.9637 40.3881 28.1795C39.9037 28.3995 39.2657 28.5123 38.4657 28.5123H29.0919C27.6878 28.5123 26.5512 28.14 25.6837 27.3968C24.8148 26.6536 24.3838 25.5381 24.3838 24.0446V21.1903C24.3838 20.3088 24.5444 19.5431 24.8598 18.8944C25.1753 18.2456 25.602 17.714 26.1386 17.3022C26.6752 16.8904 27.3089 16.5801 28.0399 16.3728C28.7694 16.1655 29.5341 16.0612 30.334 16.0612H40.9909V13.7483C40.9909 13.1687 40.8951 12.7019 40.7022 12.3423C40.5078 11.9841 40.2487 11.7021 39.9163 11.4947C39.584 11.2874 39.1995 11.1492 38.7587 11.0801C38.3179 11.011 37.8517 10.9758 37.3546 10.9758H25.9119C25.4964 10.9758 25.2936 10.7558 25.2936 10.3144V8.12141L25.2978 8.12564L25.2964 8.12705ZM40.9909 18.8351H30.9565C29.9932 18.8351 29.3102 19.065 28.913 19.5191C28.5159 19.9732 28.3131 20.5486 28.3131 21.2354V22.9742C28.3131 23.4156 28.3863 23.7654 28.5426 24.0291C28.6933 24.2928 28.8792 24.4917 29.1003 24.6299C29.32 24.7949 29.5665 24.9063 29.8425 24.9585C30.1186 25.0149 30.3918 25.0403 30.6678 25.0403H39.0953C39.6741 25.0403 40.136 24.8894 40.4783 24.5862C40.8233 24.283 40.9923 23.843 40.9923 23.2633V18.8351H40.9909Z" fill="#1A1A1A"/>
<path d="M48.7142 8.12705C48.7142 7.71244 48.9212 7.50795 49.3324 7.50795H51.397L52.1012 8.83077C52.3772 8.38936 52.7533 8.06077 53.2377 7.84077C53.718 7.62077 54.3616 7.50795 55.1601 7.50795H64.8678C65.2522 7.50795 65.4593 7.71526 65.486 8.12705V10.3581C65.486 10.7431 65.279 10.9504 64.8678 10.9772H54.4996C53.9208 10.9772 53.4673 11.1422 53.1349 11.475C52.8068 11.8078 52.6378 12.2746 52.6378 12.8796V27.8904C52.6378 28.2754 52.4308 28.4827 52.0195 28.5095H49.3367C48.9522 28.5095 48.7452 28.3022 48.7184 27.8904V8.12705H48.7142Z" fill="#1A1A1A"/>
<path d="M68.4167 8.12705C68.4167 7.71244 68.6238 7.50795 69.035 7.50795H71.0996L71.8038 8.83077C72.0798 8.38936 72.4559 8.06077 72.9403 7.84077C73.4192 7.62077 74.0628 7.50795 74.8627 7.50795H85.0224C86.4265 7.50795 87.563 7.88026 88.4306 8.62346C89.2995 9.36667 89.7305 10.4822 89.7305 11.97V27.889C89.7305 28.3036 89.5234 28.5081 89.1122 28.5081H86.4293C86.0139 28.5081 85.8111 28.3008 85.8111 27.889V13.6271C85.8111 12.6371 85.5477 11.9446 85.0252 11.5596C84.8055 11.3396 84.5408 11.1873 84.2394 11.1055C83.9366 11.0237 83.6352 10.98 83.3324 10.98H74.205C73.6262 10.98 73.1727 11.145 72.8403 11.4778C72.5122 11.8106 72.3432 12.2774 72.3432 12.8824V27.8932C72.3432 28.3078 72.1362 28.5123 71.7249 28.5123H69.0421C68.6266 28.5123 68.4238 28.305 68.4238 27.8932V8.12705H68.4153H68.4167Z" fill="#1A1A1A"/>
<defs>
<linearGradient id="paint0_linear_1_63" x1="95.0258" y1="23.692" x2="127.885" y2="3.23987" gradientUnits="userSpaceOnUse">
<stop stop-color="#002AFF"/>
<stop offset="1" stop-color="#A26CFE"/>
</linearGradient>
</defs>
</svg>
