<svg width="105" height="18" viewBox="0 0 105 18" fill="none" xmlns="http://www.w3.org/2000/svg">
<g clip-path="url(#clip0_219_164)">
<g clip-path="url(#clip1_219_164)">
<g clip-path="url(#clip2_219_164)">
<path d="M8.44874 1.29485C8.71927 0.462261 9.89716 0.462263 10.1677 1.29485L11.6415 5.83077C11.7625 6.20312 12.1095 6.45522 12.501 6.45522H17.2704C18.1458 6.45522 18.5098 7.57546 17.8015 8.09003L13.943 10.8934C13.6263 11.1235 13.4938 11.5314 13.6148 11.9037L15.0886 16.4396C15.3591 17.2722 14.4062 17.9646 13.6979 17.45L9.8394 14.6467C9.52266 14.4165 9.09377 14.4165 8.77703 14.6467L4.91855 17.45C4.2103 17.9646 3.25737 17.2722 3.52789 16.4396L5.0017 11.9037C5.12269 11.5314 4.99015 11.1235 4.67341 10.8934L0.814926 8.09003C0.106681 7.57546 0.470672 6.45522 1.34611 6.45522H6.11546C6.50697 6.45522 6.85395 6.20312 6.97493 5.83077L8.44874 1.29485Z" fill="#F8C701"/>
</g>
</g>
</g>
<g clip-path="url(#clip3_219_164)">
<g clip-path="url(#clip4_219_164)">
<g clip-path="url(#clip5_219_164)">
<path d="M29.6987 1.29485C29.9693 0.462261 31.1472 0.462263 31.4177 1.29485L32.8915 5.83077C33.0125 6.20312 33.3595 6.45522 33.751 6.45522H38.5204C39.3958 6.45522 39.7598 7.57546 39.0515 8.09003L35.193 10.8934C34.8763 11.1235 34.7438 11.5314 34.8648 11.9037L36.3386 16.4396C36.6091 17.2722 35.6562 17.9646 34.9479 17.45L31.0894 14.6467C30.7727 14.4165 30.3438 14.4165 30.027 14.6467L26.1685 17.45C25.4603 17.9646 24.5074 17.2722 24.7779 16.4396L26.2517 11.9037C26.3727 11.5314 26.2401 11.1235 25.9234 10.8934L22.0649 8.09003C21.3567 7.57546 21.7207 6.45522 22.5961 6.45522H27.3655C27.757 6.45522 28.1039 6.20312 28.2249 5.83077L29.6987 1.29485Z" fill="#F8C701"/>
</g>
</g>
</g>
<g clip-path="url(#clip6_219_164)">
<g clip-path="url(#clip7_219_164)">
<g clip-path="url(#clip8_219_164)">
<path d="M50.9487 1.29485C51.2193 0.462261 52.3972 0.462263 52.6677 1.29485L54.1415 5.83077C54.2625 6.20312 54.6095 6.45522 55.001 6.45522H59.7704C60.6458 6.45522 61.0098 7.57546 60.3015 8.09003L56.443 10.8934C56.1263 11.1235 55.9938 11.5314 56.1148 11.9037L57.5886 16.4396C57.8591 17.2722 56.9062 17.9646 56.1979 17.45L52.3394 14.6467C52.0227 14.4165 51.5938 14.4165 51.277 14.6467L47.4185 17.45C46.7103 17.9646 45.7574 17.2722 46.0279 16.4396L47.5017 11.9037C47.6227 11.5314 47.4901 11.1235 47.1734 10.8934L43.3149 8.09003C42.6067 7.57546 42.9707 6.45522 43.8461 6.45522H48.6155C49.007 6.45522 49.3539 6.20312 49.4749 5.83077L50.9487 1.29485Z" fill="#F8C701"/>
</g>
</g>
</g>
<g clip-path="url(#clip9_219_164)">
<g clip-path="url(#clip10_219_164)">
<g clip-path="url(#clip11_219_164)">
<path d="M72.1987 1.29485C72.4693 0.462261 73.6472 0.462263 73.9177 1.29485L75.3915 5.83077C75.5125 6.20312 75.8595 6.45522 76.251 6.45522H81.0204C81.8958 6.45522 82.2598 7.57546 81.5515 8.09003L77.693 10.8934C77.3763 11.1235 77.2438 11.5314 77.3648 11.9037L78.8386 16.4396C79.1091 17.2722 78.1562 17.9646 77.4479 17.45L73.5894 14.6467C73.2727 14.4165 72.8438 14.4165 72.527 14.6467L68.6685 17.45C67.9603 17.9646 67.0074 17.2722 67.2779 16.4396L68.7517 11.9037C68.8727 11.5314 68.7401 11.1235 68.4234 10.8934L64.5649 8.09003C63.8567 7.57546 64.2207 6.45522 65.0961 6.45522H69.8655C70.257 6.45522 70.6039 6.20312 70.7249 5.83077L72.1987 1.29485Z" fill="#F8C701"/>
</g>
</g>
</g>
<g clip-path="url(#clip12_219_164)">
<g clip-path="url(#clip13_219_164)">
<g clip-path="url(#clip14_219_164)">
<path d="M93.4487 1.29485C93.7193 0.462261 94.8972 0.462263 95.1677 1.29485L96.6415 5.83077C96.7625 6.20312 97.1095 6.45522 97.501 6.45522H102.27C103.146 6.45522 103.51 7.57546 102.801 8.09003L98.943 10.8934C98.6263 11.1235 98.4938 11.5314 98.6148 11.9037L100.089 16.4396C100.359 17.2722 99.4062 17.9646 98.6979 17.45L94.8394 14.6467C94.5227 14.4165 94.0938 14.4165 93.777 14.6467L89.9185 17.45C89.2103 17.9646 88.2574 17.2722 88.5279 16.4396L90.0017 11.9037C90.1227 11.5314 89.9901 11.1235 89.6734 10.8934L85.8149 8.09003C85.1067 7.57546 85.4707 6.45522 86.3461 6.45522H91.1155C91.507 6.45522 91.8539 6.20312 91.9749 5.83077L93.4487 1.29485Z" fill="#F8C701"/>
</g>
</g>
</g>
<defs>
<clipPath id="clip0_219_164">
<rect width="19" height="17" fill="white" transform="translate(0.159912 0.649902)"/>
</clipPath>
<clipPath id="clip1_219_164">
<rect width="19" height="17" fill="white" transform="translate(0.159912 0.649902)"/>
</clipPath>
<clipPath id="clip2_219_164">
<rect width="19" height="17" fill="white" transform="translate(0.159912 0.649902)"/>
</clipPath>
<clipPath id="clip3_219_164">
<rect width="19" height="17" fill="white" transform="translate(21.4099 0.649902)"/>
</clipPath>
<clipPath id="clip4_219_164">
<rect width="19" height="17" fill="white" transform="translate(21.4099 0.649902)"/>
</clipPath>
<clipPath id="clip5_219_164">
<rect width="19" height="17" fill="white" transform="translate(21.4099 0.649902)"/>
</clipPath>
<clipPath id="clip6_219_164">
<rect width="19" height="17" fill="white" transform="translate(42.6599 0.649902)"/>
</clipPath>
<clipPath id="clip7_219_164">
<rect width="19" height="17" fill="white" transform="translate(42.6599 0.649902)"/>
</clipPath>
<clipPath id="clip8_219_164">
<rect width="19" height="17" fill="white" transform="translate(42.6599 0.649902)"/>
</clipPath>
<clipPath id="clip9_219_164">
<rect width="19" height="17" fill="white" transform="translate(63.9099 0.649902)"/>
</clipPath>
<clipPath id="clip10_219_164">
<rect width="19" height="17" fill="white" transform="translate(63.9099 0.649902)"/>
</clipPath>
<clipPath id="clip11_219_164">
<rect width="19" height="17" fill="white" transform="translate(63.9099 0.649902)"/>
</clipPath>
<clipPath id="clip12_219_164">
<rect width="19" height="17" fill="white" transform="translate(85.1599 0.649902)"/>
</clipPath>
<clipPath id="clip13_219_164">
<rect width="19" height="17" fill="white" transform="translate(85.1599 0.649902)"/>
</clipPath>
<clipPath id="clip14_219_164">
<rect width="19" height="17" fill="white" transform="translate(85.1599 0.649902)"/>
</clipPath>
</defs>
</svg>
