<svg width="44" height="24" viewBox="0 0 44 24" fill="none" xmlns="http://www.w3.org/2000/svg">
<g clip-path="url(#clip0_391_17218)">
<g clip-path="url(#clip1_391_17218)">
<g clip-path="url(#clip2_391_17218)">
<path d="M5.05675 18.8024C4.23144 18.8601 3.4024 18.7727 2.60723 18.5443C2.06213 18.4215 1.57483 18.1173 1.22492 17.6817C0.875021 17.246 0.683206 16.7046 0.680817 16.1458C0.35341 13.3546 0.356432 10.5345 0.689819 7.74405C0.696744 7.22829 0.862996 6.72729 1.16579 6.30972C1.46859 5.89214 1.89311 5.57842 2.38118 5.41156C3.11936 5.14344 3.90748 5.04099 4.68967 5.11149C8.53949 4.94246 12.3913 4.96946 16.2411 5.1665C17.9085 5.25152 18.7807 6.0857 19.0247 7.88008C19.2713 9.81857 19.3336 11.7761 19.2108 13.7263C19.2221 14.6713 19.1264 15.6145 18.9257 16.5379C18.8353 17.177 18.5086 17.7589 18.0101 18.1689C17.5116 18.5788 16.8776 18.787 16.2331 18.7524C14.2227 18.8624 12.2119 18.9174 10.2008 18.9174C8.48648 18.9174 6.77178 18.8791 5.05675 18.8024ZM7.52327 9.50042V14.9016C7.52327 15.0246 7.55228 15.1516 7.54128 15.2757C7.60649 15.1677 7.70279 15.082 7.81754 15.0297C7.9323 14.9774 8.06017 14.961 8.18441 14.9826V14.9586C8.28443 14.6325 8.5925 14.5585 8.84155 14.4335C10.2238 13.7243 11.6131 13.0262 12.9964 12.318C13.1745 12.227 13.3875 12.178 13.5035 11.988C13.5035 11.8189 13.3595 11.7879 13.2555 11.7389C11.5511 10.9007 9.87777 9.98253 8.18441 9.10934C8.0371 9.0155 7.87307 8.95097 7.70131 8.9193C7.54528 8.9193 7.52427 9.09234 7.52327 9.50042Z" fill="black"/>
</g>
</g>
</g>
<defs>
<clipPath id="clip0_391_17218">
<rect width="18.83" height="13.92" fill="white" transform="translate(0.4375 5.0498)"/>
</clipPath>
<clipPath id="clip1_391_17218">
<rect width="18.83" height="13.92" fill="white" transform="translate(0.4375 5.0498)"/>
</clipPath>
<clipPath id="clip2_391_17218">
<rect width="18.83" height="13.918" fill="white" transform="translate(0.4375 5.05078)"/>
</clipPath>
</defs>
</svg>
