<svg width="123" height="68" viewBox="0 0 123 68" fill="none" xmlns="http://www.w3.org/2000/svg">
<path d="M43.7515 43.1853C40.2818 43.1853 37.469 46.0539 37.469 49.5925C37.469 53.1311 40.2818 55.9997 43.7515 55.9997C47.2213 55.9997 50.034 53.1311 50.034 49.5925C50.0296 46.0558 47.2194 43.1898 43.7515 43.1853" fill="#FBB900"/>
<path d="M26.2127 43.1853C22.743 43.1853 19.9302 46.0539 19.9302 49.5925C19.9302 53.1311 22.743 55.9997 26.2127 55.9997C29.6824 55.9997 32.4952 53.1311 32.4952 49.5925C32.4908 46.0558 29.6806 43.1898 26.2127 43.1853" fill="#E62933"/>
<path d="M61.3064 43.1853C57.8367 43.1853 55.0239 46.0539 55.0239 49.5925C55.0239 53.1311 57.8367 55.9997 61.3064 55.9997C64.7762 55.9997 67.589 53.1311 67.589 49.5925C67.5845 46.0558 64.7744 43.1898 61.3064 43.1853" fill="#09A548"/>
<path d="M96.42 43.1853C92.9502 43.1853 90.1375 46.0539 90.1375 49.5925C90.1375 53.1311 92.9502 55.9997 96.42 55.9997C99.8897 55.9997 102.703 53.1311 102.703 49.5925C102.7 46.0548 99.8888 43.1876 96.42 43.1853" fill="#1FA8E0"/>
<path d="M78.8651 43.1853C76.3237 43.1836 74.0316 44.7437 73.0579 47.1377C72.0843 49.5318 72.6208 52.2883 74.4172 54.1216C76.2137 55.9549 78.9162 56.5038 81.2644 55.5124C83.6125 54.5209 85.1436 52.1843 85.1436 49.5925C85.1414 46.0564 82.3324 43.1898 78.8651 43.1853" fill="#A83E8F"/>
<path fill-rule="evenodd" clip-rule="evenodd" d="M73.5802 19.8504C72.2274 21.2199 71.4729 23.0877 71.4872 25.0317C71.4872 29.1841 74.7332 32.3219 78.8047 32.3219C82.8763 32.3219 86.1182 29.2128 86.1182 25.0604V13.1044C86.1356 12.8023 86.0235 12.5073 85.811 12.2961C85.5985 12.0849 85.3064 11.9782 85.0107 12.0037C84.7184 11.9873 84.4328 12.0974 84.2243 12.307C84.0157 12.5165 83.9035 12.8061 83.9153 13.1044V20.5508H83.8026C82.9448 19.0516 81.2251 17.7538 78.6759 17.7538C76.7699 17.725 74.933 18.4808 73.5802 19.8504ZM26.2772 17.7537C22.2338 17.7537 18.9637 20.8751 18.9637 25.0316C18.9462 26.9755 19.6976 28.8446 21.0481 30.2165C22.3986 31.5884 24.2343 32.3473 26.1403 32.3218C28.6895 32.3218 30.4092 31.0199 31.267 29.5249H31.3757V31.3895C31.3595 31.6921 31.4726 31.9869 31.6857 32.198C31.8989 32.4091 32.1912 32.5156 32.4872 32.4902C32.7816 32.5103 33.0704 32.4018 33.2817 32.1918C33.493 31.9818 33.6068 31.6901 33.5947 31.3895V25.0152C33.5947 20.8628 30.3206 17.7537 26.2772 17.7537ZM29.9727 21.2791C30.9463 22.272 31.4794 23.6277 31.4483 25.0315C31.4796 26.4379 30.9442 27.7958 29.967 28.7886C28.9897 29.7813 27.6561 30.3221 26.2773 30.2846C24.9018 30.3164 23.5735 29.7731 22.6007 28.781C21.6279 27.7889 21.0952 26.4342 21.1264 25.0315C21.094 23.6252 21.6283 22.2668 22.6048 21.2733C23.5813 20.2797 24.9145 19.738 26.2934 19.7743C27.6698 19.7426 28.9992 20.2862 29.9727 21.2791ZM48.9466 25.0315C48.9466 22.128 46.6387 19.7743 43.7917 19.7743C40.9447 19.7743 38.6368 22.128 38.6368 25.0315C38.6368 27.935 40.9447 30.2887 43.7917 30.2887C46.6387 30.2887 48.9466 27.935 48.9466 25.0315ZM38.6924 36.5044C38.8126 36.766 39.0327 36.9658 39.3013 37.0574C40.6207 37.68 42.0602 37.9929 43.5139 37.9733C48.2257 37.9733 51.1052 34.8929 51.1052 30.3134V25.0152C51.1052 20.8628 47.8391 17.7537 43.7917 17.7537C39.7443 17.7537 36.4742 20.8751 36.4742 25.0316C36.4568 26.9734 37.2065 28.8405 38.5544 30.2121C39.9023 31.5836 41.7348 32.344 43.6387 32.3218C46.188 32.3218 47.9076 31.0199 48.7654 29.5249H48.8902V30.4736C48.8902 33.8908 46.8927 35.8992 43.5984 35.8992C42.3619 35.8944 41.1414 35.614 40.0222 35.0778C39.7691 34.9367 39.4664 34.9222 39.2014 35.0385C38.9365 35.1548 38.7387 35.3889 38.665 35.6733C38.5622 35.9425 38.5721 36.2429 38.6924 36.5044ZM66.4571 25.0316C66.5095 23.1191 65.539 21.3286 63.9231 20.3566C62.3072 19.3845 60.3011 19.3845 58.6852 20.3566C57.0694 21.3286 56.0989 23.1191 56.1513 25.0316C56.2293 27.8768 58.5133 30.1419 61.3042 30.1419C64.095 30.1419 66.3791 27.8768 66.4571 25.0316ZM61.3022 17.7537C57.2226 17.7537 54.0008 20.8751 53.9726 25.0316H54.0008C54.0008 29.184 57.2065 32.3218 61.3022 32.3218C65.3979 32.3218 68.6197 29.1881 68.6197 25.0316C68.6197 20.8751 65.3818 17.7537 61.3022 17.7537ZM83.9717 25.0315C83.9717 22.128 81.6638 19.7743 78.8168 19.7743C75.9699 19.7743 73.662 22.128 73.662 25.0315C73.662 27.935 75.9699 30.2887 78.8168 30.2887C81.6638 30.2887 83.9717 27.935 83.9717 25.0315ZM101.482 25.0316C101.535 23.1191 100.564 21.3286 98.9483 20.3566C97.3324 19.3845 95.3263 19.3845 93.7104 20.3566C92.0945 21.3286 91.124 23.1191 91.1764 25.0316C91.2544 27.8768 93.5385 30.1419 96.3293 30.1419C99.1202 30.1419 101.404 27.8768 101.482 25.0316ZM96.3273 17.7537C92.284 17.7537 89.0138 20.8751 88.9977 25.0316H89.0138C88.9963 26.9755 89.7477 28.8446 91.0983 30.2165C92.4488 31.5884 94.2844 32.3474 96.1904 32.3218C98.7397 32.3218 100.455 31.0199 101.317 29.5249H101.426V31.3895C101.408 31.6917 101.521 31.9866 101.733 32.1979C101.946 32.4091 102.238 32.5158 102.533 32.4902C102.828 32.5115 103.118 32.4036 103.331 32.1935C103.543 31.9833 103.657 31.6909 103.645 31.3895V25.0152C103.645 20.8628 100.371 17.7537 96.3273 17.7537Z" fill="#605D5C"/>
</svg>
