<svg width="137" height="68" viewBox="0 0 137 68" fill="none" xmlns="http://www.w3.org/2000/svg">
<path d="M98.798 57.979C95.4683 57.979 93.4934 56.2792 93.3423 53.8309H96.5261C96.5261 54.647 96.9794 55.7334 98.9491 55.801C100.314 55.801 101.07 54.9848 101.07 54.3715C100.919 53.4202 99.7047 53.3526 98.4958 53.1447C97.1305 52.9472 96.0727 52.6717 95.312 52.3338C94.2542 51.788 93.6445 50.6288 93.6445 49.4072C93.6445 47.2292 95.4683 45.5294 98.6469 45.5294C101.68 45.5294 103.649 47.094 103.795 49.4748H100.768C100.768 48.8666 100.617 47.8425 98.798 47.8425C97.5839 47.8425 96.8283 48.0453 96.6772 48.929C96.6772 50.1557 99.2513 50.0882 101.221 50.5612C103.04 51.0394 104.254 52.1934 104.254 53.8309C104.254 56.825 101.831 57.979 98.798 57.979" fill="#220D4E"/>
<path d="M40.7817 37.8907L51.2346 31.8348L56.8414 41.4307H42.7514" fill="#220D4E"/>
<path d="M62.7622 57.6179V45.5062Z" fill="#220D4E"/>
<path d="M62.7622 57.6179V45.5062" stroke="black" stroke-width="3.36257"/>
<path d="M35.9301 51.7414C35.9301 53.6439 37.5975 55.2086 39.4109 55.2086C41.3858 55.2086 42.8969 53.6439 42.8969 51.7414C42.8969 49.9064 41.3858 48.2742 39.4109 48.2742C37.5975 48.2742 35.9301 49.9064 35.9301 51.7414V51.7414ZM39.2598 58C35.9301 58 33.0537 55.2086 33.0537 51.7414C33.0537 48.2742 35.9301 45.5504 39.2598 45.5504C40.625 45.5504 41.8391 45.8934 42.8969 46.6368V45.6855H45.9296V57.7245H42.8969V56.976C41.9902 57.6569 40.625 58 39.2598 58" fill="#220D4E"/>
<path d="M79.7176 41.428L65.1743 16.1234L75.6271 10L93.8075 41.428" fill="#220D4E"/>
<path d="M49.8688 51.7414C49.8688 53.6439 51.3851 55.2086 53.3548 55.2086C55.1682 55.2086 56.8409 53.6439 56.8409 51.7414C56.8409 49.9064 55.1682 48.2742 53.3548 48.2742C51.3851 48.2742 49.8688 49.9064 49.8688 51.7414ZM53.2037 58C49.7177 58 46.9924 55.2086 46.9924 51.7414C46.9924 48.2742 49.7177 45.5504 53.2037 45.5504C54.5637 45.5504 55.7779 45.8934 56.8409 46.6368V41.5374H59.8683V57.7245H56.8409V56.976C55.7779 57.6569 54.5637 58 53.2037 58" fill="#220D4E"/>
<path d="M53.0544 27.075L63.6584 21.0919L75.3254 41.4272H64.2629V44.4214H61.2354V41.4272" fill="#220D4E"/>
<path d="M102.289 44.5156C101.529 44.5156 100.773 43.8347 100.773 43.0185C100.773 42.2024 101.529 41.5215 102.289 41.5215C103.196 41.5215 103.806 42.2024 103.806 43.0185C103.806 43.8347 103.196 44.5156 102.289 44.5156ZM102.289 41.7294C101.529 41.7294 101.075 42.3376 101.075 43.0185C101.075 43.6995 101.529 44.3129 102.289 44.3129C103.045 44.3129 103.498 43.6995 103.498 43.0185C103.498 42.3376 103.045 41.7294 102.289 41.7294Z" fill="#220D4E"/>
<path d="M102.602 43.8401L102.3 43.1591H101.998V43.8401H101.768V42.2079H102.451C102.602 42.2079 102.904 42.4158 102.904 42.6861C102.904 42.9564 102.753 43.0915 102.602 43.1591L102.904 43.8401H102.602ZM102.3 42.4158H101.998V42.9564H102.3C102.602 42.9564 102.602 42.8888 102.602 42.6861C102.602 42.5457 102.602 42.4158 102.3 42.4158" fill="#220D4E"/>
<path d="M82.2802 51.7414C82.2802 53.6439 83.7965 55.2086 85.7662 55.2086C87.5848 55.2086 89.247 53.6439 89.247 51.7414C89.247 49.9064 87.5848 48.2742 85.7662 48.2742C83.7965 48.2742 82.2802 49.9064 82.2802 51.7414V51.7414ZM85.6099 58C82.1291 58 79.4038 55.2086 79.4038 51.7414C79.4038 48.2742 82.1291 45.5504 85.6099 45.5504C86.9751 45.5504 88.1892 45.8934 89.247 46.6368V45.6855H92.1286V57.7245H89.247V56.976C88.1892 57.6569 86.9751 58 85.6099 58" fill="#220D4E"/>
<path d="M68.3515 51.7414C68.3515 53.6439 70.0189 55.2086 71.8375 55.2086C73.8072 55.2086 75.3235 53.6439 75.3235 51.7414C75.3235 49.9064 73.8072 48.2742 71.8375 48.2742C70.0189 48.2742 68.3515 49.9064 68.3515 51.7414ZM75.3235 41.5374H78.351V57.7245H75.3235V56.976C74.4116 57.6569 73.1975 58 71.8375 58C68.3515 58 65.4751 55.2086 65.4751 51.7414C65.4751 48.2742 68.3515 45.5504 71.8375 45.5504C73.1975 45.5504 74.4116 45.8934 75.3235 46.6368V41.5374Z" fill="#220D4E"/>
<path d="M98.798 57.979C95.4683 57.979 93.4934 56.2792 93.3423 53.8309H96.5261C96.5261 54.647 96.9794 55.7334 98.9491 55.801C100.314 55.801 101.07 54.9848 101.07 54.3715C100.919 53.4202 99.7047 53.3526 98.4958 53.1447C97.1305 52.9472 96.0727 52.6717 95.312 52.3338C94.2542 51.788 93.6445 50.6288 93.6445 49.4072C93.6445 47.2292 95.4683 45.5294 98.6469 45.5294C101.68 45.5294 103.649 47.094 103.795 49.4748H100.768C100.768 48.8666 100.617 47.8425 98.798 47.8425C97.5839 47.8425 96.8283 48.0453 96.6772 48.929C96.6772 50.1557 99.2513 50.0882 101.221 50.5612C103.04 51.0394 104.254 52.1934 104.254 53.8309C104.254 56.825 101.831 57.979 98.798 57.979" fill="black"/>
<path d="M40.7817 37.8907L51.2346 31.8348L56.8414 41.4307H42.7514" fill="black"/>
<path d="M62.7622 57.6179V45.5062Z" fill="black"/>
<path d="M62.7622 57.6179V45.5062" stroke="black" stroke-width="3.36257"/>
<path d="M35.9301 51.7414C35.9301 53.6439 37.5975 55.2086 39.4109 55.2086C41.3858 55.2086 42.8969 53.6439 42.8969 51.7414C42.8969 49.9064 41.3858 48.2742 39.4109 48.2742C37.5975 48.2742 35.9301 49.9064 35.9301 51.7414V51.7414ZM39.2598 58C35.9301 58 33.0537 55.2086 33.0537 51.7414C33.0537 48.2742 35.9301 45.5504 39.2598 45.5504C40.625 45.5504 41.8391 45.8934 42.8969 46.6368V45.6855H45.9296V57.7245H42.8969V56.976C41.9902 57.6569 40.625 58 39.2598 58" fill="black"/>
<path d="M79.7176 41.428L65.1743 16.1234L75.6271 10L93.8075 41.428" fill="black"/>
<path d="M49.8688 51.7414C49.8688 53.6439 51.3851 55.2086 53.3548 55.2086C55.1682 55.2086 56.8409 53.6439 56.8409 51.7414C56.8409 49.9064 55.1682 48.2742 53.3548 48.2742C51.3851 48.2742 49.8688 49.9064 49.8688 51.7414ZM53.2037 58C49.7177 58 46.9924 55.2086 46.9924 51.7414C46.9924 48.2742 49.7177 45.5504 53.2037 45.5504C54.5637 45.5504 55.7779 45.8934 56.8409 46.6368V41.5374H59.8683V57.7245H56.8409V56.976C55.7779 57.6569 54.5637 58 53.2037 58" fill="black"/>
<path d="M53.0544 27.075L63.6584 21.0919L75.3254 41.4272H64.2629V44.4214H61.2354V41.4272" fill="black"/>
<path d="M102.289 44.5156C101.529 44.5156 100.773 43.8347 100.773 43.0185C100.773 42.2024 101.529 41.5215 102.289 41.5215C103.196 41.5215 103.806 42.2024 103.806 43.0185C103.806 43.8347 103.196 44.5156 102.289 44.5156ZM102.289 41.7294C101.529 41.7294 101.075 42.3376 101.075 43.0185C101.075 43.6995 101.529 44.3129 102.289 44.3129C103.045 44.3129 103.498 43.6995 103.498 43.0185C103.498 42.3376 103.045 41.7294 102.289 41.7294Z" fill="black"/>
<path d="M102.602 43.8401L102.3 43.1591H101.998V43.8401H101.768V42.2079H102.451C102.602 42.2079 102.904 42.4158 102.904 42.6861C102.904 42.9564 102.753 43.0915 102.602 43.1591L102.904 43.8401H102.602ZM102.3 42.4158H101.998V42.9564H102.3C102.602 42.9564 102.602 42.8888 102.602 42.6861C102.602 42.5457 102.602 42.4158 102.3 42.4158" fill="black"/>
<path d="M82.2802 51.7414C82.2802 53.6439 83.7965 55.2086 85.7662 55.2086C87.5848 55.2086 89.247 53.6439 89.247 51.7414C89.247 49.9064 87.5848 48.2742 85.7662 48.2742C83.7965 48.2742 82.2802 49.9064 82.2802 51.7414V51.7414ZM85.6099 58C82.1291 58 79.4038 55.2086 79.4038 51.7414C79.4038 48.2742 82.1291 45.5504 85.6099 45.5504C86.9751 45.5504 88.1892 45.8934 89.247 46.6368V45.6855H92.1286V57.7245H89.247V56.976C88.1892 57.6569 86.9751 58 85.6099 58" fill="black"/>
<path d="M68.3515 51.7414C68.3515 53.6439 70.0189 55.2086 71.8375 55.2086C73.8072 55.2086 75.3235 53.6439 75.3235 51.7414C75.3235 49.9064 73.8072 48.2742 71.8375 48.2742C70.0189 48.2742 68.3515 49.9064 68.3515 51.7414ZM75.3235 41.5374H78.351V57.7245H75.3235V56.976C74.4116 57.6569 73.1975 58 71.8375 58C68.3515 58 65.4751 55.2086 65.4751 51.7414C65.4751 48.2742 68.3515 45.5504 71.8375 45.5504C73.1975 45.5504 74.4116 45.8934 75.3235 46.6368V41.5374Z" fill="black"/>
</svg>
