<svg width="151" height="68" viewBox="0 0 151 68" fill="none" xmlns="http://www.w3.org/2000/svg">
<path fill-rule="evenodd" clip-rule="evenodd" d="M109.126 19.8651C109.129 19.8638 109.132 19.8625 109.134 19.8613C109.36 19.7525 109.619 19.829 109.75 20.0583C109.849 20.2304 109.941 20.4059 110.033 20.5813C110.071 20.6519 110.108 20.7225 110.145 20.7929L121.191 41.4892C121.266 41.6294 121.341 41.7697 121.416 41.91C121.78 42.5933 122.145 43.2766 122.507 43.9614C122.549 44.0407 122.583 44.1332 122.588 44.2215C122.597 44.3862 122.488 44.5159 122.332 44.5505C122.291 44.5726 122.244 44.5873 122.192 44.5927C122.146 44.5975 122.1 44.597 122.054 44.5966C122.04 44.5965 122.027 44.5963 122.014 44.5963C121.546 44.5965 121.077 44.5965 120.609 44.5965L120.186 44.5965C120.009 44.5965 119.832 44.5958 119.654 44.5952L119.652 44.5952C119.215 44.5936 118.777 44.5921 118.339 44.6C118.059 44.6051 117.888 44.4924 117.758 44.2452C115.591 40.1106 113.421 35.9778 111.25 31.845L111.242 31.8301L109.939 29.3483C109.916 29.3051 109.893 29.262 109.87 29.219C109.818 29.1218 109.766 29.0247 109.718 28.9258C109.623 28.7308 109.478 28.6055 109.255 28.6087C109.212 28.6093 109.172 28.6149 109.135 28.6249C109.076 28.656 109.022 28.7008 108.977 28.7592C108.942 28.8057 108.914 28.8587 108.887 28.9115C108.881 28.9238 108.875 28.936 108.868 28.9482C106.508 33.4463 104.147 37.9445 101.787 42.4427L100.93 44.0743C100.919 44.0954 100.908 44.1166 100.897 44.1378C100.869 44.193 100.84 44.2482 100.81 44.3027C100.736 44.4377 100.631 44.5203 100.494 44.5493C100.409 44.587 100.309 44.6032 100.194 44.6001C99.8542 44.5909 99.5138 44.5928 99.1734 44.5948C99.0305 44.5956 98.8875 44.5965 98.7446 44.5965L98.0741 44.5965C97.5495 44.5965 97.025 44.5965 96.5004 44.5964L96.486 44.5965L96.4584 44.5967C96.4128 44.5971 96.3671 44.5976 96.3217 44.5934C96.07 44.5702 95.9322 44.338 96.0308 44.1029C96.0485 44.0607 96.0706 44.0203 96.0925 43.98C96.0991 43.9679 96.1057 43.9558 96.1122 43.9437C98.5906 39.2996 101.069 34.6555 103.548 30.0115C105.291 26.7461 107.034 23.4808 108.777 20.2156C108.785 20.202 108.792 20.1882 108.799 20.1744C108.822 20.1292 108.846 20.0839 108.875 20.043C108.941 19.9517 109.03 19.8924 109.126 19.8651ZM36.5214 27.0113V27.0091C36.1643 27.0091 35.8071 27.0099 35.45 27.0107H35.45H35.45H35.45C34.5432 27.0128 33.6364 27.0149 32.7298 27.0035C32.278 26.9978 32.0814 27.2095 32.0847 27.646C32.0941 28.904 32.0927 30.162 32.0912 31.42V31.4201V31.4201V31.4201V31.4201C32.0907 31.9043 32.0901 32.3885 32.0902 32.8726L32.0901 32.9056V32.9056C32.0899 32.9609 32.0896 33.0164 32.0953 33.0711C32.1194 33.3026 32.2888 33.4728 32.5203 33.4998C32.5592 33.5043 32.5987 33.5042 32.638 33.504H32.638L32.6591 33.504C33.2761 33.504 33.8932 33.5042 34.5102 33.5044H34.5103H34.5103H34.5103C36.2489 33.5049 37.9875 33.5055 39.7262 33.5028C40.4107 33.5017 41.0857 33.4191 41.7336 33.1837C42.5342 32.8929 43.1536 32.3911 43.4907 31.5926C43.8494 30.743 43.9062 29.8575 43.7055 28.9635C43.5668 28.3462 43.2009 27.876 42.6455 27.5662C42.4788 27.4733 42.3029 27.3926 42.1235 27.3278C41.4684 27.0916 40.7847 27.0186 40.0946 27.0137C39.2551 27.0077 38.4155 27.009 37.5759 27.0103C37.2244 27.0108 36.8729 27.0113 36.5214 27.0113ZM36.5804 44.6057C36.9075 44.6057 37.2346 44.6055 37.5617 44.6054C38.3464 44.6051 39.131 44.6047 39.9156 44.6063C40.4856 44.6075 41.0525 44.5725 41.6148 44.4782C42.1782 44.3838 42.7243 44.2323 43.2335 43.9653C44.0798 43.5217 44.6245 42.8413 44.8333 41.9034C45.0152 41.0862 44.9855 40.2703 44.77 39.4649C44.5443 38.6218 44.0247 38.0123 43.2321 37.6494C42.969 37.5289 42.6919 37.4311 42.4124 37.3565C41.5821 37.1349 40.7301 37.0796 39.8755 37.0779C38.1726 37.0747 36.4697 37.0753 34.7669 37.0759C34.0874 37.0762 33.4079 37.0764 32.7284 37.0764C32.7146 37.0764 32.7007 37.0763 32.6869 37.0762C32.6544 37.0759 32.6219 37.0757 32.5895 37.0768C32.2923 37.0871 32.1086 37.2602 32.0839 37.5543C32.0801 37.5991 32.0803 37.6443 32.0804 37.6893L32.0804 37.7132V37.7132V37.7132V37.7133V37.7133C32.0803 39.8067 32.0801 41.9002 32.081 43.9935C32.081 44.0727 32.0836 44.1534 32.0988 44.2306C32.1392 44.4355 32.3035 44.5815 32.5107 44.6018C32.5615 44.6068 32.6129 44.6063 32.6642 44.6059H32.6643C32.6792 44.6057 32.6942 44.6056 32.7091 44.6056C33.6769 44.6057 34.6447 44.6057 35.6125 44.6057L36.5804 44.6057ZM45.2283 34.8839L45.2283 34.8839C45.2557 34.8963 45.2771 34.906 45.299 34.9146C46.9861 35.5727 48.0921 36.7829 48.6685 38.4878C48.9825 39.4164 49.0621 40.3759 49.0053 41.3509C48.9643 42.0546 48.8631 42.7472 48.6554 43.4218C48.1155 45.1752 46.9979 46.4249 45.3497 47.2086C44.5556 47.5861 43.7172 47.8203 42.8535 47.9711C41.938 48.131 41.0148 48.1853 40.0868 48.185C37.3907 48.1841 34.6946 48.1842 31.9986 48.1843L28.6879 48.1843C28.6673 48.1843 28.6467 48.1845 28.626 48.1847C28.5672 48.1853 28.5083 48.1858 28.4497 48.1819C28.1979 48.1652 28.0371 48.0071 28.0123 47.7531C28.0071 47.6999 28.0072 47.646 28.0073 47.5925L28.0073 47.5744C28.0071 40.7148 28.0071 33.8553 28.0071 26.9958V26.9958L28.0071 24.056L28.0072 24.0497C28.0073 24.0452 28.0074 24.0406 28.007 24.0361C27.9758 23.636 28.1994 23.4333 28.6022 23.4341C31.2867 23.4397 33.9713 23.4395 36.6558 23.4394H36.6573C38.0102 23.4393 39.3631 23.4393 40.716 23.4399C41.9965 23.4406 43.2303 23.6745 44.3849 24.2437C45.9759 25.0281 47.092 26.2421 47.6088 27.9564C48.0258 29.3398 48.0075 30.729 47.5207 32.096C47.1081 33.2552 46.3817 34.1635 45.2997 34.771C45.2751 34.7848 45.2524 34.8018 45.2243 34.8229L45.2243 34.8229L45.2242 34.8229L45.2242 34.823L45.2241 34.823C45.2093 34.8341 45.1931 34.8462 45.1743 34.8596C45.195 34.8688 45.2126 34.8768 45.2283 34.8839ZM62.1013 27.0091V27.0114C62.4534 27.0114 62.8054 27.0108 63.1574 27.0103C63.9965 27.009 64.8355 27.0076 65.6746 27.0138C66.3646 27.0189 67.0471 27.0951 67.7043 27.3256C67.9806 27.4224 68.24 27.5517 68.4753 27.7271C68.9506 28.0811 69.2278 28.5617 69.327 29.1369C69.4574 29.8928 69.4121 30.6429 69.1599 31.3712C68.8482 32.271 68.2131 32.8511 67.3332 33.177C66.8905 33.341 66.4311 33.4377 65.9604 33.4659C65.5778 33.4888 65.1941 33.5021 64.8108 33.5027C63.1356 33.5053 61.4605 33.5049 59.7853 33.5045L58.3194 33.5042C58.3024 33.5042 58.2854 33.5044 58.2684 33.5046H58.2684C58.2125 33.5052 58.1564 33.5058 58.1012 33.4997C57.8608 33.473 57.6915 33.294 57.675 33.0522C57.6718 33.0072 57.6722 32.9619 57.6726 32.9167V32.9166C57.6726 32.9083 57.6727 32.9001 57.6727 32.8918C57.6728 32.8857 57.6728 32.8795 57.6728 32.8734C57.6727 31.1312 57.6728 29.389 57.6728 27.6467C57.6728 27.6308 57.6727 27.6149 57.6726 27.599C57.6722 27.5552 57.6718 27.5115 57.6743 27.4679C57.6892 27.2067 57.8701 27.0256 58.131 27.0105C58.1744 27.008 58.2179 27.0084 58.2614 27.0088C58.2775 27.0089 58.2936 27.0091 58.3097 27.0091L62.1013 27.0091ZM63.081 44.6053C62.7756 44.6055 62.4702 44.6057 62.1647 44.6057C60.8743 44.6057 59.5839 44.6057 58.2935 44.6056C58.279 44.6056 58.2644 44.6057 58.2498 44.6058H58.2497C58.1981 44.6062 58.1464 44.6066 58.0952 44.602C57.8796 44.5822 57.7128 44.43 57.6764 44.2151C57.6636 44.1395 57.6636 44.0611 57.6636 43.9838V43.9837V43.9777C57.663 42.2112 57.6631 40.4447 57.6631 38.6783L57.6631 37.7174C57.6631 37.713 57.6632 37.7086 57.6633 37.7041L57.6635 37.6939C57.6635 37.6885 57.6635 37.6831 57.6631 37.6777C57.6311 37.2282 57.9349 37.0706 58.2649 37.0718C59.6054 37.0765 60.9459 37.0763 62.2865 37.0761H62.2873C63.3552 37.076 64.4231 37.0758 65.491 37.0782C66.3324 37.08 67.172 37.1341 67.988 37.3567C68.3048 37.4432 68.6185 37.5591 68.9139 37.7024C69.6232 38.0465 70.0958 38.6107 70.3199 39.3661C70.5753 40.2268 70.6074 41.1027 70.3966 41.9767C70.1637 42.942 69.5638 43.6135 68.6757 44.0352C68.1207 44.2988 67.53 44.4367 66.9247 44.5196C66.386 44.5933 65.8444 44.608 65.3014 44.6065C64.5613 44.6045 63.8212 44.6049 63.081 44.6053ZM70.8012 34.8805C70.7877 34.8745 70.7723 34.8676 70.7537 34.8595C70.7731 34.8459 70.7897 34.8335 70.8048 34.8224C70.833 34.8015 70.8557 34.7847 70.8801 34.771C71.854 34.2284 72.5382 33.4263 72.9797 32.4107C73.3033 31.6664 73.4513 30.8842 73.4693 30.0736C73.4898 29.1546 73.3535 28.264 72.9999 27.4135C72.3717 25.9023 71.2759 24.8454 69.8047 24.1672C68.6933 23.6548 67.5155 23.4403 66.2969 23.4399C63.3715 23.4388 60.4462 23.439 57.5209 23.4392L54.1832 23.4394C54.1701 23.4394 54.1571 23.4393 54.144 23.4392C54.1041 23.4388 54.0641 23.4385 54.0243 23.4412C53.7882 23.4571 53.6198 23.6195 53.5949 23.8571C53.5896 23.9073 53.5898 23.9582 53.59 24.0089V24.0089L53.59 24.0358C53.5898 31.8885 53.5898 39.7412 53.5901 47.5939L53.5901 47.6051C53.5901 47.6676 53.5901 47.7305 53.5984 47.7922C53.6268 48.0026 53.7806 48.1548 53.9906 48.1777C54.0606 48.1852 54.1315 48.1848 54.2022 48.1845H54.2022L54.2484 48.1843C55.6286 48.1844 57.0087 48.1843 58.3889 48.1843H58.4123C60.8438 48.1843 63.2753 48.1842 65.7068 48.1848C66.6216 48.1851 67.5315 48.1284 68.4339 47.971C69.3306 47.8147 70.1994 47.5681 71.0191 47.1652C72.6238 46.3765 73.7064 45.137 74.2357 43.4219C74.4639 42.6826 74.566 41.9228 74.5952 41.1523C74.6281 40.2858 74.5507 39.4303 74.2857 38.601C73.7214 36.8352 72.5991 35.5832 70.8607 34.9059C70.8427 34.8989 70.825 34.891 70.8012 34.8805ZM77.1774 23.4393C77.3555 23.4393 77.5336 23.4397 77.7117 23.4402C78.1559 23.4414 78.6001 23.4426 79.0442 23.4366C79.301 23.4331 79.4625 23.5401 79.5802 23.7647C81.4325 27.2968 83.287 30.8278 85.1414 34.3587L86.3296 36.621L86.7376 37.3979L86.7445 37.4111C87.034 37.9626 87.3236 38.5141 87.6136 39.0655L87.6231 39.0838C87.6505 39.1364 87.6782 39.1896 87.7136 39.2367C87.9041 39.4905 88.2734 39.493 88.466 39.241C88.5015 39.1946 88.5287 39.1415 88.5557 39.0887L88.5562 39.0878C88.5623 39.0758 88.5685 39.0639 88.5747 39.052C90.9062 34.6096 93.2375 30.167 95.5688 25.7244L96.5126 23.9259L96.5457 23.8625L96.5458 23.8622C96.5745 23.8071 96.6032 23.752 96.6331 23.6975C96.7275 23.5258 96.8711 23.439 97.0691 23.4391C97.344 23.4393 97.619 23.4396 97.894 23.4399C98.9232 23.4412 99.9524 23.4425 100.981 23.4352C101.235 23.4334 101.463 23.6871 101.296 23.9961C101.005 24.5335 100.718 25.0728 100.43 25.6121L100.422 25.6289C100.32 25.8204 100.218 26.0118 100.115 26.2032L90.5467 44.1306L90.1351 44.9018C89.6082 45.8889 89.0813 46.876 88.5552 47.8636C88.4951 47.9765 88.4295 48.0807 88.3087 48.139C88.0829 48.2478 87.8239 48.1713 87.6928 47.9419C87.5945 47.7699 87.5021 47.5945 87.4096 47.419C87.3866 47.3753 87.3636 47.3317 87.3405 47.288C87.3262 47.2611 87.3119 47.2342 87.2976 47.2073L76.2522 26.5111L76.0267 26.0888L76.0261 26.0877C75.6618 25.4053 75.2974 24.7228 74.9359 24.0389C74.894 23.9595 74.8605 23.867 74.8554 23.7787C74.8449 23.6001 74.9747 23.4626 75.1519 23.443C75.1972 23.438 75.2431 23.4385 75.289 23.439C75.3028 23.4392 75.3166 23.4393 75.3304 23.4393C75.834 23.4392 76.3377 23.4392 76.8413 23.4392L77.1774 23.4393Z" fill="#220D4E"/>
<path fill-rule="evenodd" clip-rule="evenodd" d="M109.126 19.8651C109.129 19.8638 109.132 19.8625 109.134 19.8613C109.36 19.7525 109.619 19.829 109.75 20.0583C109.849 20.2304 109.941 20.4059 110.033 20.5813C110.071 20.6519 110.108 20.7225 110.145 20.7929L121.191 41.4892C121.266 41.6294 121.341 41.7697 121.416 41.91C121.78 42.5933 122.145 43.2766 122.507 43.9614C122.549 44.0407 122.583 44.1332 122.588 44.2215C122.597 44.3862 122.488 44.5159 122.332 44.5505C122.291 44.5726 122.244 44.5873 122.192 44.5927C122.146 44.5975 122.1 44.597 122.054 44.5966C122.04 44.5965 122.027 44.5963 122.014 44.5963C121.546 44.5965 121.077 44.5965 120.609 44.5965L120.186 44.5965C120.009 44.5965 119.832 44.5958 119.654 44.5952L119.652 44.5952C119.215 44.5936 118.777 44.5921 118.339 44.6C118.059 44.6051 117.888 44.4924 117.758 44.2452C115.591 40.1106 113.421 35.9778 111.25 31.845L111.242 31.8301L109.939 29.3483C109.916 29.3051 109.893 29.262 109.87 29.219C109.818 29.1218 109.766 29.0247 109.718 28.9258C109.623 28.7308 109.478 28.6055 109.255 28.6087C109.212 28.6093 109.172 28.6149 109.135 28.6249C109.076 28.656 109.022 28.7008 108.977 28.7592C108.942 28.8057 108.914 28.8587 108.887 28.9115C108.881 28.9238 108.875 28.936 108.868 28.9482C106.508 33.4463 104.147 37.9445 101.787 42.4427L100.93 44.0743C100.919 44.0954 100.908 44.1166 100.897 44.1378C100.869 44.193 100.84 44.2482 100.81 44.3027C100.736 44.4377 100.631 44.5203 100.494 44.5493C100.409 44.587 100.309 44.6032 100.194 44.6001C99.8542 44.5909 99.5138 44.5928 99.1734 44.5948C99.0305 44.5956 98.8875 44.5965 98.7446 44.5965L98.0741 44.5965C97.5495 44.5965 97.025 44.5965 96.5004 44.5964L96.486 44.5965L96.4584 44.5967C96.4128 44.5971 96.3671 44.5976 96.3217 44.5934C96.07 44.5702 95.9322 44.338 96.0308 44.1029C96.0485 44.0607 96.0706 44.0203 96.0925 43.98C96.0991 43.9679 96.1057 43.9558 96.1122 43.9437C98.5906 39.2996 101.069 34.6555 103.548 30.0115C105.291 26.7461 107.034 23.4808 108.777 20.2156C108.785 20.202 108.792 20.1882 108.799 20.1744C108.822 20.1292 108.846 20.0839 108.875 20.043C108.941 19.9517 109.03 19.8924 109.126 19.8651ZM36.5214 27.0113V27.0091C36.1643 27.0091 35.8071 27.0099 35.45 27.0107H35.45H35.45H35.45C34.5432 27.0128 33.6364 27.0149 32.7298 27.0035C32.278 26.9978 32.0814 27.2095 32.0847 27.646C32.0941 28.904 32.0927 30.162 32.0912 31.42V31.4201V31.4201V31.4201V31.4201C32.0907 31.9043 32.0901 32.3885 32.0902 32.8726L32.0901 32.9056V32.9056C32.0899 32.9609 32.0896 33.0164 32.0953 33.0711C32.1194 33.3026 32.2888 33.4728 32.5203 33.4998C32.5592 33.5043 32.5987 33.5042 32.638 33.504H32.638L32.6591 33.504C33.2761 33.504 33.8932 33.5042 34.5102 33.5044H34.5103H34.5103H34.5103C36.2489 33.5049 37.9875 33.5055 39.7262 33.5028C40.4107 33.5017 41.0857 33.4191 41.7336 33.1837C42.5342 32.8929 43.1536 32.3911 43.4907 31.5926C43.8494 30.743 43.9062 29.8575 43.7055 28.9635C43.5668 28.3462 43.2009 27.876 42.6455 27.5662C42.4788 27.4733 42.3029 27.3926 42.1235 27.3278C41.4684 27.0916 40.7847 27.0186 40.0946 27.0137C39.2551 27.0077 38.4155 27.009 37.5759 27.0103C37.2244 27.0108 36.8729 27.0113 36.5214 27.0113ZM36.5804 44.6057C36.9075 44.6057 37.2346 44.6055 37.5617 44.6054C38.3464 44.6051 39.131 44.6047 39.9156 44.6063C40.4856 44.6075 41.0525 44.5725 41.6148 44.4782C42.1782 44.3838 42.7243 44.2323 43.2335 43.9653C44.0798 43.5217 44.6245 42.8413 44.8333 41.9034C45.0152 41.0862 44.9855 40.2703 44.77 39.4649C44.5443 38.6218 44.0247 38.0123 43.2321 37.6494C42.969 37.5289 42.6919 37.4311 42.4124 37.3565C41.5821 37.1349 40.7301 37.0796 39.8755 37.0779C38.1726 37.0747 36.4697 37.0753 34.7669 37.0759C34.0874 37.0762 33.4079 37.0764 32.7284 37.0764C32.7146 37.0764 32.7007 37.0763 32.6869 37.0762C32.6544 37.0759 32.6219 37.0757 32.5895 37.0768C32.2923 37.0871 32.1086 37.2602 32.0839 37.5543C32.0801 37.5991 32.0803 37.6443 32.0804 37.6893L32.0804 37.7132V37.7132V37.7132V37.7133V37.7133C32.0803 39.8067 32.0801 41.9002 32.081 43.9935C32.081 44.0727 32.0836 44.1534 32.0988 44.2306C32.1392 44.4355 32.3035 44.5815 32.5107 44.6018C32.5615 44.6068 32.6129 44.6063 32.6642 44.6059H32.6643C32.6792 44.6057 32.6942 44.6056 32.7091 44.6056C33.6769 44.6057 34.6447 44.6057 35.6125 44.6057L36.5804 44.6057ZM45.2283 34.8839L45.2283 34.8839C45.2557 34.8963 45.2771 34.906 45.299 34.9146C46.9861 35.5727 48.0921 36.7829 48.6685 38.4878C48.9825 39.4164 49.0621 40.3759 49.0053 41.3509C48.9643 42.0546 48.8631 42.7472 48.6554 43.4218C48.1155 45.1752 46.9979 46.4249 45.3497 47.2086C44.5556 47.5861 43.7172 47.8203 42.8535 47.9711C41.938 48.131 41.0148 48.1853 40.0868 48.185C37.3907 48.1841 34.6946 48.1842 31.9986 48.1843L28.6879 48.1843C28.6673 48.1843 28.6467 48.1845 28.626 48.1847C28.5672 48.1853 28.5083 48.1858 28.4497 48.1819C28.1979 48.1652 28.0371 48.0071 28.0123 47.7531C28.0071 47.6999 28.0072 47.646 28.0073 47.5925L28.0073 47.5744C28.0071 40.7148 28.0071 33.8553 28.0071 26.9958V26.9958L28.0071 24.056L28.0072 24.0497C28.0073 24.0452 28.0074 24.0406 28.007 24.0361C27.9758 23.636 28.1994 23.4333 28.6022 23.4341C31.2867 23.4397 33.9713 23.4395 36.6558 23.4394H36.6573C38.0102 23.4393 39.3631 23.4393 40.716 23.4399C41.9965 23.4406 43.2303 23.6745 44.3849 24.2437C45.9759 25.0281 47.092 26.2421 47.6088 27.9564C48.0258 29.3398 48.0075 30.729 47.5207 32.096C47.1081 33.2552 46.3817 34.1635 45.2997 34.771C45.2751 34.7848 45.2524 34.8018 45.2243 34.8229L45.2243 34.8229L45.2242 34.8229L45.2242 34.823L45.2241 34.823C45.2093 34.8341 45.1931 34.8462 45.1743 34.8596C45.195 34.8688 45.2126 34.8768 45.2283 34.8839ZM62.1013 27.0091V27.0114C62.4534 27.0114 62.8054 27.0108 63.1574 27.0103C63.9965 27.009 64.8355 27.0076 65.6746 27.0138C66.3646 27.0189 67.0471 27.0951 67.7043 27.3256C67.9806 27.4224 68.24 27.5517 68.4753 27.7271C68.9506 28.0811 69.2278 28.5617 69.327 29.1369C69.4574 29.8928 69.4121 30.6429 69.1599 31.3712C68.8482 32.271 68.2131 32.8511 67.3332 33.177C66.8905 33.341 66.4311 33.4377 65.9604 33.4659C65.5778 33.4888 65.1941 33.5021 64.8108 33.5027C63.1356 33.5053 61.4605 33.5049 59.7853 33.5045L58.3194 33.5042C58.3024 33.5042 58.2854 33.5044 58.2684 33.5046H58.2684C58.2125 33.5052 58.1564 33.5058 58.1012 33.4997C57.8608 33.473 57.6915 33.294 57.675 33.0522C57.6718 33.0072 57.6722 32.9619 57.6726 32.9167V32.9166C57.6726 32.9083 57.6727 32.9001 57.6727 32.8918C57.6728 32.8857 57.6728 32.8795 57.6728 32.8734C57.6727 31.1312 57.6728 29.389 57.6728 27.6467C57.6728 27.6308 57.6727 27.6149 57.6726 27.599C57.6722 27.5552 57.6718 27.5115 57.6743 27.4679C57.6892 27.2067 57.8701 27.0256 58.131 27.0105C58.1744 27.008 58.2179 27.0084 58.2614 27.0088C58.2775 27.0089 58.2936 27.0091 58.3097 27.0091L62.1013 27.0091ZM63.081 44.6053C62.7756 44.6055 62.4702 44.6057 62.1647 44.6057C60.8743 44.6057 59.5839 44.6057 58.2935 44.6056C58.279 44.6056 58.2644 44.6057 58.2498 44.6058H58.2497C58.1981 44.6062 58.1464 44.6066 58.0952 44.602C57.8796 44.5822 57.7128 44.43 57.6764 44.2151C57.6636 44.1395 57.6636 44.0611 57.6636 43.9838V43.9837V43.9777C57.663 42.2112 57.6631 40.4447 57.6631 38.6783L57.6631 37.7174C57.6631 37.713 57.6632 37.7086 57.6633 37.7041L57.6635 37.6939C57.6635 37.6885 57.6635 37.6831 57.6631 37.6777C57.6311 37.2282 57.9349 37.0706 58.2649 37.0718C59.6054 37.0765 60.9459 37.0763 62.2865 37.0761H62.2873C63.3552 37.076 64.4231 37.0758 65.491 37.0782C66.3324 37.08 67.172 37.1341 67.988 37.3567C68.3048 37.4432 68.6185 37.5591 68.9139 37.7024C69.6232 38.0465 70.0958 38.6107 70.3199 39.3661C70.5753 40.2268 70.6074 41.1027 70.3966 41.9767C70.1637 42.942 69.5638 43.6135 68.6757 44.0352C68.1207 44.2988 67.53 44.4367 66.9247 44.5196C66.386 44.5933 65.8444 44.608 65.3014 44.6065C64.5613 44.6045 63.8212 44.6049 63.081 44.6053ZM70.8012 34.8805C70.7877 34.8745 70.7723 34.8676 70.7537 34.8595C70.7731 34.8459 70.7897 34.8335 70.8048 34.8224C70.833 34.8015 70.8557 34.7847 70.8801 34.771C71.854 34.2284 72.5382 33.4263 72.9797 32.4107C73.3033 31.6664 73.4513 30.8842 73.4693 30.0736C73.4898 29.1546 73.3535 28.264 72.9999 27.4135C72.3717 25.9023 71.2759 24.8454 69.8047 24.1672C68.6933 23.6548 67.5155 23.4403 66.2969 23.4399C63.3715 23.4388 60.4462 23.439 57.5209 23.4392L54.1832 23.4394C54.1701 23.4394 54.1571 23.4393 54.144 23.4392C54.1041 23.4388 54.0641 23.4385 54.0243 23.4412C53.7882 23.4571 53.6198 23.6195 53.5949 23.8571C53.5896 23.9073 53.5898 23.9582 53.59 24.0089V24.0089L53.59 24.0358C53.5898 31.8885 53.5898 39.7412 53.5901 47.5939L53.5901 47.6051C53.5901 47.6676 53.5901 47.7305 53.5984 47.7922C53.6268 48.0026 53.7806 48.1548 53.9906 48.1777C54.0606 48.1852 54.1315 48.1848 54.2022 48.1845H54.2022L54.2484 48.1843C55.6286 48.1844 57.0087 48.1843 58.3889 48.1843H58.4123C60.8438 48.1843 63.2753 48.1842 65.7068 48.1848C66.6216 48.1851 67.5315 48.1284 68.4339 47.971C69.3306 47.8147 70.1994 47.5681 71.0191 47.1652C72.6238 46.3765 73.7064 45.137 74.2357 43.4219C74.4639 42.6826 74.566 41.9228 74.5952 41.1523C74.6281 40.2858 74.5507 39.4303 74.2857 38.601C73.7214 36.8352 72.5991 35.5832 70.8607 34.9059C70.8427 34.8989 70.825 34.891 70.8012 34.8805ZM77.1774 23.4393C77.3555 23.4393 77.5336 23.4397 77.7117 23.4402C78.1559 23.4414 78.6001 23.4426 79.0442 23.4366C79.301 23.4331 79.4625 23.5401 79.5802 23.7647C81.4325 27.2968 83.287 30.8278 85.1414 34.3587L86.3296 36.621L86.7376 37.3979L86.7445 37.4111C87.034 37.9626 87.3236 38.5141 87.6136 39.0655L87.6231 39.0838C87.6505 39.1364 87.6782 39.1896 87.7136 39.2367C87.9041 39.4905 88.2734 39.493 88.466 39.241C88.5015 39.1946 88.5287 39.1415 88.5557 39.0887L88.5562 39.0878C88.5623 39.0758 88.5685 39.0639 88.5747 39.052C90.9062 34.6096 93.2375 30.167 95.5688 25.7244L96.5126 23.9259L96.5457 23.8625L96.5458 23.8622C96.5745 23.8071 96.6032 23.752 96.6331 23.6975C96.7275 23.5258 96.8711 23.439 97.0691 23.4391C97.344 23.4393 97.619 23.4396 97.894 23.4399C98.9232 23.4412 99.9524 23.4425 100.981 23.4352C101.235 23.4334 101.463 23.6871 101.296 23.9961C101.005 24.5335 100.718 25.0728 100.43 25.6121L100.422 25.6289C100.32 25.8204 100.218 26.0118 100.115 26.2032L90.5467 44.1306L90.1351 44.9018C89.6082 45.8889 89.0813 46.876 88.5552 47.8636C88.4951 47.9765 88.4295 48.0807 88.3087 48.139C88.0829 48.2478 87.8239 48.1713 87.6928 47.9419C87.5945 47.7699 87.5021 47.5945 87.4096 47.419C87.3866 47.3753 87.3636 47.3317 87.3405 47.288C87.3262 47.2611 87.3119 47.2342 87.2976 47.2073L76.2522 26.5111L76.0267 26.0888L76.0261 26.0877C75.6618 25.4053 75.2974 24.7228 74.9359 24.0389C74.894 23.9595 74.8605 23.867 74.8554 23.7787C74.8449 23.6001 74.9747 23.4626 75.1519 23.443C75.1972 23.438 75.2431 23.4385 75.289 23.439C75.3028 23.4392 75.3166 23.4393 75.3304 23.4393C75.834 23.4392 76.3377 23.4392 76.8413 23.4392L77.1774 23.4393Z" fill="#004679"/>
</svg>
