<svg width="137" height="68" viewBox="0 0 137 68" fill="none" xmlns="http://www.w3.org/2000/svg">
<path d="M108.714 29.9197C106.68 27.9021 104.011 26.7907 101.198 26.7907C99.1401 26.7907 97.0728 27.5515 95.9364 28.3025C93.5839 29.8578 91.6504 31.5461 88.1696 36.0099V39.2186C91.1229 35.3998 93.9175 32.3905 96.0391 30.7355C97.4335 29.6241 99.412 28.9355 101.198 28.9355C105.807 28.9355 109.703 32.8007 109.703 37.3779V39.3091C109.703 41.5708 108.808 43.6955 107.178 45.295C105.564 46.8796 103.438 47.752 101.198 47.752C97.4098 47.752 94.0756 45.1713 93.1695 41.647L91.647 43.479C92.7574 47.1717 96.768 49.8963 101.198 49.8963C104.011 49.8963 106.68 48.7832 108.714 46.7696C110.745 44.7519 111.863 42.103 111.863 39.3091V37.3779C111.863 34.5852 110.745 31.9351 108.714 29.9197ZM62.4374 28.9355C63.9051 28.9355 65.1742 29.2483 66.3199 29.8922C66.8583 29.2243 67.402 28.6817 67.8072 28.2802C66.5952 27.3613 64.5428 26.7907 62.4374 26.7907C59.4368 26.7907 56.712 27.8648 54.7665 29.8166C52.8353 31.7506 51.7687 34.4357 51.7687 37.3779V49.8963H53.929V37.3779C53.929 32.4071 57.4277 28.9355 62.4374 28.9355V28.9355ZM82.9666 49.8963V37.3779C82.9666 33.5294 79.9291 30.5138 76.0512 30.5138C74.2453 30.5138 72.5214 31.2396 71.1928 32.5566C69.867 33.8725 69.1364 35.5866 69.1364 37.3779V39.3091C69.1364 43.0287 72.3043 46.1738 76.0512 46.1738C77.0785 46.1738 78.477 45.9229 79.3329 45.2257V42.9594C78.492 43.6302 77.2713 44.0295 76.0512 44.0295C73.3859 44.0295 71.2966 41.9546 71.2966 39.3091V37.3779C71.2966 34.7318 73.3859 32.6603 76.0512 32.6603C78.7188 32.6603 80.8064 34.7318 80.8064 37.3779V49.8963H82.9666ZM25.0957 36.1354V36.828C25.0957 40.5459 26.5166 44.0152 29.0982 46.5954C31.6735 49.1699 35.1254 50.5854 38.818 50.5854C41.7869 50.5854 44.4158 49.9186 46.635 48.6085C48.4645 47.5257 49.2754 46.4316 49.3453 46.3313V34.788H38.2934V36.9334H47.185V45.6651L47.1763 45.6725C46.1352 46.7077 43.6638 48.4395 38.818 48.4395C35.6604 48.4395 32.7372 47.245 30.5815 45.071C28.4368 42.9073 27.256 39.9793 27.256 36.828V36.1354C27.256 33.1599 28.6082 30.1913 30.9642 27.9949C33.3697 25.7567 36.5037 24.5227 39.7905 24.5227C42.8558 24.5227 44.9913 24.9844 46.7065 26.0156V23.609C44.9208 22.8551 42.7865 22.5165 39.7905 22.5165C31.8259 22.5165 25.0957 28.7545 25.0957 36.1354V36.1354ZM62.4374 32.6603C63.2569 32.6603 63.9512 32.795 64.5041 33.0619C64.7731 32.3962 65.049 31.8474 65.4513 31.1812C64.8637 30.7641 63.4653 30.5138 62.4374 30.5138C58.4954 30.5138 55.5219 33.4646 55.5219 37.3779V49.8963H57.6822V37.3779C57.6822 34.5989 59.6382 32.6603 62.4374 32.6603V32.6603ZM46.7065 30.1426V27.607C44.7517 26.5661 42.6186 26.1021 39.7905 26.1021C36.9048 26.1021 34.1691 27.1533 32.0844 29.0575C29.998 30.9686 28.8478 33.4824 28.8478 36.1354V36.828C28.8478 42.3613 33.3195 46.8624 38.818 46.8624C43.2904 46.8624 45.1263 45.4096 45.5938 44.9501V38.5122H38.2934V40.6559H43.5726V43.8817L43.5536 43.888C42.8743 44.1567 41.4637 44.717 38.818 44.717C36.7207 44.717 34.7584 43.9075 33.2912 42.4335C31.8172 40.9544 31.008 38.9625 31.008 36.828V36.1354C31.008 31.8595 35.0302 28.2475 39.7905 28.2475C43.0838 28.2475 45.0311 28.7768 46.7065 30.1426V30.1426ZM97.703 34.1824C98.6778 33.2172 99.9539 32.6603 101.198 32.6603C103.863 32.6603 105.953 34.7318 105.953 37.3779V39.3091C105.953 41.9546 103.863 44.0295 101.198 44.0295C99.9072 44.0295 98.6605 43.3255 97.684 42.0531C96.8183 40.928 96.2573 39.4059 96.1707 38.0379L94.4213 40.1581C94.7648 41.7799 95.6189 43.3341 96.8258 44.4265C98.0713 45.5516 99.6238 46.1738 101.198 46.1738C105.012 46.1738 108.113 43.094 108.113 39.3091V37.3779C108.113 35.5866 107.382 33.8725 106.056 32.5566C104.728 31.2396 103.004 30.5138 101.198 30.5138C100.056 30.5138 98.2404 30.92 96.0766 32.8511L96.0691 32.8585C95.4902 33.4337 94.1305 34.7834 93.3034 35.7458C91.9125 37.2519 89.8913 39.5256 88.1696 41.8005V45.1489C90.0806 42.7119 91.1806 41.3468 92.9767 39.2879C94.5853 37.4249 96.5764 35.1609 97.703 34.1824ZM65.386 39.3091C65.386 42.103 66.5051 44.7519 68.5361 46.7696C70.5689 48.7832 73.2382 49.8963 76.0512 49.8963C77.243 49.8963 78.4672 49.6437 79.3329 49.2203V47.0778C78.3217 47.4982 77.0999 47.752 76.0512 47.752C71.4421 47.752 67.5452 43.8863 67.5452 39.3091V37.3779C67.5452 32.8007 71.4421 28.9355 76.0512 28.9355C78.3431 28.9355 80.4855 29.8063 82.0836 31.3926C83.68 32.9771 84.5573 35.1031 84.5573 37.3779V49.8963H86.7175V36.9655C86.5831 34.2334 85.408 31.6773 83.4093 29.7662C81.4077 27.8476 78.7915 26.7907 76.0512 26.7907C73.2382 26.7907 70.5689 27.9021 68.5361 29.9197C66.5051 31.9351 65.386 34.5852 65.386 37.3779V39.3091ZM90.394 31.0076C91.0554 30.2193 91.7399 29.4185 92.5514 28.7425V17.4151H90.394V31.0076ZM94.1432 27.8648V17.4151H96.3023V26.3943C95.7159 26.6882 94.8963 27.2473 94.1432 27.8648" fill="#1AAE48"/>
</svg>
