<svg width="150" height="68" viewBox="0 0 150 68" fill="none" xmlns="http://www.w3.org/2000/svg">
<path d="M56.544 57.5152C56.7039 57.6619 57.3355 57.4514 57.5065 57.574C57.6575 57.6827 57.5042 58.2744 57.4381 58.286C43.3231 60.7858 49.3039 45.6115 44.7854 35.3476C44.2561 35.5886 43.6796 35.7088 43.098 35.6995C40.7425 35.6993 38.8333 33.7933 38.8333 31.0361C38.8333 30.8319 38.8341 30.716 38.8341 30.716C38.8544 30.5712 38.9239 30.5465 38.9585 30.4071C39.1069 29.8146 39.3805 29.2608 39.7609 28.7829C40.1413 28.305 40.6196 27.9142 41.1637 27.6367C43.3877 26.5651 45.8486 27.4884 47.9853 30.6803C51.85 36.4532 51.4501 52.845 56.544 57.515V57.5152ZM111.992 29.7832C111.999 29.8206 112.055 29.7447 112.055 29.9473C112.055 32.3141 110.785 34.5344 108.013 34.5344C107.568 34.5334 107.127 34.4508 106.712 34.2904C102.567 45.4779 110.018 62.3239 93.0705 57.92C74.8699 53.19 65.2254 56.9374 65.2254 56.9374C65.2254 56.9374 65.0176 56.4884 65.2254 56.2956C65.4306 56.1053 66.1741 55.9766 66.4569 55.7904C69.1475 54.0185 75.2662 52.5139 83.0908 52.7298C93.2146 53.0933 99.0444 57.5913 100.585 47.7248C100.652 47.3677 100.713 47.0015 100.767 46.6262C98.7181 49.8193 94.5892 50.9513 92.8529 47.8814C92.4307 47.1357 92.1033 46.174 91.8762 45.0824C90.8179 47.3377 89.0081 49.885 86.2682 49.7322C84.5296 49.6356 83.9606 48.4213 84.0241 45.8153C84.0683 43.997 84.1568 40.5388 84.225 38.7883C84.4172 33.8768 81.5207 35.2514 81.0766 38.6826C80.8989 40.0574 80.7613 47.4568 81.0751 49.806C76.4755 50.5336 75.5299 49.1393 75.4778 46.2591C72.881 53.1905 68.5368 52.9622 67.2959 48.3479C66.5547 51.4395 64.5646 54.4692 62.6011 54.4692C59.4309 54.4692 56.3021 49.5009 51.1379 36.3045C51.0809 36.0107 51.0809 35.7086 51.1379 35.4147C51.1486 35.3602 51.4208 35.9948 51.4754 35.9827C64.5054 33.0942 77.1442 25.9522 77.5076 19.5056C76.933 19.8354 76.3006 20.0526 75.6446 20.1453C72.7895 20.5465 70.1398 18.4991 69.7496 15.6427C69.6844 15.1622 69.6673 14.6764 69.6987 14.1925C69.7083 14.0852 69.7575 14.1251 69.7575 14.1251C69.9275 13.0215 70.4468 12.0014 71.2393 11.2147C72.0317 10.4279 73.0555 9.91598 74.1604 9.75401C76.9539 9.37665 79.6326 11.6565 80.4921 15.4013C80.6159 15.9658 80.6956 16.5391 80.7305 17.116C80.7305 23.8573 75.5405 32.5609 58.7133 39.2295C61.797 44.7161 63.938 48.7816 65.6807 48.0817C66.6852 47.678 66.938 45.762 66.6789 38.4377L71.8681 35.4822C71.3604 43.954 72.9138 46.8824 74.3306 45.8743C75.4659 45.0667 76.1297 42.55 76.1047 38.588C76.0429 35.4086 75.8107 33.6589 75.8107 33.6589C79.133 30.3827 80.734 30.6721 80.7548 34.8014C83.298 26.1254 89.5833 28.0776 89.1999 35.9634C88.8175 43.845 89.2387 45.3578 89.9149 45.3578C90.8321 45.3578 92.0999 43.7062 92.0061 41.9791C91.8378 37.5971 92.4538 32.5131 95.0752 30.2791C98.7416 27.1555 101.799 30.0594 102.941 31.7871C102.989 31.6618 103.041 31.5398 103.091 31.4167C105.58 25.8119 108.778 25.9509 110.666 27.4483C111.361 28.0525 111.829 28.8763 111.992 29.783L111.992 29.7832ZM102.131 34.7776C101.837 33.7995 100.007 31.7951 98.2275 33.544C96.2007 35.5355 95.9794 41.6318 96.7799 43.5297C97.5307 45.3099 100.329 45.0313 101.152 42.8762C101.367 40.159 101.545 37.462 102.131 34.7777V34.7776Z" fill="#EB8D00"/>
<path d="M57.5068 57.574C57.5167 57.6052 57.5044 57.6323 57.4383 57.644C43.3233 60.1436 49.0429 45.0447 44.9126 34.648C43.9003 35.1258 42.7406 35.186 41.6841 34.8157C40.6277 34.4453 39.7594 33.6742 39.267 32.6688C38.7745 31.6635 38.6975 30.5048 39.0524 29.4431C39.4074 28.3814 40.1658 27.502 41.1639 26.995C43.3879 25.9232 45.8488 26.8464 47.9855 30.0384C52.0784 36.1529 51.3883 54.1773 57.5068 57.5737V57.574ZM112.055 29.8509C112.056 30.5001 111.901 31.1401 111.602 31.7165C111.304 32.2928 110.87 32.7885 110.339 33.1613C109.807 33.5342 109.194 33.7732 108.55 33.8581C107.906 33.943 107.252 33.8712 106.642 33.6489C102.819 44.6297 110.019 61.682 93.0708 57.2779C74.8703 52.5483 65.2257 56.2952 65.2257 56.2952C66.6346 54.0904 73.6106 51.8264 83.0911 52.0882C93.2149 52.451 99.0447 56.9496 100.585 47.0831C100.653 46.7261 100.714 46.3597 100.768 45.984C98.7184 49.1777 94.5895 50.3094 92.8532 47.2397C92.431 46.4936 92.1037 45.5323 91.8765 44.4403C90.8182 46.6959 89.0084 49.2434 86.2685 49.0901C84.5299 48.9936 83.961 47.7797 84.0244 45.1732C84.0686 43.3554 84.1571 39.8971 84.2253 38.1467C84.4175 33.2352 81.521 34.6097 81.0769 38.0409C80.8993 39.4152 80.9142 46.9285 80.9989 49.1638C76.3994 49.8914 75.6246 48.6002 75.5238 45.4121C72.927 52.343 68.5373 52.3199 67.2963 47.7061C66.5551 50.7977 64.565 53.827 62.6015 53.827C59.4313 53.827 56.3025 48.611 51.1383 35.4143C64.2867 32.577 77.1414 25.3059 77.5082 18.8037C76.842 19.1847 76.1 19.4142 75.3351 19.4756C74.5701 19.537 73.801 19.429 73.0826 19.1591C72.3642 18.8893 71.7142 18.4643 71.1788 17.9144C70.6435 17.3645 70.236 16.7034 69.9855 15.978C69.7349 15.2526 69.6475 14.4809 69.7294 13.7179C69.8112 12.9548 70.0604 12.2192 70.4592 11.5635C70.8579 10.9078 71.3963 10.3481 72.0362 9.92438C72.676 9.50062 73.4014 9.22321 74.1607 9.11192C76.9542 8.73456 79.6329 11.0144 80.4924 14.7597C80.6506 15.5351 80.7304 16.3244 80.7308 17.1157C80.731 17.3602 80.7237 17.6046 80.7089 17.8491C80.2574 23.3409 75.5409 31.9188 58.7135 38.5879C61.7972 44.074 63.9382 48.1394 65.681 47.4401C66.6854 47.0363 66.7012 45.1038 66.4421 37.7795C68.2736 36.5265 70.2277 35.4629 72.2742 34.605C72.2742 43.2034 72.914 46.2404 74.3308 45.2328C75.4661 44.4252 75.5274 41.9084 75.5024 37.9465C75.4407 34.7666 75.3029 32.9735 75.3029 32.9735C78.625 29.6973 80.8885 29.7512 80.9096 33.8806C83.4528 25.2046 89.814 27.4361 89.4306 35.322C89.0479 43.2034 89.239 44.7158 89.9151 44.7158C90.8323 44.7158 91.6075 43.0642 91.5136 41.3376H91.5146C91.3464 36.9555 92.4539 31.8712 95.0755 29.6371C98.7417 26.5137 101.799 29.418 102.941 31.1455C102.989 31.0202 103.041 30.8978 103.091 30.7746C105.58 25.1698 108.778 25.309 110.666 26.8064C111.102 27.1848 111.452 27.6524 111.691 28.1777C111.931 28.703 112.055 29.2736 112.055 29.8509H112.055ZM102.131 33.9356C101.837 32.9575 100.008 31.153 98.2279 32.9019C96.201 34.8934 95.9797 40.9901 96.7802 42.888C97.531 44.6679 100.329 44.3892 101.153 42.2346C101.367 39.5174 101.546 36.6199 102.131 33.9357V33.9356Z" fill="url(#paint0_linear_142_9880)"/>
<path d="M91.7235 41.1827C91.5941 37.0826 92.6172 32.0133 95.2142 29.8C96.2516 28.9165 97.3134 28.468 98.3699 28.468C100.247 28.468 101.87 29.912 102.763 31.2633L102.994 31.6124L103.289 30.8559C105.021 26.9551 106.958 26.1355 108.276 26.1355C109.267 26.1355 110.05 26.5915 110.533 26.974C111.207 27.5601 111.654 28.3636 111.797 29.245C111.94 30.1264 111.77 31.0301 111.316 31.7992C110.862 32.5683 110.154 33.1542 109.313 33.4554C108.473 33.7566 107.553 33.7539 106.714 33.4479L106.511 33.3741L106.44 33.5783C105.933 35.0345 105.577 36.7182 105.353 38.7208C104.125 39.0298 102.857 39.3216 101.577 39.5902C101.731 37.7633 101.936 35.8323 102.34 33.9812L102.352 33.927L102.336 33.874C102.1 33.0898 101.066 31.9551 99.8128 31.9551C99.1979 31.9551 98.6145 32.2224 98.0781 32.7494C96.4442 34.355 96.037 38.2323 96.1563 40.579C94.7118 40.8047 93.2226 41.0073 91.7234 41.1826L91.7235 41.1827ZM59.0713 39.6624L58.4072 38.4793L58.6347 38.3891C77.4534 30.9309 80.1919 21.5278 80.4955 17.8361C80.5574 16.8216 80.4863 15.8034 80.2841 14.8074C79.526 11.5042 77.3074 9.28516 74.7632 9.28516C74.5721 9.2852 74.3811 9.29806 74.1916 9.32364C72.9411 9.50694 71.8062 10.1566 71.0148 11.1421C70.2235 12.1277 69.8343 13.3762 69.9255 14.6368C70.0166 15.8974 70.5814 17.0769 71.5063 17.9383C72.4312 18.7998 73.6478 19.2794 74.9117 19.2808C75.147 19.2807 75.3819 19.2643 75.6149 19.2317C76.2443 19.1427 76.8508 18.9342 77.4019 18.6175L77.7435 18.4225L77.7214 18.8155C77.333 25.698 63.8205 32.8397 51.4285 35.5699C52.0223 37.0828 52.5899 38.4915 53.1186 39.7628C55.2784 40.1963 57.5086 40.5724 59.756 40.8815C59.5331 40.4861 59.3049 40.0797 59.0712 39.6623L59.0713 39.6624ZM47.8077 30.1574C46.3295 27.9494 44.6544 26.7822 42.9633 26.7822C42.3726 26.7863 41.7906 26.9243 41.261 27.1857C40.3103 27.6656 39.5871 28.501 39.2481 29.5106C38.9091 30.5202 38.9817 31.6227 39.4502 32.5791C39.9186 33.5356 40.7452 34.2688 41.7506 34.6199C42.7561 34.9711 43.8594 34.9118 44.8214 34.4549L45.0272 34.3579L45.1113 34.5693C45.5574 35.7134 45.9047 36.8936 46.1496 38.097C47.6388 38.5145 49.1733 38.903 50.7175 39.2525C50.022 35.7184 49.1808 32.2089 47.8077 30.1575V30.1574ZM72.0607 34.9253C70.1725 35.7436 68.3645 36.7357 66.6601 37.8889C66.705 39.1646 66.7494 40.4892 66.7745 41.6358C68.6175 41.7803 70.4844 41.8859 72.3307 41.9503C72.1551 40.2716 72.0667 37.967 72.0607 34.9253ZM80.7338 41.9741C80.7477 40.4775 80.7817 38.6538 80.8649 38.0135C81.1028 36.1744 82.0658 34.7332 83.0571 34.7332C83.1935 34.7348 83.3282 34.7645 83.4527 34.8204C83.5771 34.8764 83.6887 34.9575 83.7804 35.0585C84.27 35.568 84.4979 36.6385 84.4383 38.1549C84.4073 38.9524 84.3691 40.1856 84.3244 41.8221C85.8741 41.7344 87.4523 41.6154 89.022 41.4672C89.0191 40.0666 89.0813 38.1009 89.2166 35.3116C89.3395 32.7857 88.7552 30.6503 87.6139 29.4518C87.0385 28.8479 86.3587 28.529 85.6476 28.529C83.8023 28.529 82.1077 30.5522 81.1143 33.9408C81.1143 33.9408 80.9965 34.1382 80.8585 34.1124C80.7206 34.086 80.6957 33.8819 80.6957 33.8819C80.6885 32.4999 80.4142 30.8521 79.1467 30.8521C78.2528 30.8521 77.0009 31.6141 75.5231 33.0573C75.5523 33.4774 75.6629 35.2081 75.7161 37.9454C75.7251 39.3647 75.726 40.8426 75.6388 42.0234C76.0664 42.0277 76.495 42.0299 76.9245 42.0301C78.1635 42.0301 79.4442 42.0113 80.7334 41.9742L80.7338 41.9741Z" fill="url(#paint1_linear_142_9880)"/>
<defs>
<linearGradient id="paint0_linear_142_9880" x1="75.4443" y1="42.5133" x2="75.4443" y2="54.7919" gradientUnits="userSpaceOnUse">
<stop stop-color="#FFC400"/>
<stop offset="1" stop-color="#FFA400"/>
</linearGradient>
<linearGradient id="paint1_linear_142_9880" x1="75.4442" y1="18.9916" x2="75.4442" y2="38.7889" gradientUnits="userSpaceOnUse">
<stop stop-color="#FFD400" stop-opacity="0"/>
<stop offset="1" stop-color="#FFD400"/>
</linearGradient>
</defs>
</svg>
