<svg width="151" height="68" viewBox="0 0 151 68" fill="none" xmlns="http://www.w3.org/2000/svg">
<mask id="mask0_142_9703" style="mask-type:luminance" maskUnits="userSpaceOnUse" x="9" y="10" width="133" height="48">
<path d="M141.562 10.4658H9.32129V57.5347H141.562V10.4658Z" fill="white"/>
</mask>
<g mask="url(#mask0_142_9703)">
<path d="M20.3885 29.3401V28.0864C19.959 28.029 19.5223 27.9932 19.0713 27.9932C13.6952 27.9861 9.32129 32.3636 9.32129 37.7514C9.32129 41.0543 10.9678 43.9775 13.4876 45.7472C11.8626 44.0062 10.8675 41.6633 10.8675 39.0984C10.8675 33.7894 15.1198 29.4619 20.3885 29.3401Z" fill="#25F4EE"/>
<path d="M20.625 43.5546C23.0232 43.5546 24.9846 41.6417 25.0705 39.2631L25.0776 18.0056H28.9577C28.8789 17.5686 28.836 17.1172 28.836 16.6587H23.5386L23.5314 37.9161C23.4455 40.2948 21.484 42.2077 19.0859 42.2077C18.3414 42.2077 17.6399 42.0214 17.0171 41.6918C17.8189 42.8168 19.136 43.5546 20.625 43.5546Z" fill="#25F4EE"/>
<path d="M36.2084 25.2205V24.0382C34.7265 24.0382 33.3521 23.6012 32.1924 22.8418C33.2232 24.0239 34.6191 24.8837 36.2084 25.2205Z" fill="#25F4EE"/>
<path d="M32.1925 22.842C31.0613 21.5452 30.3813 19.8543 30.3813 18.0059H28.9639C29.329 20.0263 30.5316 21.7601 32.1925 22.842Z" fill="#FE2C55"/>
<path d="M19.0786 33.2879C16.6232 33.2879 14.626 35.2868 14.626 37.7443C14.626 39.4566 15.5995 40.9469 17.017 41.6919C16.4872 40.9611 16.1722 40.0656 16.1722 39.0913C16.1722 36.6337 18.1695 34.6349 20.6249 34.6349C21.083 34.6349 21.5268 34.7136 21.942 34.8426V29.4261C21.5126 29.3689 21.0759 29.333 20.6249 29.333C20.5461 29.333 20.4745 29.3402 20.3958 29.3402V33.4957C19.9734 33.3667 19.5368 33.2879 19.0786 33.2879Z" fill="#FE2C55"/>
<path d="M36.2092 25.2205V29.3401C33.4603 29.3401 30.9118 28.4589 28.8359 26.9686V37.7514C28.8359 43.1321 24.4619 47.5167 19.0787 47.5167C17.0027 47.5167 15.0698 46.8577 13.4878 45.7472C15.2703 47.6601 17.8116 48.8637 20.6249 48.8637C26.0011 48.8637 30.3821 44.4862 30.3821 39.0984V28.3156C32.4581 29.8059 35.0066 30.6871 37.7554 30.6871V25.3853C37.2186 25.3853 36.7031 25.3279 36.2092 25.2205Z" fill="#FE2C55"/>
<path d="M28.8358 37.7515V26.9688C30.9117 28.459 33.4602 29.3403 36.2091 29.3403V25.2207C34.6199 24.8839 33.2239 24.0241 32.1931 22.842C30.5324 21.7601 29.3368 20.0263 28.9575 18.0059H25.0774L25.0704 39.2633C24.9844 41.642 23.023 43.5549 20.6248 43.5549C19.1359 43.5549 17.8258 42.8169 17.0098 41.6992C15.5924 40.947 14.6188 39.4639 14.6188 37.7515C14.6188 35.2941 16.616 33.2952 19.0714 33.2952C19.5296 33.2952 19.9734 33.374 20.3886 33.503V29.3475C15.1199 29.4621 10.8677 33.7896 10.8677 39.0985C10.8677 41.6635 11.8627 43.9991 13.4877 45.7473C15.0698 46.8578 17.0026 47.517 19.0786 47.517C24.4547 47.517 28.8358 43.1322 28.8358 37.7515Z" fill="black"/>
<path d="M42.9941 25.2349H59.552L58.0343 29.9778H53.7392V47.5097H48.3845V29.9778L43.0013 29.985L42.9941 25.2349Z" fill="black"/>
<path d="M86.6836 25.2349H103.628L102.11 29.9778H97.4359V47.5097H92.0741V29.9778L86.6908 29.985L86.6836 25.2349Z" fill="black"/>
<path d="M60.5684 32.3208H65.8729V47.5098H60.597L60.5684 32.3208Z" fill="black"/>
<path d="M67.985 25.1777H73.2895V35.552L78.544 30.3863H84.8721L78.2218 36.8417L85.6667 47.5099H79.8253L74.8572 40.1159L73.2823 41.6421V47.5099H67.9778V25.1777H67.985Z" fill="black"/>
<path d="M124.18 25.1777H129.486V35.552L134.74 30.3863H141.068L134.418 36.8417L141.863 47.5099H136.028L131.06 40.1159L129.486 41.6421V47.5099H124.18V25.1777Z" fill="black"/>
<path d="M63.2168 30.5867C64.6915 30.5867 65.8869 29.3903 65.8869 27.9143C65.8869 26.4384 64.6915 25.2419 63.2168 25.2419C61.7421 25.2419 60.5466 26.4384 60.5466 27.9143C60.5466 29.3903 61.7421 30.5867 63.2168 30.5867Z" fill="black"/>
<path d="M102.947 38.4178C102.947 33.6391 106.634 29.72 111.323 29.3546C111.087 29.3331 110.764 29.3259 110.528 29.3259C105.51 29.3259 101.444 33.3955 101.444 38.4178C101.444 43.4403 105.51 47.5097 110.528 47.5097C110.764 47.5097 111.087 47.4954 111.323 47.4812C106.641 47.1157 102.947 43.1967 102.947 38.4178Z" fill="#25F4EE"/>
<path d="M113.385 29.3259C113.141 29.3259 112.819 29.3403 112.583 29.3546C117.265 29.72 120.952 33.6391 120.952 38.4178C120.952 43.1967 117.265 47.1157 112.583 47.4812C112.819 47.5026 113.141 47.5097 113.385 47.5097C118.403 47.5097 122.469 43.4403 122.469 38.4178C122.469 33.3955 118.403 29.3259 113.385 29.3259Z" fill="#FE2C55"/>
<path d="M111.953 42.8385C109.512 42.8385 107.536 40.861 107.536 38.4178C107.536 35.9747 109.512 33.9973 111.953 33.9973C114.394 33.9973 116.37 35.9747 116.37 38.4178C116.37 40.861 114.387 42.8385 111.953 42.8385ZM111.953 29.3259C106.935 29.3259 102.869 33.3955 102.869 38.4178C102.869 43.4403 106.935 47.5097 111.953 47.5097C116.971 47.5097 121.038 43.4403 121.038 38.4178C121.038 33.3955 116.971 29.3259 111.953 29.3259Z" fill="black"/>
</g>
</svg>
