<svg width="165" height="68" viewBox="0 0 165 68" fill="none" xmlns="http://www.w3.org/2000/svg">
<path d="M4.77344 23.9925C4.77344 23.9925 8.65774 38.8783 9.26936 41.2889C9.98827 44.1114 11.2973 45.146 15.0529 44.4429L17.4779 35.2121C18.0895 32.9219 18.508 31.2847 18.8943 28.9544H18.9586C19.2376 31.3048 19.6346 32.9219 20.139 35.2221C20.139 35.2221 21.1261 39.4106 21.6304 41.6104C22.1348 43.8101 23.5511 45.1962 27.2208 44.4429L32.9936 23.9925H28.3368L26.3624 32.8315C25.8367 35.4029 25.3538 37.4218 24.9782 39.7722H24.9139C24.5812 37.4419 24.152 35.5134 23.6048 33.0023L21.5553 23.9925H16.6946L14.4949 32.7813C13.8726 35.4531 13.2931 37.6026 12.9176 39.8827H12.8532C12.4777 37.7433 11.9733 35.0313 11.4261 32.4498C11.4261 32.4498 10.117 26.162 9.66637 24.0025L4.77344 23.9925ZM49.1961 23.9925V44.4429H53.6384V40.1037V23.9925H49.1961ZM111.699 23.9925V39.0792C111.699 41.1584 112.117 42.6148 113.008 43.5087C113.791 44.2922 115.079 44.7944 116.624 44.7944C117.933 44.7944 119.232 44.5634 119.832 44.3525L119.779 41.1081C119.328 41.2086 118.802 41.299 118.094 41.299C116.581 41.299 116.077 40.395 116.077 38.5267V32.7512H119.94V28.8339H116.077V23.9925H111.699ZM39.2815 28.7334C36.5238 28.7334 34.3349 29.4566 33.1439 30.0995L34.013 32.9018C35.1075 32.259 36.8457 31.7267 38.4875 31.7267C41.2129 31.7166 41.6636 33.173 41.6636 34.0971V34.3181C35.7191 34.3081 31.9743 36.2366 31.9743 40.1539C31.9743 42.5445 33.8842 44.7944 37.1998 44.7944C39.2493 44.7944 40.9554 44.0311 41.9747 42.8056H42.0713C42.0713 42.8056 42.7473 45.4574 46.4921 44.4429C46.299 43.338 46.2346 42.1628 46.2346 40.7365V35.2723C46.2453 31.797 44.6573 28.7334 39.2815 28.7334ZM65.8278 28.7334C63.0487 28.7334 61.804 30.0492 61.0422 31.1642H60.9778V29.0749H56.7394V44.4429H61.2031V35.433C61.2031 35.0112 61.2568 34.5592 61.407 34.1775C61.7718 33.2735 62.6731 32.2088 64.1217 32.2088C65.9244 32.2088 66.7613 33.6351 66.7613 35.6842V44.4429H71.2143V35.3226C71.2143 34.9208 71.2787 34.4286 71.3967 34.077C71.7615 33.0425 72.738 32.2088 74.0685 32.2088C75.8926 32.2088 76.7725 33.605 76.7725 36.0257V44.4429H81.2362V35.3929C81.2362 30.6218 78.6503 28.7334 75.721 28.7334C74.4226 28.7334 73.4032 29.0348 72.4805 29.5671C71.7079 30.0091 71.0104 30.6419 70.3988 31.4856H70.3344C69.6477 29.8283 67.9845 28.7334 65.8278 28.7334ZM90.3246 28.7334C87.567 28.7334 85.3781 29.4566 84.187 30.0995L85.0562 32.9018C86.1506 32.259 87.8889 31.7267 89.5306 31.7267C92.2561 31.7166 92.696 33.173 92.696 34.0971V34.3181C86.7622 34.3081 83.0067 36.2366 83.0067 40.1539C83.0067 42.5445 84.9167 44.7944 88.243 44.7944C90.2817 44.7944 91.9985 44.0311 93.0179 42.8056H93.1145C93.1145 42.8056 93.7905 45.4574 97.5353 44.4429C97.3421 43.338 97.2777 42.1628 97.2777 40.7365V35.2723C97.2777 31.797 95.6897 28.7334 90.3246 28.7334ZM108.845 28.7334C107.139 28.7334 105.197 29.768 104.381 31.9778H104.252V29.0749H100.239V44.4429H104.821V36.5781C104.821 36.1562 104.853 35.7846 104.918 35.4431C105.261 33.7958 106.602 32.7411 108.534 32.7411C109.059 32.7411 109.446 32.7914 109.853 32.8516V28.8238C109.51 28.7635 109.274 28.7334 108.845 28.7334ZM41.8138 37.0401V38.9586C41.8138 39.2399 41.7923 39.5312 41.7065 39.7923C41.3631 40.857 40.1828 41.761 38.7128 41.761C37.4896 41.761 36.5131 41.1081 36.5131 39.732C36.5024 37.6127 38.981 37.0301 41.8138 37.0401ZM92.8462 37.0401V38.9586C92.8462 39.2399 92.814 39.5312 92.7389 39.7923C92.3955 40.857 91.2152 41.761 89.7452 41.761C88.522 41.761 87.5455 41.1081 87.5455 39.732C87.5348 37.6127 90.0242 37.0301 92.8462 37.0401Z" fill="#007DC6"/>
<path d="M143.921 16.6001C142.484 16.6001 141.346 17.3534 141.346 18.2574L142.215 27.4782C142.312 28.0306 143.042 28.4626 143.921 28.4626C144.801 28.4626 145.531 28.0306 145.627 27.4782L146.497 18.2574C146.507 17.3434 145.359 16.6001 143.921 16.6001ZM129.747 23.9928C129.007 24.0129 128.159 24.5352 127.622 25.4091C126.903 26.5742 127.032 27.8699 127.869 28.3219L136.829 32.2292C137.387 32.4201 138.149 32.0484 138.588 31.3453C139.028 30.6322 138.996 29.8286 138.535 29.467L130.434 24.1535C130.23 24.043 129.994 23.9828 129.747 23.9928ZM158.107 23.9928C157.86 23.9828 157.624 24.043 157.409 24.1535L149.308 29.467C148.846 29.8186 148.814 30.6221 149.254 31.3453C149.694 32.0585 150.456 32.4301 151.014 32.2292L159.984 28.3219C160.832 27.8699 160.95 26.5642 160.231 25.4091C159.695 24.5352 158.847 24.0129 158.107 23.9928ZM137.172 36.1566C137.054 36.1566 136.947 36.1767 136.839 36.2068L127.88 40.1141C127.043 40.5761 126.914 41.8718 127.633 43.037C128.352 44.1921 129.607 44.7445 130.455 44.2926L138.556 38.9791C139.018 38.6175 139.061 37.8139 138.61 37.1008C138.245 36.5182 137.676 36.1666 137.172 36.1566ZM150.681 36.1566C150.177 36.1666 149.608 36.5182 149.254 37.1008C148.814 37.8139 148.846 38.6175 149.308 38.9791L157.409 44.2926C158.246 44.7445 159.512 44.1921 160.231 43.037C160.95 41.8718 160.821 40.5761 159.984 40.1141L151.014 36.2068C150.907 36.1767 150.799 36.1566 150.681 36.1566ZM143.921 39.9835C143.042 39.9835 142.323 40.4154 142.226 40.9679L141.357 50.1886C141.357 51.1027 142.494 51.8459 143.932 51.8459C145.37 51.8459 146.507 51.1027 146.507 50.1886L145.638 40.9679C145.531 40.4054 144.812 39.9835 143.921 39.9835Z" fill="#FFC220"/>
</svg>
