<svg width="814" height="584" viewBox="0 0 814 584" fill="none" xmlns="http://www.w3.org/2000/svg">
<g filter="url(#filter0_d_1_8140)">
<rect x="27" y="22.0005" width="760" height="530" rx="20" fill="white"/>
<g filter="url(#filter1_d_1_8140)">
<rect x="51" y="46.0005" width="158" height="40" rx="8" fill="white"/>
<path d="M74.14 72.0005L71.844 68.0805H69.1V72.0005H68.12V62.2005H72.04C73.664 62.2005 74.98 63.5165 74.98 65.1405C74.98 66.4705 74.084 67.6045 72.866 67.9545L75.26 72.0005H74.14ZM69.1 63.1245V67.1565H72.04C73.118 67.1565 74 66.2465 74 65.1405C74 64.0205 73.118 63.1245 72.04 63.1245H69.1ZM79.4035 64.8325C81.5455 64.8325 82.8755 66.6105 82.8755 68.5285C82.8755 68.6685 82.8615 68.8225 82.8475 68.9625H76.7015C76.8975 70.3905 78.0035 71.2725 79.4875 71.2725C80.5935 71.2725 81.3635 70.7545 81.7415 70.0825L82.5535 70.5585C81.9655 71.5105 80.8875 72.1685 79.4735 72.1685C77.2615 72.1685 75.7495 70.6145 75.7495 68.5005C75.7495 66.4425 77.2335 64.8325 79.4035 64.8325ZM79.4035 65.7285C77.9335 65.7285 76.8835 66.6945 76.7015 68.0665H81.9235C81.7275 66.5265 80.6075 65.7285 79.4035 65.7285ZM89.1118 65.0005H90.0918L87.2218 72.0005H86.1018L83.2318 65.0005H84.2118L86.6618 71.0345L89.1118 65.0005ZM94.1691 64.8325C96.3111 64.8325 97.6411 66.6105 97.6411 68.5285C97.6411 68.6685 97.6271 68.8225 97.6131 68.9625H91.4671C91.6631 70.3905 92.7691 71.2725 94.2531 71.2725C95.3591 71.2725 96.1291 70.7545 96.5071 70.0825L97.3191 70.5585C96.7311 71.5105 95.6531 72.1685 94.2391 72.1685C92.0271 72.1685 90.5151 70.6145 90.5151 68.5005C90.5151 66.4425 91.9991 64.8325 94.1691 64.8325ZM94.1691 65.7285C92.6991 65.7285 91.6491 66.6945 91.4671 68.0665H96.6891C96.4931 66.5265 95.3731 65.7285 94.1691 65.7285ZM102.387 64.8325C104.095 64.8325 105.131 65.9525 105.131 67.7025V72.0005H104.207V67.7025C104.207 66.4565 103.521 65.7285 102.303 65.7285C101.071 65.7285 100.035 66.4565 100.035 68.3325V72.0005H99.1109V65.0005H100.035V66.0925C100.581 65.2105 101.393 64.8325 102.387 64.8325ZM111.846 65.0005H112.77V72.0005H111.846V70.9085C111.3 71.7905 110.488 72.1685 109.494 72.1685C107.785 72.1685 106.75 71.0485 106.75 69.2985V65.0005H107.674V69.2985C107.674 70.5445 108.36 71.2725 109.578 71.2725C110.81 71.2725 111.846 70.5445 111.846 68.6685V65.0005ZM117.958 64.8325C120.1 64.8325 121.43 66.6105 121.43 68.5285C121.43 68.6685 121.416 68.8225 121.402 68.9625H115.256C115.452 70.3905 116.558 71.2725 118.042 71.2725C119.148 71.2725 119.918 70.7545 120.296 70.0825L121.108 70.5585C120.52 71.5105 119.442 72.1685 118.028 72.1685C115.816 72.1685 114.304 70.6145 114.304 68.5005C114.304 66.4425 115.788 64.8325 117.958 64.8325ZM117.958 65.7285C116.488 65.7285 115.438 66.6945 115.256 68.0665H120.478C120.282 66.5265 119.162 65.7285 117.958 65.7285Z" fill="#9591A1"/>
<path d="M184 64.0005L188 68.0005L192 64.0005" stroke="#C6C1D2" stroke-width="2" stroke-linecap="round" stroke-linejoin="round"/>
</g>
<rect x="51" y="102" width="712" height="426" rx="12.5609" fill="#F7F7F7"/>
<path d="M134.099 148.706C136.004 148.706 137.31 147.672 137.31 146.039C137.31 144.27 135.759 143.78 134.031 143.209C132.738 142.787 131.922 142.46 131.922 141.426C131.922 140.378 132.752 139.78 133.895 139.78C135.147 139.78 135.881 140.501 136.235 141.358L137.038 140.909C136.548 139.78 135.46 138.854 133.895 138.854C132.316 138.854 130.969 139.793 130.969 141.467C130.969 143.222 132.466 143.631 134.017 144.148C135.419 144.61 136.358 144.964 136.358 146.066C136.358 147.087 135.555 147.781 134.112 147.781C132.616 147.781 131.717 147.046 131.377 145.903L130.561 146.379C131.051 147.822 132.343 148.706 134.099 148.706ZM142.113 148.706C144.1 148.706 145.692 147.155 145.692 145.141C145.692 143.127 144.1 141.576 142.113 141.576C140.126 141.576 138.534 143.127 138.534 145.141C138.534 147.155 140.126 148.706 142.113 148.706ZM142.113 147.835C140.602 147.835 139.432 146.652 139.432 145.141C139.432 143.631 140.602 142.447 142.113 142.447C143.623 142.447 144.794 143.631 144.794 145.141C144.794 146.652 143.623 147.835 142.113 147.835ZM151.984 141.739V145.304C151.984 147.128 150.978 147.835 149.78 147.835C148.596 147.835 147.929 147.128 147.929 145.917V141.739H147.031V145.917C147.031 147.618 148.038 148.706 149.698 148.706C150.665 148.706 151.454 148.339 151.984 147.482V148.543H152.883V141.739H151.984ZM155.681 142.869V141.739H154.782V148.543H155.681V144.76C155.681 143.073 156.742 142.501 157.831 142.501V141.63C156.96 141.63 156.157 141.916 155.681 142.869ZM161.82 148.706C163.154 148.706 164.31 148.012 164.868 146.937L164.12 146.502C163.684 147.291 162.854 147.835 161.82 147.835C160.31 147.835 159.139 146.652 159.139 145.141C159.139 143.631 160.31 142.447 161.82 142.447C162.841 142.447 163.698 142.978 164.065 143.78L164.8 143.359C164.31 142.284 163.167 141.576 161.82 141.576C159.765 141.576 158.241 143.127 158.241 145.141C158.241 147.155 159.765 148.706 161.82 148.706ZM169.235 141.576C167.125 141.576 165.683 143.141 165.683 145.141C165.683 147.196 167.153 148.706 169.303 148.706C170.677 148.706 171.725 148.067 172.296 147.141L171.507 146.679C171.14 147.332 170.391 147.835 169.316 147.835C167.874 147.835 166.799 146.978 166.608 145.59H172.582C172.596 145.454 172.609 145.304 172.609 145.168C172.609 143.304 171.317 141.576 169.235 141.576ZM169.235 142.447C170.405 142.447 171.493 143.222 171.684 144.719H166.608C166.785 143.386 167.806 142.447 169.235 142.447Z" fill="#514B5F"/>
<path d="M247.887 139.018V148.543H248.839V139.018H247.887ZM254.071 141.576C253.105 141.576 252.316 141.943 251.785 142.801V141.739H250.887V148.543H251.785V144.978C251.785 143.154 252.792 142.447 253.989 142.447C255.173 142.447 255.84 143.154 255.84 144.366V148.543H256.738V144.366C256.738 142.665 255.731 141.576 254.071 141.576ZM259.182 143.522C259.182 142.787 259.904 142.447 260.611 142.447C261.264 142.447 261.958 142.705 262.244 143.399L262.993 142.964C262.598 142.12 261.727 141.576 260.611 141.576C259.25 141.576 258.284 142.433 258.284 143.522C258.284 146.026 262.258 145.06 262.258 146.747C262.258 147.55 261.496 147.835 260.693 147.835C259.781 147.835 259.074 147.386 258.829 146.692L258.067 147.141C258.407 148.012 259.332 148.706 260.693 148.706C262.149 148.706 263.156 147.904 263.156 146.747C263.156 144.243 259.182 145.209 259.182 143.522ZM267.994 142.61V141.739H266.035V139.834L265.137 140.106V141.739H263.708V142.61H265.137V146.733C265.137 148.366 266.157 148.815 267.994 148.543V147.754C266.674 147.808 266.035 147.904 266.035 146.733V142.61H267.994ZM274.931 141.739V143.073C274.359 142.161 273.393 141.576 272.182 141.576C270.263 141.576 268.671 143.127 268.671 145.141C268.671 147.155 270.263 148.706 272.182 148.706C273.393 148.706 274.359 148.121 274.931 147.21V148.543H275.829V141.739H274.931ZM272.25 147.835C270.739 147.835 269.569 146.652 269.569 145.141C269.569 143.631 270.739 142.447 272.25 142.447C273.76 142.447 274.931 143.631 274.931 145.141C274.931 146.652 273.76 147.835 272.25 147.835ZM277.73 148.543H278.628V138.609H277.73V148.543ZM280.534 148.543H281.432V138.609H280.534V148.543ZM292.591 139.018V143.073C292.02 142.161 291.054 141.576 289.843 141.576C287.924 141.576 286.332 143.127 286.332 145.141C286.332 147.155 287.924 148.706 289.843 148.706C291.054 148.706 292.02 148.121 292.591 147.21V148.543H293.489V139.018H292.591ZM289.911 147.835C288.4 147.835 287.23 146.652 287.23 145.141C287.23 143.631 288.4 142.447 289.911 142.447C291.421 142.447 292.591 143.631 292.591 145.141C292.591 146.652 291.421 147.835 289.911 147.835ZM301.242 141.739V143.073C300.671 142.161 299.705 141.576 298.494 141.576C296.575 141.576 294.983 143.127 294.983 145.141C294.983 147.155 296.575 148.706 298.494 148.706C299.705 148.706 300.671 148.121 301.242 147.21V148.543H302.14V141.739H301.242ZM298.562 147.835C297.051 147.835 295.881 146.652 295.881 145.141C295.881 143.631 297.051 142.447 298.562 142.447C300.072 142.447 301.242 143.631 301.242 145.141C301.242 146.652 300.072 147.835 298.562 147.835ZM308.941 141.739L306.736 147.441L304.178 141.739H303.226L306.274 148.584L306.097 149.006C305.729 149.89 305.117 150.516 304.233 150.421V151.265C305.457 151.36 306.464 150.475 306.981 149.169L309.893 141.739H308.941Z" fill="#514B5F"/>
<path d="M393.333 139.018H389.659V148.543H393.333C395.959 148.543 397.823 146.407 397.823 143.78C397.823 141.154 395.959 139.018 393.333 139.018ZM393.333 147.645H390.611V139.916H393.333C395.456 139.916 396.898 141.644 396.898 143.78C396.898 145.917 395.456 147.645 393.333 147.645ZM405.168 141.739V143.073C404.596 142.161 403.63 141.576 402.419 141.576C400.5 141.576 398.908 143.127 398.908 145.141C398.908 147.155 400.5 148.706 402.419 148.706C403.63 148.706 404.596 148.121 405.168 147.21V148.543H406.066V141.739H405.168ZM402.487 147.835C400.977 147.835 399.806 146.652 399.806 145.141C399.806 143.631 400.977 142.447 402.487 142.447C403.997 142.447 405.168 143.631 405.168 145.141C405.168 146.652 403.997 147.835 402.487 147.835ZM412.866 141.739L410.662 147.441L408.103 141.739H407.151L410.199 148.584L410.022 149.006C409.655 149.89 409.042 150.516 408.158 150.421V151.265C409.383 151.36 410.39 150.475 410.907 149.169L413.819 141.739H412.866ZM420.075 139.018L417.558 139.889L417.803 140.705L419.939 140.065V148.543H420.892V139.018H420.075Z" fill="#514B5F"/>
<path d="M519.171 139.018H515.497V148.543H519.171C521.797 148.543 523.661 146.407 523.661 143.78C523.661 141.154 521.797 139.018 519.171 139.018ZM519.171 147.645H516.449V139.916H519.171C521.294 139.916 522.736 141.644 522.736 143.78C522.736 145.917 521.294 147.645 519.171 147.645ZM531.006 141.739V143.073C530.434 142.161 529.468 141.576 528.257 141.576C526.338 141.576 524.746 143.127 524.746 145.141C524.746 147.155 526.338 148.706 528.257 148.706C529.468 148.706 530.434 148.121 531.006 147.21V148.543H531.904V141.739H531.006ZM528.325 147.835C526.815 147.835 525.644 146.652 525.644 145.141C525.644 143.631 526.815 142.447 528.325 142.447C529.836 142.447 531.006 143.631 531.006 145.141C531.006 146.652 529.836 147.835 528.325 147.835ZM538.704 141.739L536.5 147.441L533.942 141.739H532.989L536.037 148.584L535.86 149.006C535.493 149.89 534.881 150.516 533.996 150.421V151.265C535.221 151.36 536.228 150.475 536.745 149.169L539.657 141.739H538.704ZM543.464 139.018V139.916H548.322L544.729 148.543H545.723L549.315 139.916V139.018H543.464Z" fill="#514B5F"/>
<path d="M643.109 139.018H639.435V148.543H643.109C645.735 148.543 647.6 146.407 647.6 143.78C647.6 141.154 645.735 139.018 643.109 139.018ZM643.109 147.645H640.388V139.916H643.109C645.232 139.916 646.674 141.644 646.674 143.78C646.674 145.917 645.232 147.645 643.109 147.645ZM654.944 141.739V143.073C654.373 142.161 653.406 141.576 652.195 141.576C650.277 141.576 648.685 143.127 648.685 145.141C648.685 147.155 650.277 148.706 652.195 148.706C653.406 148.706 654.373 148.121 654.944 147.21V148.543H655.842V141.739H654.944ZM652.263 147.835C650.753 147.835 649.583 146.652 649.583 145.141C649.583 143.631 650.753 142.447 652.263 142.447C653.774 142.447 654.944 143.631 654.944 145.141C654.944 146.652 653.774 147.835 652.263 147.835ZM662.643 141.739L660.438 147.441L657.88 141.739H656.927L659.975 148.584L659.799 149.006C659.431 149.89 658.819 150.516 657.934 150.421V151.265C659.159 151.36 660.166 150.475 660.683 149.169L663.595 141.739H662.643ZM669.851 139.018L667.334 139.889L667.579 140.705L669.715 140.065V148.543H670.668V139.018H669.851ZM679.307 145.74H678.082V142.828H677.129V145.74H673.142L676.68 139.018H675.633L672.095 145.74V146.638H677.129V148.543H678.082V146.638H679.307V145.74Z" fill="#514B5F"/>
<rect x="72" y="168.992" width="670" height="111" rx="12.5609" fill="white"/>
<path fill-rule="evenodd" clip-rule="evenodd" d="M139.468 226.406C137.979 225.545 137.464 223.62 138.324 222.128L144.507 211.401C145.368 209.91 147.29 209.394 148.78 210.255C150.269 211.116 150.785 213.042 149.924 214.533L143.741 225.26C142.881 226.752 140.958 227.268 139.468 226.406Z" fill="#FBBC06"/>
<path fill-rule="evenodd" clip-rule="evenodd" d="M154.997 226.406C153.508 227.268 151.585 226.752 150.725 225.26L144.541 214.533C143.681 213.042 144.196 211.116 145.686 210.255C147.176 209.394 149.098 209.91 149.958 211.401L156.142 222.128C157.002 223.62 156.487 225.545 154.997 226.406Z" fill="#4285F4"/>
<path fill-rule="evenodd" clip-rule="evenodd" d="M144.124 223.715C144.124 225.432 142.732 226.824 141.015 226.824C139.299 226.824 137.907 225.432 137.907 223.715C137.907 221.998 139.299 220.607 141.015 220.607C142.732 220.607 144.124 221.998 144.124 223.715Z" fill="#34A853"/>
<path d="M143.89 231.599C144.516 231.599 145.001 231.877 145.264 232.196H145.305V231.778H146.396V236.438C146.396 238.35 145.264 239.147 143.91 239.147C142.637 239.147 141.869 238.31 141.586 237.613L142.596 237.195C142.778 237.613 143.203 238.111 143.91 238.111C144.779 238.111 145.305 237.573 145.305 236.577V236.199H145.264C145.001 236.518 144.516 236.797 143.89 236.797C142.576 236.797 141.384 235.661 141.384 234.208C141.384 232.734 142.576 231.599 143.89 231.599ZM132.511 231.599C133.946 231.599 135.139 232.714 135.139 234.227C135.139 235.741 133.967 236.856 132.511 236.856C131.056 236.856 129.884 235.741 129.884 234.227C129.884 232.694 131.076 231.599 132.511 231.599ZM138.211 231.599C139.666 231.599 140.838 232.714 140.838 234.227C140.838 235.741 139.646 236.856 138.211 236.856C136.756 236.856 135.583 235.741 135.583 234.227C135.583 232.694 136.756 231.599 138.211 231.599ZM151.489 231.599C152.863 231.599 153.55 232.694 153.773 233.271L153.894 233.57L150.317 235.024C150.579 235.562 151.004 235.821 151.61 235.821C152.196 235.821 152.621 235.542 152.924 235.104L153.833 235.701C153.55 236.119 152.843 236.856 151.61 236.856C150.094 236.856 148.963 235.701 148.963 234.227C148.963 232.654 150.115 231.599 151.489 231.599ZM125.66 228.711C126.913 228.711 127.802 229.209 128.469 229.846L127.681 230.623C127.216 230.165 126.549 229.826 125.66 229.826C124.003 229.826 122.709 231.141 122.709 232.754C122.709 234.367 124.003 235.681 125.66 235.681C126.731 235.681 127.358 235.243 127.742 234.865C128.065 234.546 128.267 234.088 128.348 233.471H125.66V232.375H129.439C129.48 232.574 129.5 232.813 129.5 233.072C129.5 233.889 129.278 234.905 128.53 235.641C127.802 236.378 126.893 236.777 125.66 236.777C123.376 236.777 121.477 234.984 121.477 232.754C121.477 230.523 123.376 228.711 125.66 228.711ZM148.397 229.029V236.717H147.245V229.029H148.397ZM159.911 229.599L162.609 236.704H161.587L160.892 234.781H157.887L157.192 236.704H156.17L158.868 229.599H159.911ZM167.827 229.599V236.546H166.955V235.893H166.915C166.753 236.13 166.53 236.328 166.226 236.486C165.922 236.645 165.597 236.704 165.253 236.704C164.604 236.704 164.057 236.467 163.611 235.972C163.165 235.477 162.942 234.883 162.942 234.171C162.942 233.478 163.165 232.884 163.611 232.37C164.077 231.875 164.604 231.637 165.253 231.637C165.617 231.637 165.942 231.717 166.226 231.855C166.53 232.014 166.753 232.192 166.915 232.449H166.955L166.915 231.796V229.599H167.827ZM170.818 231.597C171.24 231.597 171.621 231.697 171.983 231.897C172.324 232.096 172.565 232.375 172.705 232.714L171.902 233.054C171.802 232.854 171.662 232.694 171.461 232.575C171.26 232.455 171.019 232.395 170.758 232.395C170.517 232.395 170.316 232.455 170.116 232.575C169.935 232.694 169.835 232.834 169.835 233.014C169.835 233.293 170.096 233.492 170.618 233.592L171.34 233.772C172.304 234.011 172.766 234.49 172.766 235.208C172.786 235.627 172.585 235.986 172.224 236.265C171.862 236.545 171.401 236.704 170.838 236.704C170.357 236.704 169.935 236.584 169.553 236.325C169.192 236.066 168.931 235.747 168.77 235.328L169.574 234.989C169.694 235.268 169.855 235.507 170.096 235.667C170.316 235.826 170.577 235.906 170.838 235.906C171.119 235.906 171.36 235.846 171.561 235.727C171.762 235.607 171.842 235.447 171.842 235.288C171.842 234.989 171.601 234.749 171.14 234.61L170.316 234.41C169.373 234.171 168.911 233.732 168.911 233.054C168.911 232.615 169.092 232.276 169.453 231.996C169.814 231.737 170.276 231.597 170.818 231.597ZM165.395 232.469C164.949 232.469 164.584 232.627 164.3 232.944C163.996 233.26 163.854 233.676 163.854 234.171C163.854 234.666 163.996 235.081 164.3 235.398C164.604 235.715 164.969 235.873 165.395 235.873C165.84 235.893 166.205 235.734 166.489 235.418C166.793 235.101 166.935 234.685 166.935 234.171C166.935 233.676 166.793 233.26 166.489 232.944C166.205 232.627 165.84 232.469 165.395 232.469ZM132.511 232.634C131.723 232.634 131.036 233.291 131.036 234.227C131.036 235.163 131.723 235.821 132.511 235.821C133.3 235.821 133.987 235.163 133.987 234.227C133.987 233.271 133.3 232.634 132.511 232.634ZM138.211 232.634C137.423 232.634 136.735 233.291 136.735 234.227C136.735 235.163 137.423 235.821 138.211 235.821C139.019 235.821 139.686 235.163 139.686 234.227C139.686 233.271 138.999 232.634 138.211 232.634ZM143.991 232.614C143.203 232.614 142.536 233.291 142.536 234.208C142.536 235.124 143.203 235.781 143.991 235.781C144.779 235.781 145.385 235.124 145.385 234.208C145.385 233.291 144.779 232.614 143.991 232.614ZM151.509 232.614C150.923 232.614 150.074 233.132 150.115 234.148L152.499 233.172C152.378 232.833 151.974 232.614 151.509 232.614ZM159.42 230.733H159.379L158.194 233.931H160.585L159.42 230.733Z" fill="#5F6367"/>
<path d="M258.646 204.234H259.525V214.492H258.5V205.362L256.199 206.051L255.935 205.172L258.646 204.234ZM265.312 214.668C262.806 214.668 261.428 212.528 261.428 209.363C261.428 206.198 262.806 204.058 265.312 204.058C267.817 204.058 269.195 206.198 269.195 209.363C269.195 212.528 267.817 214.668 265.312 214.668ZM265.312 213.672C267.114 213.672 268.169 212.104 268.169 209.363C268.169 206.623 267.114 205.055 265.312 205.055C263.509 205.055 262.454 206.623 262.454 209.363C262.454 212.104 263.509 213.672 265.312 213.672ZM274.542 214.668C272.036 214.668 270.659 212.528 270.659 209.363C270.659 206.198 272.036 204.058 274.542 204.058C277.048 204.058 278.426 206.198 278.426 209.363C278.426 212.528 277.048 214.668 274.542 214.668ZM274.542 213.672C276.345 213.672 277.4 212.104 277.4 209.363C277.4 206.623 276.345 205.055 274.542 205.055C272.74 205.055 271.685 206.623 271.685 209.363C271.685 212.104 272.74 213.672 274.542 213.672ZM281.992 208.455C280.702 208.455 279.75 207.473 279.75 206.256C279.75 205.04 280.702 204.058 281.992 204.058C283.281 204.058 284.234 205.04 284.234 206.256C284.234 207.473 283.311 208.455 281.992 208.455ZM281.992 207.575C282.768 207.575 283.296 206.989 283.296 206.256C283.296 205.524 282.768 204.937 281.992 204.937C281.215 204.937 280.688 205.524 280.688 206.256C280.688 206.989 281.215 207.575 281.992 207.575ZM280.263 213.1L287.135 205.377L287.766 205.729L280.878 213.452L280.263 213.1ZM286.139 214.668C284.849 214.668 283.897 213.686 283.897 212.47C283.897 211.254 284.849 210.272 286.139 210.272C287.429 210.272 288.381 211.254 288.381 212.47C288.381 213.686 287.429 214.668 286.139 214.668ZM286.139 213.789C286.916 213.789 287.443 213.203 287.443 212.47C287.443 211.737 286.916 211.151 286.139 211.151C285.362 211.151 284.835 211.737 284.835 212.47C284.835 213.203 285.362 213.789 286.139 213.789Z" fill="#00C2FF"/>
<path d="M265.832 240.473C265.832 242.901 264.095 244.429 261.708 244.722V246.586H260.347V244.743C258.023 244.597 256.328 243.425 255.595 241.519L257.668 240.326C258.128 241.498 258.986 242.231 260.347 242.378V238.023C258.317 237.27 256.265 236.369 256.265 233.69C256.265 231.219 258.17 229.796 260.347 229.587V227.744H261.708V229.607C263.404 229.838 264.848 230.759 265.602 232.476L263.571 233.648C263.194 232.706 262.566 232.182 261.708 231.994V236.139C263.697 236.893 265.832 237.688 265.832 240.473ZM258.672 233.69C258.672 234.569 259.175 235.051 260.347 235.595V231.952C259.321 232.12 258.672 232.748 258.672 233.69ZM261.708 242.357C262.859 242.127 263.425 241.394 263.425 240.494C263.425 239.51 262.776 239.028 261.708 238.547V242.357ZM278.243 239.614V241.854H276.568V244.492H274.14V241.854H266.938V239.614L271.983 229.838H274.6L269.555 239.614H274.14V235.804H276.568V239.614H278.243ZM284.316 234.757C287.351 234.757 289.487 236.809 289.487 239.761C289.487 242.713 287.351 244.764 284.316 244.764C281.259 244.764 279.124 242.713 279.124 239.761C279.124 238.63 279.438 237.626 280.003 236.809L284.651 229.838H287.393L284.044 234.757H284.316ZM284.316 242.482C285.907 242.482 287.079 241.415 287.079 239.761C287.079 238.086 285.907 237.039 284.316 237.039C282.704 237.039 281.531 238.086 281.531 239.761C281.531 241.436 282.704 242.482 284.316 242.482Z" fill="#9591A1"/>
<path d="M397.015 211.473V212.441H395.696V214.492H394.67V212.441H389.248V211.473L393.058 204.234H394.187L390.377 211.473H394.67V208.337H395.696V211.473H397.015ZM405.659 211.473V212.441H404.34V214.492H403.314V212.441H397.892V211.473L401.702 204.234H402.831L399.02 211.473H403.314V208.337H404.34V211.473H405.659ZM408.418 208.455C407.128 208.455 406.176 207.473 406.176 206.256C406.176 205.04 407.128 204.058 408.418 204.058C409.707 204.058 410.66 205.04 410.66 206.256C410.66 207.473 409.737 208.455 408.418 208.455ZM408.418 207.575C409.195 207.575 409.722 206.989 409.722 206.256C409.722 205.524 409.195 204.937 408.418 204.937C407.641 204.937 407.114 205.524 407.114 206.256C407.114 206.989 407.641 207.575 408.418 207.575ZM406.689 213.1L413.562 205.377L414.192 205.729L407.304 213.452L406.689 213.1ZM412.565 214.668C411.276 214.668 410.323 213.686 410.323 212.47C410.323 211.254 411.276 210.272 412.565 210.272C413.855 210.272 414.807 211.254 414.807 212.47C414.807 213.686 413.855 214.668 412.565 214.668ZM412.565 213.789C413.342 213.789 413.869 213.203 413.869 212.47C413.869 211.737 413.342 211.151 412.565 211.151C411.788 211.151 411.261 211.737 411.261 212.47C411.261 213.203 411.788 213.789 412.565 213.789Z" fill="#00C2FF"/>
<path d="M396.16 240.473C396.16 242.901 394.422 244.429 392.036 244.722V246.586H390.675V244.743C388.351 244.597 386.656 243.425 385.923 241.519L387.995 240.326C388.456 241.498 389.314 242.231 390.675 242.378V238.023C388.644 237.27 386.593 236.369 386.593 233.69C386.593 231.219 388.498 229.796 390.675 229.587V227.744H392.036V229.607C393.732 229.838 395.176 230.759 395.93 232.476L393.899 233.648C393.522 232.706 392.894 232.182 392.036 231.994V236.139C394.025 236.893 396.16 237.688 396.16 240.473ZM389 233.69C389 234.569 389.503 235.051 390.675 235.595V231.952C389.649 232.12 389 232.748 389 233.69ZM392.036 242.357C393.187 242.127 393.753 241.394 393.753 240.494C393.753 239.51 393.104 239.028 392.036 238.547V242.357ZM402.542 235.365C405.2 235.365 407.524 236.997 407.524 240.054C407.524 243.131 405.096 244.764 402.395 244.764C400.176 244.764 398.187 243.739 397.413 241.624L399.485 240.431C399.862 241.729 400.867 242.42 402.395 242.42C404.028 242.42 405.117 241.519 405.117 240.054C405.117 238.589 404.028 237.709 402.437 237.709H398.166L398.731 229.838H406.896V232.099H400.951L400.699 235.365H402.542ZM408.841 244.492V242.608L413.95 237.395C414.996 236.349 415.813 235.281 415.813 234.171C415.813 232.706 414.808 231.91 413.552 231.91C412.338 231.91 411.395 232.559 410.83 233.732L408.8 232.538C409.742 230.529 411.584 229.566 413.531 229.566C415.938 229.566 418.22 231.178 418.22 234.088C418.22 235.909 417.132 237.437 415.729 238.861L412.421 242.168H418.492V244.492H408.841Z" fill="#9591A1"/>
<path d="M523.689 208.499C525.228 208.704 526.517 209.715 526.517 211.517C526.517 213.554 524.876 214.668 523.073 214.668C521.593 214.668 520.274 213.979 519.776 212.631L520.626 212.133C520.963 213.173 521.901 213.672 523.073 213.672C524.407 213.672 525.491 212.939 525.491 211.517C525.491 210.096 524.407 209.363 523.073 209.363V209.348L523.059 209.363H522.78L522.341 208.689L524.891 205.201H520.069V204.234H526.078V205.201L523.689 208.499ZM530.991 207.898C532.984 207.898 534.435 209.275 534.435 211.283C534.435 213.291 532.984 214.668 530.991 214.668C528.998 214.668 527.547 213.291 527.547 211.283C527.547 210.477 527.781 209.788 528.177 209.231L531.533 204.234H532.691L530.17 207.986C530.434 207.927 530.712 207.898 530.991 207.898ZM530.991 213.672C532.442 213.672 533.409 212.719 533.409 211.283C533.409 209.847 532.442 208.894 530.991 208.894C529.54 208.894 528.573 209.847 528.573 211.283C528.573 212.719 529.54 213.672 530.991 213.672ZM537.556 208.455C536.266 208.455 535.314 207.473 535.314 206.256C535.314 205.04 536.266 204.058 537.556 204.058C538.846 204.058 539.798 205.04 539.798 206.256C539.798 207.473 538.875 208.455 537.556 208.455ZM537.556 207.575C538.333 207.575 538.86 206.989 538.86 206.256C538.86 205.524 538.333 204.937 537.556 204.937C536.779 204.937 536.252 205.524 536.252 206.256C536.252 206.989 536.779 207.575 537.556 207.575ZM535.827 213.1L542.7 205.377L543.33 205.729L536.442 213.452L535.827 213.1ZM541.703 214.668C540.414 214.668 539.461 213.686 539.461 212.47C539.461 211.254 540.414 210.272 541.703 210.272C542.993 210.272 543.945 211.254 543.945 212.47C543.945 213.686 542.993 214.668 541.703 214.668ZM541.703 213.789C542.48 213.789 543.007 213.203 543.007 212.47C543.007 211.737 542.48 211.151 541.703 211.151C540.927 211.151 540.399 211.737 540.399 212.47C540.399 213.203 540.927 213.789 541.703 213.789Z" fill="#00C2FF"/>
<path d="M525.425 240.473C525.425 242.901 523.687 244.429 521.301 244.722V246.586H519.94V244.743C517.616 244.597 515.92 243.425 515.188 241.519L517.26 240.326C517.721 241.498 518.579 242.231 519.94 242.378V238.023C517.909 237.27 515.858 236.369 515.858 233.69C515.858 231.219 517.763 229.796 519.94 229.587V227.744H521.301V229.607C522.996 229.838 524.441 230.759 525.195 232.476L523.164 233.648C522.787 232.706 522.159 232.182 521.301 231.994V236.139C523.29 236.893 525.425 237.688 525.425 240.473ZM518.265 233.69C518.265 234.569 518.768 235.051 519.94 235.595V231.952C518.914 232.12 518.265 232.748 518.265 233.69ZM521.301 242.357C522.452 242.127 523.017 241.394 523.017 240.494C523.017 239.51 522.368 239.028 521.301 238.547V242.357ZM537.836 239.614V241.854H536.161V244.492H533.732V241.854H526.531V239.614L531.576 229.838H534.193L529.148 239.614H533.732V235.804H536.161V239.614H537.836ZM543.908 234.757C546.944 234.757 549.079 236.809 549.079 239.761C549.079 242.713 546.944 244.764 543.908 244.764C540.852 244.764 538.717 242.713 538.717 239.761C538.717 238.63 539.031 237.626 539.596 236.809L544.243 229.838H546.986L543.636 234.757H543.908ZM543.908 242.482C545.5 242.482 546.672 241.415 546.672 239.761C546.672 238.086 545.5 237.039 543.908 237.039C542.297 237.039 541.124 238.086 541.124 239.761C541.124 241.436 542.297 242.482 543.908 242.482Z" fill="#9591A1"/>
<path d="M653.531 204.234H654.41V214.492H653.384V205.362L651.084 206.051L650.82 205.172L653.531 204.234ZM655.873 204.234H662.175V205.201L658.306 214.492H657.236L661.105 205.201H655.873V204.234ZM665.886 208.455C664.596 208.455 663.644 207.473 663.644 206.256C663.644 205.04 664.596 204.058 665.886 204.058C667.175 204.058 668.128 205.04 668.128 206.256C668.128 207.473 667.205 208.455 665.886 208.455ZM665.886 207.575C666.662 207.575 667.19 206.989 667.19 206.256C667.19 205.524 666.662 204.937 665.886 204.937C665.109 204.937 664.582 205.524 664.582 206.256C664.582 206.989 665.109 207.575 665.886 207.575ZM664.157 213.1L671.029 205.377L671.66 205.729L664.772 213.452L664.157 213.1ZM670.033 214.668C668.743 214.668 667.791 213.686 667.791 212.47C667.791 211.254 668.743 210.272 670.033 210.272C671.323 210.272 672.275 211.254 672.275 212.47C672.275 213.686 671.323 214.668 670.033 214.668ZM670.033 213.789C670.81 213.789 671.337 213.203 671.337 212.47C671.337 211.737 670.81 211.151 670.033 211.151C669.256 211.151 668.729 211.737 668.729 212.47C668.729 213.203 669.256 213.789 670.033 213.789Z" fill="#00C2FF"/>
<path d="M655.426 240.473C655.426 242.901 653.688 244.429 651.302 244.722V246.586H649.941V244.743C647.617 244.597 645.922 243.425 645.189 241.519L647.261 240.326C647.722 241.498 648.58 242.231 649.941 242.378V238.023C647.91 237.27 645.859 236.369 645.859 233.69C645.859 231.219 647.764 229.796 649.941 229.587V227.744H651.302V229.607C652.998 229.838 654.442 230.759 655.196 232.476L653.165 233.648C652.788 232.706 652.16 232.182 651.302 231.994V236.139C653.291 236.893 655.426 237.688 655.426 240.473ZM648.266 233.69C648.266 234.569 648.769 235.051 649.941 235.595V231.952C648.915 232.12 648.266 232.748 648.266 233.69ZM651.302 242.357C652.453 242.127 653.018 241.394 653.018 240.494C653.018 239.51 652.37 239.028 651.302 238.547V242.357ZM664.906 236.872C666.267 237.626 667.062 238.882 667.062 240.431C667.062 243.152 664.99 244.764 661.933 244.764C658.877 244.764 656.783 243.152 656.783 240.431C656.783 238.903 657.6 237.626 658.939 236.872C657.956 236.223 657.286 235.176 657.286 233.774C657.286 230.947 659.484 229.566 661.933 229.566C664.362 229.566 666.581 230.947 666.581 233.774C666.581 235.176 665.911 236.223 664.906 236.872ZM661.933 231.847C660.698 231.847 659.693 232.517 659.693 233.878C659.693 235.176 660.698 235.909 661.933 235.909C663.147 235.909 664.173 235.176 664.173 233.878C664.173 232.517 663.147 231.847 661.933 231.847ZM661.933 242.482C663.503 242.482 664.655 241.687 664.655 240.201C664.655 238.693 663.503 237.919 661.933 237.919C660.342 237.919 659.191 238.693 659.191 240.201C659.191 241.687 660.342 242.482 661.933 242.482ZM673.543 235.365C676.201 235.365 678.525 236.997 678.525 240.054C678.525 243.131 676.097 244.764 673.396 244.764C671.177 244.764 669.188 243.739 668.414 241.624L670.486 240.431C670.863 241.729 671.868 242.42 673.396 242.42C675.029 242.42 676.118 241.519 676.118 240.054C676.118 238.589 675.029 237.709 673.438 237.709H669.167L669.732 229.838H677.897V232.099H671.952L671.7 235.365H673.543Z" fill="#9591A1"/>
<rect x="72" y="279.992" width="670" height="111" rx="12.5609" fill="#F7F7F7"/>
<path fill-rule="evenodd" clip-rule="evenodd" d="M128.522 330.782C130.186 330.782 131.472 331.625 132.155 332.845C132.2 332.923 132.187 332.988 132.109 333.027L130.965 333.591C130.887 333.63 130.79 333.63 130.738 333.533C130.257 332.702 129.536 332.261 128.47 332.261H128.275C126.605 332.261 125.455 333.585 125.455 335.505C125.455 337.432 126.585 338.723 128.275 338.723H128.47C129.562 338.723 130.198 338.353 130.686 337.789C130.751 337.718 130.822 337.705 130.9 337.744L132.077 338.315C132.122 338.34 132.141 338.373 132.141 338.405C132.141 338.438 132.128 338.464 132.103 338.503C131.381 339.554 130.082 340.203 128.496 340.203H128.301C125.604 340.203 123.817 338.353 123.817 335.57C123.817 332.754 125.676 330.782 128.327 330.782H128.522ZM161.852 330.782C164.711 330.782 166.53 332.754 166.53 335.492C166.53 338.23 164.711 340.203 161.852 340.203H161.656C158.797 340.203 156.978 338.23 156.978 335.492C156.978 332.754 158.797 330.782 161.656 330.782H161.852ZM174.042 330.782C176.902 330.782 178.721 332.754 178.721 335.492C178.721 338.23 176.902 340.203 174.042 340.203H173.847C170.988 340.203 169.168 338.23 169.168 335.492C169.168 332.754 170.988 330.782 173.847 330.782H174.042ZM110.886 330.951C110.964 330.951 111.016 331.002 111.016 331.08V332.274C111.016 332.352 110.964 332.404 110.886 332.404H105.752V334.843H109.989C110.067 334.843 110.119 334.895 110.119 334.973V336.167C110.119 336.245 110.067 336.297 109.989 336.297H105.752V339.904C105.752 339.982 105.7 340.034 105.622 340.034H104.335C104.257 340.034 104.205 339.982 104.205 339.904V331.08C104.205 331.002 104.257 330.951 104.335 330.951H110.886ZM118.027 330.951C118.151 330.951 118.222 330.996 118.281 331.119C119.554 333.799 120.783 336.998 121.608 339.891C121.634 339.982 121.582 340.034 121.491 340.034H120.074C119.996 340.034 119.944 339.995 119.925 339.917C119.736 339.171 119.509 338.386 119.249 337.594H114.901C114.642 338.386 114.414 339.171 114.232 339.917C114.213 339.995 114.161 340.034 114.083 340.034H112.718C112.627 340.034 112.575 339.982 112.601 339.891C113.42 336.998 114.668 333.805 115.928 331.119C115.987 330.996 116.058 330.951 116.182 330.951H118.027ZM142.259 330.951C142.337 330.951 142.389 331.002 142.389 331.08V332.274C142.389 332.352 142.337 332.404 142.259 332.404H136.97V334.765H141.271C141.349 334.765 141.402 334.817 141.402 334.895V336.076C141.402 336.154 141.349 336.206 141.271 336.206H136.97V338.581H142.376C142.454 338.581 142.506 338.632 142.506 338.71V339.904C142.506 339.982 142.454 340.034 142.376 340.034H135.553C135.475 340.034 135.423 339.982 135.423 339.904V331.08C135.423 331.002 135.475 330.951 135.553 330.951H142.259ZM150.48 330.951C152.579 330.951 153.722 331.781 153.722 333.299C153.722 334.298 153.215 334.954 152.189 335.259C153.631 335.564 154.255 336.426 154.255 337.542C154.255 339.132 153.033 340.034 150.876 340.034H146.405C146.327 340.034 146.275 339.982 146.275 339.904V331.08C146.275 331.002 146.327 330.951 146.405 330.951H150.48ZM183.393 330.951C183.471 330.951 183.523 331.002 183.523 331.08V334.662H184.29C185.557 333.52 186.727 332.287 187.682 331.048C187.747 330.963 187.799 330.951 187.877 330.951H189.463C189.541 330.951 189.58 330.989 189.58 331.041C189.58 331.067 189.566 331.1 189.534 331.139C188.137 332.858 186.752 334.266 185.473 335.356C187.084 336.718 188.611 338.237 190.002 339.872C190.073 339.956 190.035 340.034 189.93 340.034H188.254C188.144 340.034 188.098 340.008 188.026 339.924C186.85 338.542 185.46 337.166 184.277 336.154H183.523V339.904C183.523 339.982 183.471 340.034 183.393 340.034H182.106C182.028 340.034 181.977 339.982 181.977 339.904V331.08C181.977 331.002 182.028 330.951 182.106 330.951H183.393ZM161.852 332.261H161.656C159.791 332.261 158.615 333.539 158.615 335.492C158.615 337.445 159.791 338.723 161.656 338.723H161.852C163.716 338.723 164.893 337.445 164.893 335.492C164.893 333.539 163.716 332.261 161.852 332.261ZM174.042 332.261H173.847C171.982 332.261 170.806 333.539 170.806 335.492C170.806 337.445 171.982 338.723 173.847 338.723H174.042C175.907 338.723 177.083 337.445 177.083 335.492C177.083 333.539 175.907 332.261 174.042 332.261ZM150.882 336.18H147.822V338.619H150.882C152.13 338.619 152.67 338.256 152.67 337.406C152.67 336.563 152.111 336.18 150.882 336.18ZM117.228 332.378H116.922C116.383 333.572 115.85 334.882 115.376 336.193H118.768C118.294 334.882 117.767 333.572 117.228 332.378ZM150.447 332.365H147.822V334.804H150.447C151.623 334.804 152.163 334.422 152.163 333.585C152.163 332.748 151.623 332.365 150.447 332.365Z" fill="#64747F"/>
<path d="M258.646 315.234H259.525V325.492H258.5V316.362L256.199 317.051L255.935 316.172L258.646 315.234ZM265.312 325.668C262.806 325.668 261.428 323.528 261.428 320.363C261.428 317.198 262.806 315.058 265.312 315.058C267.817 315.058 269.195 317.198 269.195 320.363C269.195 323.528 267.817 325.668 265.312 325.668ZM265.312 324.672C267.114 324.672 268.169 323.104 268.169 320.363C268.169 317.623 267.114 316.055 265.312 316.055C263.509 316.055 262.454 317.623 262.454 320.363C262.454 323.104 263.509 324.672 265.312 324.672ZM274.542 325.668C272.036 325.668 270.659 323.528 270.659 320.363C270.659 317.198 272.036 315.058 274.542 315.058C277.048 315.058 278.426 317.198 278.426 320.363C278.426 323.528 277.048 325.668 274.542 325.668ZM274.542 324.672C276.345 324.672 277.4 323.104 277.4 320.363C277.4 317.623 276.345 316.055 274.542 316.055C272.74 316.055 271.685 317.623 271.685 320.363C271.685 323.104 272.74 324.672 274.542 324.672ZM281.992 319.455C280.702 319.455 279.75 318.473 279.75 317.256C279.75 316.04 280.702 315.058 281.992 315.058C283.281 315.058 284.234 316.04 284.234 317.256C284.234 318.473 283.311 319.455 281.992 319.455ZM281.992 318.575C282.768 318.575 283.296 317.989 283.296 317.256C283.296 316.524 282.768 315.937 281.992 315.937C281.215 315.937 280.688 316.524 280.688 317.256C280.688 317.989 281.215 318.575 281.992 318.575ZM280.263 324.1L287.135 316.377L287.766 316.729L280.878 324.452L280.263 324.1ZM286.139 325.668C284.849 325.668 283.897 324.686 283.897 323.47C283.897 322.254 284.849 321.272 286.139 321.272C287.429 321.272 288.381 322.254 288.381 323.47C288.381 324.686 287.429 325.668 286.139 325.668ZM286.139 324.789C286.916 324.789 287.443 324.203 287.443 323.47C287.443 322.737 286.916 322.151 286.139 322.151C285.362 322.151 284.835 322.737 284.835 323.47C284.835 324.203 285.362 324.789 286.139 324.789Z" fill="#00C2FF"/>
<path d="M266.037 351.473C266.037 353.901 264.299 355.429 261.912 355.722V357.586H260.552V355.743C258.228 355.597 256.532 354.425 255.799 352.519L257.872 351.326C258.333 352.498 259.191 353.231 260.552 353.378V349.023C258.521 348.27 256.469 347.369 256.469 344.69C256.469 342.219 258.374 340.796 260.552 340.587V338.744H261.912V340.607C263.608 340.838 265.053 341.759 265.806 343.476L263.776 344.648C263.399 343.706 262.771 343.182 261.912 342.994V347.139C263.901 347.893 266.037 348.688 266.037 351.473ZM258.877 344.69C258.877 345.569 259.379 346.051 260.552 346.595V342.952C259.526 343.12 258.877 343.748 258.877 344.69ZM261.912 353.357C263.064 353.127 263.629 352.394 263.629 351.494C263.629 350.51 262.98 350.028 261.912 349.547V353.357ZM275.517 347.872C276.877 348.626 277.673 349.882 277.673 351.431C277.673 354.152 275.6 355.764 272.544 355.764C269.487 355.764 267.394 354.152 267.394 351.431C267.394 349.903 268.21 348.626 269.55 347.872C268.566 347.223 267.896 346.176 267.896 344.774C267.896 341.947 270.094 340.566 272.544 340.566C274.972 340.566 277.191 341.947 277.191 344.774C277.191 346.176 276.521 347.223 275.517 347.872ZM272.544 342.847C271.309 342.847 270.304 343.517 270.304 344.878C270.304 346.176 271.309 346.909 272.544 346.909C273.758 346.909 274.784 346.176 274.784 344.878C274.784 343.517 273.758 342.847 272.544 342.847ZM272.544 353.482C274.114 353.482 275.265 352.687 275.265 351.201C275.265 349.693 274.114 348.919 272.544 348.919C270.953 348.919 269.801 349.693 269.801 351.201C269.801 352.687 270.953 353.482 272.544 353.482ZM284.111 345.757C287.147 345.757 289.282 347.809 289.282 350.761C289.282 353.713 287.147 355.764 284.111 355.764C281.055 355.764 278.919 353.713 278.919 350.761C278.919 349.63 279.233 348.626 279.799 347.809L284.446 340.838H287.189L283.839 345.757H284.111ZM284.111 353.482C285.702 353.482 286.875 352.415 286.875 350.761C286.875 349.086 285.702 348.039 284.111 348.039C282.499 348.039 281.327 349.086 281.327 350.761C281.327 352.436 282.499 353.482 284.111 353.482Z" fill="#9591A1"/>
<path d="M389.905 315.234H396.206V316.201L392.337 325.492H391.268L395.136 316.201H389.905V315.234ZM404.123 318.443C404.123 319.249 403.889 319.938 403.493 320.495L400.137 325.492H398.979L401.5 321.741C401.236 321.799 400.958 321.829 400.679 321.829C398.686 321.829 397.235 320.451 397.235 318.443C397.235 316.436 398.686 315.058 400.679 315.058C402.672 315.058 404.123 316.436 404.123 318.443ZM398.261 318.443C398.261 319.88 399.228 320.832 400.679 320.832C402.13 320.832 403.097 319.88 403.097 318.443C403.097 317.007 402.13 316.055 400.679 316.055C399.228 316.055 398.261 317.007 398.261 318.443ZM407.688 319.455C406.398 319.455 405.446 318.473 405.446 317.256C405.446 316.04 406.398 315.058 407.688 315.058C408.978 315.058 409.93 316.04 409.93 317.256C409.93 318.473 409.007 319.455 407.688 319.455ZM407.688 318.575C408.465 318.575 408.992 317.989 408.992 317.256C408.992 316.524 408.465 315.937 407.688 315.937C406.911 315.937 406.384 316.524 406.384 317.256C406.384 317.989 406.911 318.575 407.688 318.575ZM405.959 324.1L412.832 316.377L413.462 316.729L406.574 324.452L405.959 324.1ZM411.835 325.668C410.546 325.668 409.593 324.686 409.593 323.47C409.593 322.254 410.546 321.272 411.835 321.272C413.125 321.272 414.077 322.254 414.077 323.47C414.077 324.686 413.125 325.668 411.835 325.668ZM411.835 324.789C412.612 324.789 413.139 324.203 413.139 323.47C413.139 322.737 412.612 322.151 411.835 322.151C411.059 322.151 410.531 322.737 410.531 323.47C410.531 324.203 411.059 324.789 411.835 324.789Z" fill="#00C2FF"/>
<path d="M396.048 351.473C396.048 353.901 394.31 355.429 391.923 355.722V357.586H390.563V355.743C388.239 355.597 386.543 354.425 385.81 352.519L387.883 351.326C388.344 352.498 389.202 353.231 390.563 353.378V349.023C388.532 348.27 386.48 347.369 386.48 344.69C386.48 342.219 388.385 340.796 390.563 340.587V338.744H391.923V340.607C393.619 340.838 395.064 341.759 395.817 343.476L393.787 344.648C393.41 343.706 392.782 343.182 391.923 342.994V347.139C393.912 347.893 396.048 348.688 396.048 351.473ZM388.888 344.69C388.888 345.569 389.39 346.051 390.563 346.595V342.952C389.537 343.12 388.888 343.748 388.888 344.69ZM391.923 353.357C393.075 353.127 393.64 352.394 393.64 351.494C393.64 350.51 392.991 350.028 391.923 349.547V353.357ZM402.429 346.365C405.088 346.365 407.412 347.997 407.412 351.054C407.412 354.131 404.983 355.764 402.283 355.764C400.064 355.764 398.075 354.739 397.3 352.624L399.373 351.431C399.75 352.729 400.754 353.42 402.283 353.42C403.916 353.42 405.004 352.519 405.004 351.054C405.004 349.589 403.916 348.709 402.325 348.709H398.054L398.619 340.838H406.784V343.099H400.838L400.587 346.365H402.429ZM415.072 346.825C417.082 347.307 418.652 348.772 418.652 351.054C418.652 354.131 416.224 355.764 413.523 355.764C411.367 355.764 409.42 354.78 408.603 352.729L410.655 351.535C411.074 352.771 412.058 353.42 413.523 353.42C415.177 353.42 416.245 352.519 416.245 351.054C416.245 349.589 415.177 348.709 413.523 348.709H412.979L412.016 347.265L415.177 343.099H409.043V340.838H418.045V342.889L415.072 346.825Z" fill="#9591A1"/>
<path d="M523.455 315.234H524.334V325.492H523.309V316.362L521.008 317.051L520.744 316.172L523.455 315.234ZM531.249 320.202C532.26 320.671 532.949 321.565 532.949 322.708C532.949 324.642 531.381 325.668 529.52 325.668C527.659 325.668 526.091 324.642 526.091 322.708C526.091 321.565 526.779 320.671 527.791 320.202C526.999 319.748 526.428 318.956 526.428 317.901C526.428 315.952 527.996 315.058 529.52 315.058C531.044 315.058 532.612 315.952 532.612 317.901C532.612 318.956 532.04 319.748 531.249 320.202ZM529.52 316.055C528.465 316.055 527.454 316.568 527.454 317.901C527.454 319.147 528.465 319.748 529.52 319.748C530.575 319.748 531.586 319.147 531.586 317.901C531.586 316.568 530.575 316.055 529.52 316.055ZM529.52 324.672C530.912 324.672 531.923 324.027 531.923 322.708C531.923 321.389 530.912 320.744 529.52 320.744C528.128 320.744 527.117 321.389 527.117 322.708C527.117 324.027 528.128 324.672 529.52 324.672ZM536.368 319.455C535.079 319.455 534.126 318.473 534.126 317.256C534.126 316.04 535.079 315.058 536.368 315.058C537.658 315.058 538.61 316.04 538.61 317.256C538.61 318.473 537.687 319.455 536.368 319.455ZM536.368 318.575C537.145 318.575 537.672 317.989 537.672 317.256C537.672 316.524 537.145 315.937 536.368 315.937C535.591 315.937 535.064 316.524 535.064 317.256C535.064 317.989 535.591 318.575 536.368 318.575ZM534.639 324.1L541.512 316.377L542.142 316.729L535.254 324.452L534.639 324.1ZM540.515 325.668C539.226 325.668 538.273 324.686 538.273 323.47C538.273 322.254 539.226 321.272 540.515 321.272C541.805 321.272 542.758 322.254 542.758 323.47C542.758 324.686 541.805 325.668 540.515 325.668ZM540.515 324.789C541.292 324.789 541.82 324.203 541.82 323.47C541.82 322.737 541.292 322.151 540.515 322.151C539.739 322.151 539.211 322.737 539.211 323.47C539.211 324.203 539.739 324.789 540.515 324.789Z" fill="#00C2FF"/>
<path d="M526.202 351.473C526.202 353.901 524.464 355.429 522.078 355.722V357.586H520.717V355.743C518.393 355.597 516.697 354.425 515.965 352.519L518.037 351.326C518.498 352.498 519.356 353.231 520.717 353.378V349.023C518.686 348.27 516.635 347.369 516.635 344.69C516.635 342.219 518.54 340.796 520.717 340.587V338.744H522.078V340.607C523.773 340.838 525.218 341.759 525.972 343.476L523.941 344.648C523.564 343.706 522.936 343.182 522.078 342.994V347.139C524.066 347.893 526.202 348.688 526.202 351.473ZM519.042 344.69C519.042 345.569 519.545 346.051 520.717 346.595V342.952C519.691 343.12 519.042 343.748 519.042 344.69ZM522.078 353.357C523.229 353.127 523.794 352.394 523.794 351.494C523.794 350.51 523.145 350.028 522.078 349.547V353.357ZM535.682 347.872C537.043 348.626 537.838 349.882 537.838 351.431C537.838 354.152 535.765 355.764 532.709 355.764C529.652 355.764 527.559 354.152 527.559 351.431C527.559 349.903 528.375 348.626 529.715 347.872C528.731 347.223 528.061 346.176 528.061 344.774C528.061 341.947 530.26 340.566 532.709 340.566C535.137 340.566 537.357 341.947 537.357 344.774C537.357 346.176 536.687 347.223 535.682 347.872ZM532.709 342.847C531.474 342.847 530.469 343.517 530.469 344.878C530.469 346.176 531.474 346.909 532.709 346.909C533.923 346.909 534.949 346.176 534.949 344.878C534.949 343.517 533.923 342.847 532.709 342.847ZM532.709 353.482C534.279 353.482 535.431 352.687 535.431 351.201C535.431 349.693 534.279 348.919 532.709 348.919C531.118 348.919 529.967 349.693 529.967 351.201C529.967 352.687 531.118 353.482 532.709 353.482ZM538.875 340.838H548.191V342.931L543.041 355.492H540.508L545.574 343.141H538.875V340.838Z" fill="#9591A1"/>
<path d="M656.901 322.473V323.441H655.583V325.492H654.557V323.441H649.135V322.473L652.945 315.234H654.073L650.263 322.473H654.557V319.337H655.583V322.473H656.901ZM661.621 319.499C663.16 319.704 664.45 320.715 664.45 322.517C664.45 324.554 662.808 325.668 661.006 325.668C659.526 325.668 658.207 324.979 657.709 323.631L658.559 323.133C658.896 324.173 659.833 324.672 661.006 324.672C662.339 324.672 663.424 323.939 663.424 322.517C663.424 321.096 662.339 320.363 661.006 320.363V320.348L660.991 320.363H660.713L660.273 319.689L662.823 316.201H658.002V315.234H664.01V316.201L661.621 319.499ZM667.718 319.455C666.428 319.455 665.475 318.473 665.475 317.256C665.475 316.04 666.428 315.058 667.718 315.058C669.007 315.058 669.96 316.04 669.96 317.256C669.96 318.473 669.036 319.455 667.718 319.455ZM667.718 318.575C668.494 318.575 669.022 317.989 669.022 317.256C669.022 316.524 668.494 315.937 667.718 315.937C666.941 315.937 666.413 316.524 666.413 317.256C666.413 317.989 666.941 318.575 667.718 318.575ZM665.988 324.1L672.861 316.377L673.491 316.729L666.604 324.452L665.988 324.1ZM671.865 325.668C670.575 325.668 669.623 324.686 669.623 323.47C669.623 322.254 670.575 321.272 671.865 321.272C673.154 321.272 674.107 322.254 674.107 323.47C674.107 324.686 673.154 325.668 671.865 325.668ZM671.865 324.789C672.641 324.789 673.169 324.203 673.169 323.47C673.169 322.737 672.641 322.151 671.865 322.151C671.088 322.151 670.561 322.737 670.561 323.47C670.561 324.203 671.088 324.789 671.865 324.789Z" fill="#00C2FF"/>
<path d="M655.59 351.473C655.59 353.901 653.852 355.429 651.465 355.722V357.586H650.105V355.743C647.781 355.597 646.085 354.425 645.352 352.519L647.425 351.326C647.886 352.498 648.744 353.231 650.105 353.378V349.023C648.074 348.27 646.022 347.369 646.022 344.69C646.022 342.219 647.927 340.796 650.105 340.587V338.744H651.465V340.607C653.161 340.838 654.606 341.759 655.359 343.476L653.329 344.648C652.952 343.706 652.324 343.182 651.465 342.994V347.139C653.454 347.893 655.59 348.688 655.59 351.473ZM648.43 344.69C648.43 345.569 648.932 346.051 650.105 346.595V342.952C649.079 343.12 648.43 343.748 648.43 344.69ZM651.465 353.357C652.617 353.127 653.182 352.394 653.182 351.494C653.182 350.51 652.533 350.028 651.465 349.547V353.357ZM667.1 345.569C667.1 346.7 666.786 347.704 666.221 348.521L661.594 355.492H658.831L662.18 350.572H661.929C658.894 350.572 656.737 348.521 656.737 345.569C656.737 342.617 658.894 340.566 661.929 340.566C664.965 340.566 667.1 342.617 667.1 345.569ZM659.145 345.569C659.145 347.223 660.338 348.291 661.929 348.291C663.52 348.291 664.693 347.244 664.693 345.569C664.693 343.894 663.52 342.847 661.929 342.847C660.338 342.847 659.145 343.894 659.145 345.569ZM673.379 346.365C676.038 346.365 678.362 347.997 678.362 351.054C678.362 354.131 675.933 355.764 673.232 355.764C671.013 355.764 669.025 354.739 668.25 352.624L670.323 351.431C670.699 352.729 671.704 353.42 673.232 353.42C674.865 353.42 675.954 352.519 675.954 351.054C675.954 349.589 674.865 348.709 673.274 348.709H669.004L669.569 340.838H677.733V343.099H671.788L671.537 346.365H673.379Z" fill="#9591A1"/>
<rect x="72" y="390.992" width="670" height="111" rx="12.5609" fill="white"/>
<circle opacity="0.1" cx="147.436" cy="445.603" r="15.6473" fill="#514B5F"/>
<rect opacity="0.2" x="251.122" y="429.529" width="41.8698" height="8.37397" rx="4.18698" fill="#00C2FF"/>
<rect opacity="0.5" x="242.748" y="454.651" width="58.6178" height="8.37397" rx="4.18698" fill="#C6C1D2"/>
<rect opacity="0.2" x="380.918" y="429.529" width="41.8698" height="8.37397" rx="4.18698" fill="#00C2FF"/>
<rect opacity="0.5" x="372.544" y="454.651" width="58.6178" height="8.37397" rx="4.18698" fill="#C6C1D2"/>
<rect opacity="0.8" x="510.715" y="429.529" width="41.8698" height="8.37397" rx="4.18698" fill="#B2EDFF"/>
<rect opacity="0.5" x="502.341" y="454.651" width="58.6178" height="8.37397" rx="4.18698" fill="#C6C1D2"/>
<rect opacity="0.2" x="640.511" y="429.529" width="41.8698" height="8.37397" rx="4.18698" fill="#00C2FF"/>
<rect opacity="0.5" x="632.137" y="454.651" width="58.6178" height="8.37397" rx="4.18698" fill="#C6C1D2"/>
</g>
<defs>
<filter id="filter0_d_1_8140" x="0" y="0.000488281" width="814" height="584" filterUnits="userSpaceOnUse" color-interpolation-filters="sRGB">
<feFlood flood-opacity="0" result="BackgroundImageFix"/>
<feColorMatrix in="SourceAlpha" type="matrix" values="0 0 0 0 0 0 0 0 0 0 0 0 0 0 0 0 0 0 127 0" result="hardAlpha"/>
<feOffset dy="5"/>
<feGaussianBlur stdDeviation="13.5"/>
<feColorMatrix type="matrix" values="0 0 0 0 0.0968 0 0 0 0 0.08 0 0 0 0 0.2 0 0 0 0.06 0"/>
<feBlend mode="normal" in2="BackgroundImageFix" result="effect1_dropShadow_1_8140"/>
<feBlend mode="normal" in="SourceGraphic" in2="effect1_dropShadow_1_8140" result="shape"/>
</filter>
<filter id="filter1_d_1_8140" x="48" y="44.0005" width="164" height="46" filterUnits="userSpaceOnUse" color-interpolation-filters="sRGB">
<feFlood flood-opacity="0" result="BackgroundImageFix"/>
<feColorMatrix in="SourceAlpha" type="matrix" values="0 0 0 0 0 0 0 0 0 0 0 0 0 0 0 0 0 0 127 0" result="hardAlpha"/>
<feOffset dy="1"/>
<feGaussianBlur stdDeviation="1.5"/>
<feColorMatrix type="matrix" values="0 0 0 0 0 0 0 0 0 0.2015 0 0 0 0 0.3875 0 0 0 0.15 0"/>
<feBlend mode="normal" in2="BackgroundImageFix" result="effect1_dropShadow_1_8140"/>
<feBlend mode="normal" in="SourceGraphic" in2="effect1_dropShadow_1_8140" result="shape"/>
</filter>
</defs>
</svg>
