<svg width="814" height="584" viewBox="0 0 814 584" fill="none" xmlns="http://www.w3.org/2000/svg">
<g filter="url(#filter0_d_1_8282)">
<rect x="27" y="22.0005" width="760" height="530" rx="20" fill="white"/>
<rect x="51" y="46.0005" width="712" height="482" rx="12" fill="#F7F7F7"/>
<path d="M129.506 75.7276V87.3688H130.67V75.7276H129.506ZM141.089 87.3688H142.319L137.846 75.7276H136.648L132.175 87.3688H133.405L134.486 84.5084H140.008L141.089 87.3688ZM134.902 83.4108L137.247 77.1744L139.592 83.4108H134.902ZM144.978 86.2712V82.0471H150.134V80.9495H144.978V76.8252H150.549V75.7276H143.814V87.3688H150.632V86.2712H144.978ZM160.781 76.5924V75.5281C158.536 75.3618 157.289 76.5591 157.289 78.7211V79.0537H155.875V80.118H157.289V87.3688H158.387V80.118H160.781V79.0537H158.387V78.7211C158.387 77.1246 159.168 76.4593 160.781 76.5924ZM163.048 80.434V79.0537H161.951V87.3688H163.048V82.7456C163.048 80.6834 164.345 79.985 165.676 79.985V78.9206C164.612 78.9206 163.63 79.2699 163.048 80.434ZM173.828 79.0537V80.6834C173.129 79.5692 171.948 78.8541 170.468 78.8541C168.124 78.8541 166.178 80.7499 166.178 83.2112C166.178 85.6725 168.124 87.5683 170.468 87.5683C171.948 87.5683 173.129 86.8532 173.828 85.739V87.3688H174.925V79.0537H173.828ZM170.552 86.504C168.706 86.504 167.275 85.0572 167.275 83.2112C167.275 81.3653 168.706 79.9184 170.552 79.9184C172.397 79.9184 173.828 81.3653 173.828 83.2112C173.828 85.0572 172.397 86.504 170.552 86.504ZM183.103 79.0537V83.4108C183.103 85.6392 181.872 86.504 180.409 86.504C178.962 86.504 178.147 85.6392 178.147 84.1591V79.0537H177.05V84.1591C177.05 86.2379 178.28 87.5683 180.309 87.5683C181.49 87.5683 182.454 87.1193 183.103 86.0716V87.3688H184.201V79.0537H183.103ZM193.674 75.7276V80.6834C192.975 79.5692 191.794 78.8541 190.314 78.8541C187.969 78.8541 186.024 80.7499 186.024 83.2112C186.024 85.6725 187.969 87.5683 190.314 87.5683C191.794 87.5683 192.975 86.8532 193.674 85.739V87.3688H194.771V75.7276H193.674ZM190.397 86.504C188.551 86.504 187.121 85.0572 187.121 83.2112C187.121 81.3653 188.551 79.9184 190.397 79.9184C192.243 79.9184 193.674 81.3653 193.674 83.2112C193.674 85.0572 192.243 86.504 190.397 86.504ZM205.71 78.8541C204.229 78.8541 203.049 79.5692 202.35 80.6834V75.7276H201.253V87.3688H202.35V85.739C203.049 86.8532 204.229 87.5683 205.71 87.5683C208.054 87.5683 210 85.6725 210 83.2112C210 80.7499 208.054 78.8541 205.71 78.8541ZM205.626 86.504C203.78 86.504 202.35 85.0572 202.35 83.2112C202.35 81.3653 203.78 79.9184 205.626 79.9184C207.472 79.9184 208.903 81.3653 208.903 83.2112C208.903 85.0572 207.472 86.504 205.626 86.504ZM212.923 80.434V79.0537H211.825V87.3688H212.923V82.7456C212.923 80.6834 214.22 79.985 215.55 79.985V78.9206C214.486 78.9206 213.505 79.2699 212.923 80.434ZM220.393 78.8541C217.815 78.8541 216.052 80.7666 216.052 83.2112C216.052 85.7224 217.848 87.5683 220.476 87.5683C222.155 87.5683 223.436 86.7867 224.134 85.6559L223.17 85.0904C222.721 85.8887 221.806 86.504 220.492 86.504C218.73 86.504 217.416 85.4563 217.183 83.76H224.484C224.5 83.5937 224.517 83.4108 224.517 83.2445C224.517 80.9661 222.937 78.8541 220.393 78.8541ZM220.393 79.9184C221.823 79.9184 223.153 80.8664 223.386 82.6957H217.183C217.399 81.0659 218.647 79.9184 220.393 79.9184ZM233.414 79.0537V80.6834C232.715 79.5692 231.535 78.8541 230.055 78.8541C227.71 78.8541 225.764 80.7499 225.764 83.2112C225.764 85.6725 227.71 87.5683 230.055 87.5683C231.535 87.5683 232.715 86.8532 233.414 85.739V87.3688H234.511V79.0537H233.414ZM230.138 86.504C228.292 86.504 226.862 85.0572 226.862 83.2112C226.862 81.3653 228.292 79.9184 230.138 79.9184C231.984 79.9184 233.414 81.3653 233.414 83.2112C233.414 85.0572 231.984 86.504 230.138 86.504ZM243.554 87.3688L239.097 83.0449L243.388 79.0537H241.891L237.933 82.7289V75.7276H236.835V87.3688H237.933V83.3609L242.091 87.3688H243.554ZM251.376 75.7276V80.6834C250.677 79.5692 249.497 78.8541 248.017 78.8541C245.672 78.8541 243.726 80.7499 243.726 83.2112C243.726 85.6725 245.672 87.5683 248.017 87.5683C249.497 87.5683 250.677 86.8532 251.376 85.739V87.3688H252.473V75.7276H251.376ZM248.1 86.504C246.254 86.504 244.824 85.0572 244.824 83.2112C244.824 81.3653 246.254 79.9184 248.1 79.9184C249.946 79.9184 251.376 81.3653 251.376 83.2112C251.376 85.0572 249.946 86.504 248.1 86.504ZM258.672 87.5683C261.1 87.5683 263.046 85.6725 263.046 83.2112C263.046 80.7499 261.1 78.8541 258.672 78.8541C256.244 78.8541 254.298 80.7499 254.298 83.2112C254.298 85.6725 256.244 87.5683 258.672 87.5683ZM258.672 86.504C256.826 86.504 255.396 85.0572 255.396 83.2112C255.396 81.3653 256.826 79.9184 258.672 79.9184C260.518 79.9184 261.948 81.3653 261.948 83.2112C261.948 85.0572 260.518 86.504 258.672 86.504ZM274.569 79.0537L272.524 85.9552L270.345 79.0537H269.248L267.069 85.9552L265.024 79.0537H263.893L266.454 87.3688H267.651L269.796 80.6668L271.942 87.3688H273.139L275.7 79.0537H274.569ZM281.247 78.8541C280.066 78.8541 279.102 79.3031 278.453 80.3508V79.0537H277.355V87.3688H278.453V83.0117C278.453 80.7832 279.684 79.9184 281.147 79.9184C282.594 79.9184 283.409 80.7832 283.409 82.2633V87.3688H284.506V82.2633C284.506 80.1845 283.276 78.8541 281.247 78.8541ZM294.661 87.5683C296.291 87.5683 297.704 86.7202 298.386 85.4064L297.472 84.8742C296.939 85.8388 295.925 86.504 294.661 86.504C292.815 86.504 291.385 85.0572 291.385 83.2112C291.385 81.3653 292.815 79.9184 294.661 79.9184C295.908 79.9184 296.956 80.567 297.405 81.5482L298.303 81.0327C297.704 79.7189 296.307 78.8541 294.661 78.8541C292.15 78.8541 290.287 80.7499 290.287 83.2112C290.287 85.6725 292.15 87.5683 294.661 87.5683ZM303.854 78.8541C302.673 78.8541 301.708 79.3031 301.06 80.3508V75.7276H299.962V87.3688H301.06V83.0117C301.06 80.7832 302.29 79.9184 303.754 79.9184C305.201 79.9184 306.015 80.7832 306.015 82.2633V87.3688H307.113V82.2633C307.113 80.1845 305.882 78.8541 303.854 78.8541ZM316.386 79.0537V80.6834C315.688 79.5692 314.507 78.8541 313.027 78.8541C310.682 78.8541 308.736 80.7499 308.736 83.2112C308.736 85.6725 310.682 87.5683 313.027 87.5683C314.507 87.5683 315.688 86.8532 316.386 85.739V87.3688H317.484V79.0537H316.386ZM313.11 86.504C311.264 86.504 309.834 85.0572 309.834 83.2112C309.834 81.3653 311.264 79.9184 313.11 79.9184C314.956 79.9184 316.386 81.3653 316.386 83.2112C316.386 85.0572 314.956 86.504 313.11 86.504ZM320.905 80.434V79.0537H319.808V87.3688H320.905V82.7456C320.905 80.6834 322.203 79.985 323.533 79.985V78.9206C322.469 78.9206 321.488 79.2699 320.905 80.434ZM329.607 80.118V79.0537H327.212V76.7254L326.114 77.058V79.0537H324.368V80.118H326.114V85.157C326.114 87.1526 327.362 87.7014 329.607 87.3688V86.4042C327.994 86.4707 327.212 86.5872 327.212 85.157V80.118H329.607Z" fill="#9591A1"/>
<rect x="67" y="67.3688" width="680" height="67" rx="12" fill="white"/>
<path d="M293.748 103.757H298.468V105.869H291.54V94.6688H298.388V96.7808H293.748V99.1648H297.988V101.245H293.748V103.757ZM301.832 100.141C301.832 101.325 305.96 100.589 305.96 103.533C305.96 105.261 304.456 106.093 302.744 106.093C301.144 106.093 299.96 105.421 299.384 104.189L301.176 103.181C301.4 103.837 301.944 104.221 302.744 104.221C303.4 104.221 303.848 103.997 303.848 103.533C303.848 102.365 299.72 103.005 299.72 100.189C299.72 98.5568 301.112 97.6448 302.76 97.6448C304.056 97.6448 305.176 98.2368 305.8 99.3408L304.04 100.301C303.8 99.7888 303.352 99.4848 302.76 99.4848C302.248 99.4848 301.832 99.7088 301.832 100.141ZM311.629 99.8528H309.821V103.181C309.821 104.045 310.445 104.061 311.629 103.997V105.869C308.733 106.189 307.757 105.341 307.757 103.181V99.8528H306.365V97.8688H307.757V96.2528L309.821 95.6288V97.8688H311.629V99.8528ZM314.109 96.9088C313.421 96.9088 312.845 96.3328 312.845 95.6448C312.845 94.9568 313.421 94.3648 314.109 94.3648C314.813 94.3648 315.389 94.9568 315.389 95.6448C315.389 96.3328 314.813 96.9088 314.109 96.9088ZM313.085 105.869V97.8688H315.149V105.869H313.085ZM325.886 97.6448C327.71 97.6448 328.91 98.9408 328.91 100.941V105.869H326.846V101.085C326.846 100.141 326.366 99.5648 325.502 99.5648C324.59 99.5648 324.014 100.173 324.014 101.373V105.869H321.95V101.085C321.95 100.141 321.47 99.5648 320.606 99.5648C319.726 99.5648 319.102 100.173 319.102 101.373V105.869H317.038V97.8688H319.102V98.7168C319.55 98.0448 320.302 97.6448 321.326 97.6448C322.318 97.6448 323.054 98.0608 323.502 98.7968C323.998 98.0768 324.798 97.6448 325.886 97.6448ZM336.743 97.8688H338.807V105.869H336.743V104.925C336.167 105.645 335.303 106.093 334.135 106.093C332.007 106.093 330.247 104.253 330.247 101.869C330.247 99.4848 332.007 97.6448 334.135 97.6448C335.303 97.6448 336.167 98.0928 336.743 98.8128V97.8688ZM334.519 104.125C335.799 104.125 336.743 103.213 336.743 101.869C336.743 100.525 335.799 99.6128 334.519 99.6128C333.255 99.6128 332.311 100.525 332.311 101.869C332.311 103.213 333.255 104.125 334.519 104.125ZM345.254 99.8528H343.446V103.181C343.446 104.045 344.07 104.061 345.254 103.997V105.869C342.358 106.189 341.382 105.341 341.382 103.181V99.8528H339.99V97.8688H341.382V96.2528L343.446 95.6288V97.8688H345.254V99.8528ZM348.204 102.717C348.492 103.773 349.372 104.221 350.46 104.221C351.26 104.221 351.9 103.885 352.252 103.421L353.916 104.381C353.164 105.469 351.964 106.093 350.428 106.093C347.74 106.093 346.044 104.253 346.044 101.869C346.044 99.4848 347.756 97.6448 350.268 97.6448C352.636 97.6448 354.316 99.5168 354.316 101.869C354.316 102.173 354.284 102.445 354.236 102.717H348.204ZM348.172 101.117H352.252C351.996 99.9648 351.132 99.5008 350.268 99.5008C349.164 99.5008 348.412 100.093 348.172 101.117ZM361.758 94.6688H363.822V105.869H361.758V104.925C361.182 105.661 360.334 106.093 359.166 106.093C357.022 106.093 355.262 104.253 355.262 101.869C355.262 99.4848 357.022 97.6448 359.166 97.6448C360.334 97.6448 361.182 98.0768 361.758 98.8128V94.6688ZM359.55 104.125C360.814 104.125 361.758 103.213 361.758 101.869C361.758 100.525 360.814 99.6128 359.55 99.6128C358.27 99.6128 357.326 100.525 357.326 101.869C357.326 103.213 358.27 104.125 359.55 104.125ZM371.614 100.141C371.614 101.325 375.742 100.589 375.742 103.533C375.742 105.261 374.238 106.093 372.526 106.093C370.926 106.093 369.742 105.421 369.166 104.189L370.958 103.181C371.182 103.837 371.726 104.221 372.526 104.221C373.182 104.221 373.63 103.997 373.63 103.533C373.63 102.365 369.502 103.005 369.502 100.189C369.502 98.5568 370.894 97.6448 372.542 97.6448C373.838 97.6448 374.958 98.2368 375.582 99.3408L373.822 100.301C373.582 99.7888 373.134 99.4848 372.542 99.4848C372.03 99.4848 371.614 99.7088 371.614 100.141ZM383.04 97.8688H385.104V105.869H383.04V104.925C382.464 105.645 381.6 106.093 380.432 106.093C378.304 106.093 376.544 104.253 376.544 101.869C376.544 99.4848 378.304 97.6448 380.432 97.6448C381.6 97.6448 382.464 98.0928 383.04 98.8128V97.8688ZM380.816 104.125C382.096 104.125 383.04 103.213 383.04 101.869C383.04 100.525 382.096 99.6128 380.816 99.6128C379.552 99.6128 378.608 100.525 378.608 101.869C378.608 103.213 379.552 104.125 380.816 104.125ZM392.239 97.8688H394.511L391.471 105.869H389.119L386.079 97.8688H388.351L390.287 103.469L392.239 97.8688ZM396.531 96.9088C395.843 96.9088 395.267 96.3328 395.267 95.6448C395.267 94.9568 395.843 94.3648 396.531 94.3648C397.235 94.3648 397.811 94.9568 397.811 95.6448C397.811 96.3328 397.235 96.9088 396.531 96.9088ZM395.507 105.869V97.8688H397.571V105.869H395.507ZM403.908 97.6448C405.604 97.6448 406.932 98.8288 406.932 100.957V105.869H404.868V101.213C404.868 100.125 404.212 99.5648 403.284 99.5648C402.276 99.5648 401.524 100.157 401.524 101.549V105.869H399.46V97.8688H401.524V98.7648C402.004 98.0448 402.836 97.6448 403.908 97.6448ZM414.822 97.8688H416.838V105.485C416.838 108.109 414.774 109.293 412.662 109.293C410.95 109.293 409.574 108.637 408.87 107.341L410.63 106.333C410.966 106.957 411.494 107.453 412.726 107.453C414.022 107.453 414.822 106.749 414.822 105.485V104.621C414.262 105.373 413.398 105.837 412.262 105.837C409.99 105.837 408.278 103.997 408.278 101.741C408.278 99.5008 409.99 97.6448 412.262 97.6448C413.398 97.6448 414.262 98.1088 414.822 98.8608V97.8688ZM412.582 103.933C413.878 103.933 414.822 103.021 414.822 101.741C414.822 100.477 413.878 99.5648 412.582 99.5648C411.286 99.5648 410.342 100.477 410.342 101.741C410.342 103.021 411.286 103.933 412.582 103.933ZM420.551 100.141C420.551 101.325 424.679 100.589 424.679 103.533C424.679 105.261 423.175 106.093 421.463 106.093C419.863 106.093 418.679 105.421 418.103 104.189L419.895 103.181C420.119 103.837 420.663 104.221 421.463 104.221C422.119 104.221 422.567 103.997 422.567 103.533C422.567 102.365 418.439 103.005 418.439 100.189C418.439 98.5568 419.831 97.6448 421.479 97.6448C422.775 97.6448 423.895 98.2368 424.519 99.3408L422.759 100.301C422.519 99.7888 422.071 99.4848 421.479 99.4848C420.967 99.4848 420.551 99.7088 420.551 100.141ZM427.113 100.349C426.361 100.349 425.753 99.7408 425.753 98.9888C425.753 98.2368 426.361 97.6288 427.113 97.6288C427.865 97.6288 428.473 98.2368 428.473 98.9888C428.473 99.7408 427.865 100.349 427.113 100.349ZM427.113 106.077C426.361 106.077 425.753 105.469 425.753 104.717C425.753 103.965 426.361 103.357 427.113 103.357C427.865 103.357 428.473 103.965 428.473 104.717C428.473 105.469 427.865 106.077 427.113 106.077Z" fill="#9591A1"/>
<path d="M447.959 99.2448L448.919 99.6928C448.391 101.421 447.031 102.045 444.887 100.717C443.271 99.7088 442.615 100.125 442.295 101.293L441.335 100.845C441.863 99.1168 443.271 98.5088 445.367 99.8208C447.015 100.845 447.639 100.413 447.959 99.2448ZM458.035 102.957C458.035 104.653 456.755 105.837 454.995 106.029V107.469H454.035V106.045C452.307 105.933 451.043 105.085 450.515 103.725L451.475 103.165C451.843 104.189 452.675 104.845 454.035 104.957V100.541C452.435 99.9808 451.075 99.3728 451.075 97.4528C451.075 95.7408 452.403 94.6528 454.035 94.4928V93.0688H454.995V94.5088C456.211 94.6528 457.267 95.3408 457.795 96.5728L456.851 97.1008C456.499 96.2208 455.827 95.7408 454.995 95.6128V99.7728C456.595 100.333 458.035 101.005 458.035 102.957ZM452.195 97.4528C452.195 98.5088 452.883 98.9728 454.035 99.4208V95.5968C452.947 95.7248 452.195 96.3968 452.195 97.4528ZM454.995 104.941C456.195 104.765 456.915 104.013 456.915 102.957C456.915 101.821 456.131 101.325 454.995 100.877V104.941ZM461.872 94.6688H462.832V105.869H461.712V95.9008L459.2 96.6528L458.912 95.6928L461.872 94.6688ZM466.989 104.509L466.029 108.109H465.069L465.709 104.509H466.989ZM472.509 106.061C469.773 106.061 468.269 103.725 468.269 100.269C468.269 96.8128 469.773 94.4768 472.509 94.4768C475.245 94.4768 476.749 96.8128 476.749 100.269C476.749 103.725 475.245 106.061 472.509 106.061ZM472.509 104.973C474.477 104.973 475.629 103.261 475.629 100.269C475.629 97.2768 474.477 95.5648 472.509 95.5648C470.541 95.5648 469.389 97.2768 469.389 100.269C469.389 103.261 470.541 104.973 472.509 104.973ZM477.554 94.6688H484.434V95.7248L480.21 105.869H479.042L483.266 95.7248H477.554V94.6688ZM493.005 102.573V103.629H491.565V105.869H490.445V103.629H484.525V102.573L488.685 94.6688H489.917L485.757 102.573H490.445V99.1488H491.565V102.573H493.005ZM496.286 104.509L495.326 108.109H494.366L495.006 104.509H496.286ZM506.13 102.573V103.629H504.69V105.869H503.57V103.629H497.65V102.573L501.81 94.6688H503.042L498.882 102.573H503.57V99.1488H504.69V102.573H506.13ZM511.283 99.3248C512.963 99.5488 514.371 100.653 514.371 102.621C514.371 104.845 512.579 106.061 510.611 106.061C508.995 106.061 507.555 105.309 507.011 103.837L507.939 103.293C508.307 104.429 509.331 104.973 510.611 104.973C512.067 104.973 513.251 104.173 513.251 102.621C513.251 101.069 512.067 100.269 510.611 100.269V100.253L510.595 100.269H510.291L509.811 99.5328L512.595 95.7248H507.331V94.6688H513.891V95.7248L511.283 99.3248ZM519.256 98.6688C521.432 98.6688 523.016 100.173 523.016 102.365C523.016 104.557 521.432 106.061 519.256 106.061C517.08 106.061 515.496 104.557 515.496 102.365C515.496 101.485 515.752 100.733 516.184 100.125L519.848 94.6688H521.112L518.36 98.7648C518.648 98.7008 518.952 98.6688 519.256 98.6688ZM519.256 104.973C520.84 104.973 521.896 103.933 521.896 102.365C521.896 100.797 520.84 99.7568 519.256 99.7568C517.672 99.7568 516.616 100.797 516.616 102.365C516.616 103.933 517.672 104.973 519.256 104.973Z" fill="#9591A1"/>
<path d="M301.625 466.411C370.81 466.411 426.896 411.398 426.896 343.535C426.896 275.673 370.81 220.659 301.625 220.659C232.441 220.659 176.355 275.673 176.355 343.535C176.355 411.398 232.441 466.411 301.625 466.411Z" fill="#B2EDFF" stroke="white" stroke-width="1.10553"/>
<path d="M301.6 437.971C354.766 437.971 397.866 395.695 397.866 343.545C397.866 291.396 354.766 249.12 301.6 249.12C248.434 249.12 205.335 291.396 205.335 343.545C205.335 395.695 248.434 437.971 301.6 437.971Z" fill="#B2EDFF" stroke="white" stroke-width="1.10553"/>
<path d="M302.099 190.748C387.913 190.993 457.374 259.322 457.374 343.545C457.374 407.901 416.817 462.986 359.408 485.501L302.099 343.447V190.748ZM275.945 494.281C202.133 482.264 145.824 419.379 145.824 343.545C145.824 297.436 166.628 256.134 199.533 228.125L301.049 343.692L275.945 494.281Z" fill="#00C2FF" stroke="white" stroke-width="1.10553"/>
<path d="M301.637 404.273C335.763 404.273 363.429 376.608 363.429 342.481C363.429 308.354 335.763 280.689 301.637 280.689C267.51 280.689 239.844 308.354 239.844 342.481C239.844 376.608 267.51 404.273 301.637 404.273Z" fill="#B2EDFF" stroke="white" stroke-width="4.42213"/>
<mask id="path-12-inside-1_1_8282" fill="white">
<path d="M301.637 280.689C286.11 280.689 271.152 286.534 259.739 297.062C248.327 307.59 241.296 322.028 240.045 337.504C238.795 352.981 243.416 368.361 252.991 380.584C262.565 392.807 276.39 400.979 291.716 403.471L301.637 342.481V280.689Z"/>
</mask>
<path d="M301.637 280.689C286.11 280.689 271.152 286.534 259.739 297.062C248.327 307.59 241.296 322.028 240.045 337.504C238.795 352.981 243.416 368.361 252.991 380.584C262.565 392.807 276.39 400.979 291.716 403.471L301.637 342.481V280.689Z" fill="#B2EDFF" stroke="white" stroke-width="2.21106" mask="url(#path-12-inside-1_1_8282)"/>
<path d="M301.592 360.459C311.12 360.459 318.845 352.883 318.845 343.536C318.845 334.19 311.12 326.613 301.592 326.613C292.063 326.613 284.339 334.19 284.339 343.536C284.339 352.883 292.063 360.459 301.592 360.459Z" fill="white"/>
<path d="M301.625 466.411C370.81 466.411 426.896 411.398 426.896 343.535C426.896 275.673 370.81 220.659 301.625 220.659C232.441 220.659 176.355 275.673 176.355 343.535C176.355 411.398 232.441 466.411 301.625 466.411Z" stroke="white" stroke-width="1.10553"/>
<path d="M301.6 437.971C354.766 437.971 397.866 395.695 397.866 343.545C397.866 291.396 354.766 249.12 301.6 249.12C248.434 249.12 205.335 291.396 205.335 343.545C205.335 395.695 248.434 437.971 301.6 437.971Z" stroke="white" stroke-width="1.10553"/>
<path d="M260.883 297.179L199.573 227.427C166.368 255.534 145.315 297.13 145.315 343.534C145.315 419.76 202.024 482.989 276.335 494.81L301.589 343.534V190.246C387.903 190.246 457.864 258.87 457.864 343.534C457.864 408.282 416.957 463.662 359.098 486.128L324.743 400.924" stroke="white" stroke-width="1.10553"/>
<path d="M384.37 390.487L435.528 418.937" stroke="white" stroke-width="1.10553"/>
<path d="M193.066 282.139C182.414 300.19 176.313 321.233 176.313 343.601" stroke="white" stroke-width="1.10553"/>
<path d="M238.915 237.097C219.862 247.889 204.01 263.438 193.008 282.127L218.162 296.401" stroke="white" stroke-width="1.10553"/>
<path d="M364.306 237.097C345.853 226.649 324.45 220.665 301.596 220.665V251.421" stroke="white" stroke-width="1.10553"/>
<path d="M379.163 211.502L349.809 261.78" stroke="white" stroke-width="1.10553"/>
<path d="M167.095 419.881L218.204 390.842" stroke="white" stroke-width="1.10553"/>
<path d="M239.368 343.554H145.853" stroke="white" stroke-width="1.10553"/>
<path d="M301.638 220.665C278.785 220.665 257.381 226.649 238.928 237.097L253.18 261.329" stroke="white" stroke-width="1.10553"/>
<path d="M349.747 425.376L364.35 450.147C383.403 439.355 399.255 423.806 410.257 405.117" stroke="white" stroke-width="1.10553"/>
<path d="M426.927 343.592C426.927 321.175 420.826 300.18 410.175 282.08L384.521 296.6" stroke="white" stroke-width="1.10553"/>
<path d="M193.039 405.117C204.04 423.806 219.893 439.355 238.946 450.147" stroke="white" stroke-width="1.10553"/>
<path d="M426.939 343.604L363.879 343.554" stroke="white" stroke-width="1.10553"/>
<path d="M253.508 425.363L223.954 475.347" stroke="white" stroke-width="1.10553"/>
<path d="M290.449 466.432L293.149 437.982" stroke="white" stroke-width="1.10553"/>
<path d="M301.596 466.567C324.45 466.567 345.853 460.582 364.306 450.134L349.704 425.363" stroke="white" stroke-width="1.10553"/>
<path d="M230.177 242.826L247.58 265.635" stroke="white" stroke-width="1.10553"/>
<path d="M225.675 246.224L244.078 268.248" stroke="white" stroke-width="1.10553"/>
<path d="M348.125 457.468L359.326 484.938" stroke="white" stroke-width="1.10553"/>
<path d="M415.589 394.608L442.843 406.822" stroke="white" stroke-width="1.10553"/>
<path d="M423.483 372.531L452.538 379.447" stroke="white" stroke-width="1.10553"/>
<path d="M199.407 414.913L175.053 431.885" stroke="white" stroke-width="1.10553"/>
<path d="M233.832 446.891L217.629 471.662" stroke="white" stroke-width="1.10553"/>
<path d="M244.226 452.979L230.374 478.928" stroke="white" stroke-width="1.10553"/>
<path d="M255.028 457.617L243.876 484.939" stroke="white" stroke-width="1.10553"/>
<path d="M277.898 464.21L272.197 493.102" stroke="white" stroke-width="1.10553"/>
<path d="M206.497 262.69L184.243 243.756" stroke="white" stroke-width="1.10553"/>
<path d="M193.084 282.089L167.13 267.373" stroke="white" stroke-width="1.10553"/>
<path d="M425.624 326.009L455.279 321.839" stroke="white" stroke-width="1.10553"/>
<path d="M410.167 282.089L436.071 267.373" stroke="white" stroke-width="1.10553"/>
<path d="M396.247 263.033L418.95 243.756" stroke="white" stroke-width="1.10553"/>
<path d="M336.917 225.61L345.368 197.356" stroke="white" stroke-width="1.10553"/>
<path d="M313.547 221.204L316.397 191.92" stroke="white" stroke-width="1.10553"/>
<path d="M448.155 392.472L420.05 383.593" stroke="white" stroke-width="1.10553"/>
<rect x="95.0767" y="155.954" width="89.1141" height="25" rx="12.5" fill="white"/>
<rect x="95.0767" y="155.954" width="89.1141" height="25" rx="12.5" stroke="#9591A1"/>
<path d="M116.238 164.054V167.27H113.598V164.054H111.678V172.454H113.598V169.118H116.238V172.454H118.158V164.054H116.238ZM119.6 164.054V172.454H121.52V164.054H119.6ZM125.447 172.622C127.175 172.622 128.471 171.602 128.471 169.754V164.054H126.551V169.754C126.551 170.27 126.299 170.75 125.459 170.75C124.811 170.75 124.535 170.498 124.271 170.03L122.603 170.99C123.155 172.058 124.115 172.622 125.447 172.622ZM135.194 172.454H137.294L134.438 164.054H131.99L129.134 172.454H131.234L131.654 171.134H134.774L135.194 172.454ZM132.23 169.334L133.214 166.25L134.198 169.334H132.23ZM142.018 172.622C143.554 172.622 144.898 171.866 145.618 170.678L143.962 169.718C143.602 170.366 142.87 170.75 142.018 170.75C140.53 170.75 139.57 169.754 139.57 168.254C139.57 166.754 140.53 165.758 142.018 165.758C142.87 165.758 143.59 166.142 143.962 166.79L145.618 165.83C144.886 164.642 143.542 163.886 142.018 163.886C139.486 163.886 137.65 165.782 137.65 168.254C137.65 170.726 139.486 172.622 142.018 172.622ZM153.427 172.454L150.475 168.146L153.307 164.054H151.123L148.555 167.702V164.054H146.635V172.454H148.555V168.566L151.243 172.454H153.427ZM156.067 170.606V169.118H159.067V167.294H156.067V165.902H159.367V164.054H154.147V172.454H159.427V170.606H156.067ZM163.87 164.054H160.51V172.454H163.87C166.186 172.454 167.95 170.63 167.95 168.254C167.95 165.878 166.186 164.054 163.87 164.054ZM163.87 170.606H162.43V165.902H163.87C165.19 165.902 166.102 166.814 166.102 168.254C166.102 169.694 165.19 170.606 163.87 170.606Z" fill="#9591A1"/>
<rect x="457.875" y="454.067" width="60.5969" height="25" rx="12.5" fill="white"/>
<rect x="457.875" y="454.067" width="60.5969" height="25" rx="12.5" stroke="#9591A1"/>
<path d="M479.86 464.015V462.167H474.76V470.567H476.68V467.483H479.8V465.635H476.68V464.015H479.86ZM486.335 470.567H488.435L485.579 462.167H483.131L480.275 470.567H482.375L482.795 469.247H485.915L486.335 470.567ZM483.371 467.447L484.355 464.363L485.339 467.447H483.371ZM495.943 470.567L492.991 466.259L495.823 462.167H493.639L491.071 465.815V462.167H489.151V470.567H491.071V466.679L493.759 470.567H495.943ZM498.583 468.719V467.231H501.583V465.407H498.583V464.015H501.883V462.167H496.663V470.567H501.943V468.719H498.583Z" fill="#9591A1"/>
<path d="M457.644 465.265L332.832 465.265L316.772 380.988" stroke="#9591A1" stroke-width="1.10553" stroke-linecap="round"/>
<circle cx="317.307" cy="380.543" r="2.12416" transform="rotate(-180 317.307 380.543)" fill="#9591A1"/>
<path d="M184.242 168.454L243.859 168.454L286.505 304.649" stroke="#9591A1" stroke-width="1.10553" stroke-linecap="round"/>
<circle cx="285.969" cy="304.77" r="2.12416" fill="#9591A1"/>
<rect x="533.971" y="232.757" width="186.089" height="184.75" rx="10.7101" fill="white"/>
<path d="M558.604 264.856C561.041 264.856 562.712 263.533 562.712 261.445C562.712 259.182 560.728 258.556 558.517 257.825C556.864 257.285 555.82 256.868 555.82 255.545C555.82 254.205 556.881 253.439 558.343 253.439C559.945 253.439 560.884 254.362 561.337 255.458L562.364 254.884C561.737 253.439 560.345 252.256 558.343 252.256C556.325 252.256 554.602 253.457 554.602 255.597C554.602 257.842 556.516 258.364 558.5 259.026C560.293 259.618 561.494 260.07 561.494 261.48C561.494 262.785 560.467 263.673 558.622 263.673C556.707 263.673 555.559 262.733 555.124 261.271L554.079 261.88C554.706 263.725 556.359 264.856 558.604 264.856ZM568.854 264.856C571.395 264.856 573.432 262.872 573.432 260.296C573.432 257.72 571.395 255.736 568.854 255.736C566.313 255.736 564.277 257.72 564.277 260.296C564.277 262.872 566.313 264.856 568.854 264.856ZM568.854 263.742C566.923 263.742 565.426 262.228 565.426 260.296C565.426 258.364 566.923 256.85 568.854 256.85C570.786 256.85 572.283 258.364 572.283 260.296C572.283 262.228 570.786 263.742 568.854 263.742ZM581.48 255.945V260.505C581.48 262.837 580.192 263.742 578.661 263.742C577.146 263.742 576.294 262.837 576.294 261.288V255.945H575.145V261.288C575.145 263.464 576.433 264.856 578.556 264.856C579.792 264.856 580.801 264.386 581.48 263.29V264.647H582.629V255.945H581.48ZM586.207 257.39V255.945H585.059V264.647H586.207V259.809C586.207 257.651 587.565 256.92 588.957 256.92V255.806C587.843 255.806 586.816 256.172 586.207 257.39ZM594.06 264.856C595.765 264.856 597.244 263.969 597.958 262.594L597.001 262.037C596.444 263.046 595.382 263.742 594.06 263.742C592.128 263.742 590.631 262.228 590.631 260.296C590.631 258.364 592.128 256.85 594.06 256.85C595.365 256.85 596.461 257.529 596.931 258.556L597.871 258.016C597.244 256.641 595.783 255.736 594.06 255.736C591.432 255.736 589.482 257.72 589.482 260.296C589.482 262.872 591.432 264.856 594.06 264.856ZM603.542 255.736C600.845 255.736 599 257.738 599 260.296C599 262.924 600.88 264.856 603.63 264.856C605.387 264.856 606.727 264.038 607.458 262.855L606.449 262.263C605.979 263.098 605.022 263.742 603.647 263.742C601.802 263.742 600.427 262.646 600.184 260.871H607.824C607.841 260.697 607.859 260.505 607.859 260.331C607.859 257.947 606.205 255.736 603.542 255.736ZM603.542 256.85C605.039 256.85 606.432 257.842 606.675 259.757H600.184C600.41 258.051 601.715 256.85 603.542 256.85ZM616.299 252.464L613.08 253.578L613.393 254.623L616.125 253.805V264.647H617.344V252.464H616.299Z" fill="#9591A1"/>
<path d="M669.643 263.702H677.666V261.77H672.619L675.369 259.02C676.535 257.837 677.44 256.566 677.44 255.052C677.44 252.633 675.543 251.293 673.541 251.293C671.923 251.293 670.391 252.093 669.608 253.764L671.296 254.756C671.766 253.782 672.549 253.242 673.559 253.242C674.603 253.242 675.438 253.903 675.438 255.122C675.438 256.044 674.759 256.932 673.889 257.802L669.643 262.136V263.702ZM685.592 257.367C686.427 256.827 686.984 255.957 686.984 254.791C686.984 252.442 685.139 251.293 683.121 251.293C681.084 251.293 679.257 252.442 679.257 254.791C679.257 255.957 679.814 256.827 680.632 257.367C679.518 257.993 678.839 259.055 678.839 260.326C678.839 262.588 680.58 263.928 683.121 263.928C685.662 263.928 687.385 262.588 687.385 260.326C687.385 259.038 686.723 257.993 685.592 257.367ZM683.121 253.19C684.13 253.19 684.983 253.747 684.983 254.878C684.983 255.957 684.13 256.566 683.121 256.566C682.094 256.566 681.258 255.957 681.258 254.878C681.258 253.747 682.094 253.19 683.121 253.19ZM683.121 262.031C681.798 262.031 680.841 261.37 680.841 260.134C680.841 258.881 681.798 258.237 683.121 258.237C684.426 258.237 685.383 258.881 685.383 260.134C685.383 261.37 684.426 262.031 683.121 262.031ZM691.37 256.862C693.006 256.862 694.207 255.609 694.207 254.078C694.207 252.511 692.989 251.293 691.37 251.293C689.734 251.293 688.516 252.529 688.516 254.078C688.516 255.609 689.734 256.862 691.37 256.862ZM691.353 255.331C690.622 255.331 690.117 254.774 690.117 254.078C690.117 253.364 690.622 252.807 691.353 252.807C692.101 252.807 692.606 253.364 692.606 254.078C692.606 254.756 692.101 255.331 691.353 255.331ZM689.543 261.909L690.483 262.466L698.506 253.521L697.566 252.981L689.543 261.909ZM696.94 263.911C698.558 263.911 699.776 262.658 699.776 261.126C699.776 259.577 698.558 258.341 696.94 258.341C695.304 258.341 694.085 259.577 694.085 261.126C694.085 262.658 695.304 263.911 696.94 263.911ZM696.922 262.379C696.191 262.379 695.687 261.822 695.687 261.126C695.687 260.413 696.191 259.856 696.922 259.856C697.671 259.856 698.175 260.413 698.175 261.126C698.175 261.805 697.671 262.379 696.922 262.379Z" fill="#9591A1"/>
<path d="M558.605 298.106C561.041 298.106 562.712 296.783 562.712 294.695C562.712 292.432 560.728 291.806 558.518 291.075C556.864 290.535 555.82 290.117 555.82 288.795C555.82 287.455 556.882 286.689 558.344 286.689C559.945 286.689 560.885 287.611 561.337 288.708L562.364 288.133C561.737 286.689 560.345 285.505 558.344 285.505C556.325 285.505 554.602 286.706 554.602 288.847C554.602 291.092 556.516 291.614 558.5 292.275C560.293 292.867 561.494 293.32 561.494 294.729C561.494 296.035 560.467 296.922 558.622 296.922C556.708 296.922 555.559 295.983 555.124 294.521L554.08 295.13C554.706 296.975 556.36 298.106 558.605 298.106ZM568.855 298.106C571.396 298.106 573.432 296.122 573.432 293.546C573.432 290.97 571.396 288.986 568.855 288.986C566.314 288.986 564.277 290.97 564.277 293.546C564.277 296.122 566.314 298.106 568.855 298.106ZM568.855 296.992C566.923 296.992 565.426 295.478 565.426 293.546C565.426 291.614 566.923 290.1 568.855 290.1C570.786 290.1 572.283 291.614 572.283 293.546C572.283 295.478 570.786 296.992 568.855 296.992ZM581.48 289.195V293.755C581.48 296.087 580.192 296.992 578.661 296.992C577.147 296.992 576.294 296.087 576.294 294.538V289.195H575.145V294.538C575.145 296.714 576.433 298.106 578.556 298.106C579.792 298.106 580.801 297.636 581.48 296.539V297.897H582.629V289.195H581.48ZM586.207 290.64V289.195H585.059V297.897H586.207V293.059C586.207 290.901 587.565 290.17 588.957 290.17V289.056C587.843 289.056 586.817 289.421 586.207 290.64ZM594.06 298.106C595.765 298.106 597.245 297.218 597.958 295.843L597.001 295.286C596.444 296.296 595.382 296.992 594.06 296.992C592.128 296.992 590.631 295.478 590.631 293.546C590.631 291.614 592.128 290.1 594.06 290.1C595.365 290.1 596.462 290.779 596.931 291.806L597.871 291.266C597.245 289.891 595.783 288.986 594.06 288.986C591.432 288.986 589.483 290.97 589.483 293.546C589.483 296.122 591.432 298.106 594.06 298.106ZM603.543 288.986C600.845 288.986 599 290.988 599 293.546C599 296.174 600.88 298.106 603.63 298.106C605.388 298.106 606.728 297.288 607.459 296.104L606.449 295.513C605.979 296.348 605.022 296.992 603.647 296.992C601.802 296.992 600.427 295.896 600.184 294.12H607.824C607.842 293.946 607.859 293.755 607.859 293.581C607.859 291.196 606.206 288.986 603.543 288.986ZM603.543 290.1C605.039 290.1 606.432 291.092 606.675 293.006H600.184C600.41 291.301 601.715 290.1 603.543 290.1ZM613.515 297.897H621.26V296.714H615.255L618.736 293.25C619.972 292.014 620.999 290.709 620.999 289.16C620.999 286.776 619.136 285.505 617.326 285.505C615.777 285.505 614.35 286.254 613.567 287.803L614.594 288.412C615.186 287.211 616.143 286.689 617.326 286.689C618.58 286.689 619.78 287.507 619.78 289.16C619.78 290.291 618.928 291.353 617.901 292.38L613.515 296.801V297.897Z" fill="#9591A1"/>
<path d="M670.271 296.952H678.295V295.02H673.248L675.997 292.27C677.163 291.086 678.068 289.816 678.068 288.302C678.068 285.883 676.171 284.543 674.17 284.543C672.551 284.543 671.02 285.343 670.237 287.014L671.925 288.006C672.395 287.031 673.178 286.492 674.187 286.492C675.232 286.492 676.067 287.153 676.067 288.371C676.067 289.294 675.388 290.181 674.518 291.052L670.271 295.385V296.952ZM684.587 289.746L687.058 286.474V284.769H679.574V286.648H684.674L682.046 290.112L682.846 291.313H683.299C684.674 291.313 685.561 292.044 685.561 293.262C685.561 294.48 684.674 295.229 683.299 295.229C682.081 295.229 681.263 294.689 680.915 293.662L679.209 294.654C679.888 296.36 681.506 297.178 683.299 297.178C685.544 297.178 687.563 295.82 687.563 293.262C687.563 291.365 686.258 290.147 684.587 289.746ZM691.37 290.112C693.006 290.112 694.207 288.859 694.207 287.327C694.207 285.761 692.989 284.543 691.37 284.543C689.734 284.543 688.516 285.778 688.516 287.327C688.516 288.859 689.734 290.112 691.37 290.112ZM691.353 288.58C690.622 288.58 690.117 288.023 690.117 287.327C690.117 286.614 690.622 286.057 691.353 286.057C692.101 286.057 692.606 286.614 692.606 287.327C692.606 288.006 692.101 288.58 691.353 288.58ZM689.543 295.159L690.483 295.716L698.506 286.77L697.566 286.231L689.543 295.159ZM696.94 297.16C698.558 297.16 699.776 295.907 699.776 294.376C699.776 292.827 698.558 291.591 696.94 291.591C695.304 291.591 694.085 292.827 694.085 294.376C694.085 295.907 695.304 297.16 696.94 297.16ZM696.922 295.629C696.191 295.629 695.686 295.072 695.686 294.376C695.686 293.662 696.191 293.105 696.922 293.105C697.67 293.105 698.175 293.662 698.175 294.376C698.175 295.055 697.67 295.629 696.922 295.629Z" fill="#9591A1"/>
<path d="M558.605 331.355C561.041 331.355 562.712 330.033 562.712 327.944C562.712 325.682 560.728 325.055 558.518 324.324C556.864 323.785 555.82 323.367 555.82 322.044C555.82 320.704 556.882 319.938 558.344 319.938C559.945 319.938 560.885 320.861 561.337 321.957L562.364 321.383C561.737 319.938 560.345 318.755 558.344 318.755C556.325 318.755 554.602 319.956 554.602 322.097C554.602 324.342 556.516 324.864 558.5 325.525C560.293 326.117 561.494 326.569 561.494 327.979C561.494 329.284 560.467 330.172 558.622 330.172C556.708 330.172 555.559 329.232 555.124 327.77L554.08 328.379C554.706 330.224 556.36 331.355 558.605 331.355ZM568.855 331.355C571.396 331.355 573.432 329.371 573.432 326.796C573.432 324.22 571.396 322.236 568.855 322.236C566.314 322.236 564.277 324.22 564.277 326.796C564.277 329.371 566.314 331.355 568.855 331.355ZM568.855 330.242C566.923 330.242 565.426 328.727 565.426 326.796C565.426 324.864 566.923 323.35 568.855 323.35C570.786 323.35 572.283 324.864 572.283 326.796C572.283 328.727 570.786 330.242 568.855 330.242ZM581.48 322.445V327.004C581.48 329.337 580.192 330.242 578.661 330.242C577.147 330.242 576.294 329.337 576.294 327.788V322.445H575.145V327.788C575.145 329.963 576.433 331.355 578.556 331.355C579.792 331.355 580.801 330.886 581.48 329.789V331.147H582.629V322.445H581.48ZM586.207 323.889V322.445H585.059V331.147H586.207V326.308C586.207 324.15 587.565 323.419 588.957 323.419V322.305C587.843 322.305 586.817 322.671 586.207 323.889ZM594.06 331.355C595.765 331.355 597.245 330.468 597.958 329.093L597.001 328.536C596.444 329.545 595.382 330.242 594.06 330.242C592.128 330.242 590.631 328.727 590.631 326.796C590.631 324.864 592.128 323.35 594.06 323.35C595.365 323.35 596.462 324.028 596.931 325.055L597.871 324.516C597.245 323.141 595.783 322.236 594.06 322.236C591.432 322.236 589.483 324.22 589.483 326.796C589.483 329.371 591.432 331.355 594.06 331.355ZM603.543 322.236C600.845 322.236 599 324.237 599 326.796C599 329.424 600.88 331.355 603.63 331.355C605.388 331.355 606.728 330.537 607.459 329.354L606.449 328.762C605.979 329.598 605.022 330.242 603.647 330.242C601.802 330.242 600.427 329.145 600.184 327.37H607.824C607.842 327.196 607.859 327.004 607.859 326.83C607.859 324.446 606.206 322.236 603.543 322.236ZM603.543 323.35C605.039 323.35 606.432 324.342 606.675 326.256H600.184C600.41 324.551 601.715 323.35 603.543 323.35ZM617.988 324.028L620.825 320.112V318.964H613.689V320.112H619.415L616.387 324.255L616.909 325.055H617.239L617.257 325.038V325.055C618.841 325.055 620.128 325.925 620.128 327.614C620.128 329.302 618.841 330.172 617.257 330.172C615.864 330.172 614.751 329.58 614.35 328.345L613.341 328.936C613.933 330.537 615.499 331.355 617.257 331.355C619.397 331.355 621.347 330.033 621.347 327.614C621.347 325.473 619.815 324.272 617.988 324.028Z" fill="#9591A1"/>
<path d="M675.455 318.018L672.253 319.15L672.74 320.855L675.194 320.159V330.201H677.195V318.018H675.455ZM683.288 322.613H681.756L681.965 319.898H686.908V318.018H680.12L679.651 324.562H683.201C684.524 324.562 685.429 325.293 685.429 326.512C685.429 327.73 684.524 328.478 683.166 328.478C681.896 328.478 681.06 327.904 680.747 326.825L679.024 327.817C679.668 329.575 681.321 330.427 683.166 330.427C685.411 330.427 687.43 329.07 687.43 326.512C687.43 323.971 685.498 322.613 683.288 322.613ZM691.37 323.361C693.006 323.361 694.207 322.108 694.207 320.577C694.207 319.01 692.989 317.792 691.37 317.792C689.734 317.792 688.516 319.028 688.516 320.577C688.516 322.108 689.734 323.361 691.37 323.361ZM691.353 321.83C690.622 321.83 690.117 321.273 690.117 320.577C690.117 319.863 690.622 319.306 691.353 319.306C692.101 319.306 692.606 319.863 692.606 320.577C692.606 321.256 692.101 321.83 691.353 321.83ZM689.543 328.409L690.483 328.966L698.506 320.02L697.566 319.48L689.543 328.409ZM696.94 330.41C698.558 330.41 699.776 329.157 699.776 327.625C699.776 326.076 698.558 324.841 696.94 324.841C695.304 324.841 694.085 326.076 694.085 327.625C694.085 329.157 695.304 330.41 696.94 330.41ZM696.922 328.879C696.191 328.879 695.686 328.322 695.686 327.625C695.686 326.912 696.191 326.355 696.922 326.355C697.67 326.355 698.175 326.912 698.175 327.625C698.175 328.304 697.67 328.879 696.922 328.879Z" fill="#9591A1"/>
<path d="M558.605 364.605C561.041 364.605 562.712 363.282 562.712 361.194C562.712 358.931 560.728 358.305 558.518 357.574C556.864 357.034 555.82 356.617 555.82 355.294C555.82 353.954 556.882 353.188 558.344 353.188C559.945 353.188 560.885 354.11 561.337 355.207L562.364 354.633C561.737 353.188 560.345 352.005 558.344 352.005C556.325 352.005 554.602 353.205 554.602 355.346C554.602 357.591 556.516 358.113 558.5 358.775C560.293 359.366 561.494 359.819 561.494 361.229C561.494 362.534 560.467 363.422 558.622 363.422C556.708 363.422 555.559 362.482 555.124 361.02L554.08 361.629C554.706 363.474 556.36 364.605 558.605 364.605ZM568.855 364.605C571.396 364.605 573.432 362.621 573.432 360.045C573.432 357.469 571.396 355.485 568.855 355.485C566.314 355.485 564.277 357.469 564.277 360.045C564.277 362.621 566.314 364.605 568.855 364.605ZM568.855 363.491C566.923 363.491 565.426 361.977 565.426 360.045C565.426 358.113 566.923 356.599 568.855 356.599C570.786 356.599 572.283 358.113 572.283 360.045C572.283 361.977 570.786 363.491 568.855 363.491ZM581.48 355.694V360.254C581.48 362.586 580.192 363.491 578.661 363.491C577.147 363.491 576.294 362.586 576.294 361.037V355.694H575.145V361.037C575.145 363.213 576.433 364.605 578.556 364.605C579.792 364.605 580.801 364.135 581.48 363.039V364.396H582.629V355.694H581.48ZM586.207 357.139V355.694H585.059V364.396H586.207V359.558C586.207 357.4 587.565 356.669 588.957 356.669V355.555C587.843 355.555 586.817 355.921 586.207 357.139ZM594.06 364.605C595.765 364.605 597.245 363.717 597.958 362.343L597.001 361.786C596.444 362.795 595.382 363.491 594.06 363.491C592.128 363.491 590.631 361.977 590.631 360.045C590.631 358.113 592.128 356.599 594.06 356.599C595.365 356.599 596.462 357.278 596.931 358.305L597.871 357.765C597.245 356.39 595.783 355.485 594.06 355.485C591.432 355.485 589.483 357.469 589.483 360.045C589.483 362.621 591.432 364.605 594.06 364.605ZM603.543 355.485C600.845 355.485 599 357.487 599 360.045C599 362.673 600.88 364.605 603.63 364.605C605.388 364.605 606.728 363.787 607.459 362.604L606.449 362.012C605.979 362.847 605.022 363.491 603.647 363.491C601.802 363.491 600.427 362.395 600.184 360.62H607.824C607.842 360.446 607.859 360.254 607.859 360.08C607.859 357.696 606.206 355.485 603.543 355.485ZM603.543 356.599C605.039 356.599 606.432 357.591 606.675 359.506H600.184C600.41 357.8 601.715 356.599 603.543 356.599ZM622.478 360.811H620.912V357.087H619.693V360.811H614.594L619.119 352.213H617.779L613.254 360.811V361.96H619.693V364.396H620.912V361.96H622.478V360.811Z" fill="#9591A1"/>
<path d="M685.592 357.116C686.427 356.576 686.984 355.706 686.984 354.54C686.984 352.19 685.139 351.042 683.12 351.042C681.084 351.042 679.257 352.19 679.257 354.54C679.257 355.706 679.814 356.576 680.632 357.116C679.518 357.742 678.839 358.804 678.839 360.074C678.839 362.337 680.579 363.677 683.12 363.677C685.661 363.677 687.384 362.337 687.384 360.074C687.384 358.787 686.723 357.742 685.592 357.116ZM683.12 352.939C684.13 352.939 684.983 353.496 684.983 354.627C684.983 355.706 684.13 356.315 683.12 356.315C682.094 356.315 681.258 355.706 681.258 354.627C681.258 353.496 682.094 352.939 683.12 352.939ZM683.12 361.78C681.798 361.78 680.841 361.119 680.841 359.883C680.841 358.63 681.798 357.986 683.12 357.986C684.426 357.986 685.383 358.63 685.383 359.883C685.383 361.119 684.426 361.78 683.12 361.78ZM691.37 356.611C693.006 356.611 694.207 355.358 694.207 353.826C694.207 352.26 692.989 351.042 691.37 351.042C689.734 351.042 688.516 352.278 688.516 353.826C688.516 355.358 689.734 356.611 691.37 356.611ZM691.353 355.08C690.622 355.08 690.117 354.523 690.117 353.826C690.117 353.113 690.622 352.556 691.353 352.556C692.101 352.556 692.606 353.113 692.606 353.826C692.606 354.505 692.101 355.08 691.353 355.08ZM689.543 361.658L690.483 362.215L698.506 353.27L697.566 352.73L689.543 361.658ZM696.94 363.66C698.558 363.66 699.776 362.407 699.776 360.875C699.776 359.326 698.558 358.09 696.94 358.09C695.304 358.09 694.085 359.326 694.085 360.875C694.085 362.407 695.304 363.66 696.94 363.66ZM696.922 362.128C696.191 362.128 695.686 361.571 695.686 360.875C695.686 360.162 696.191 359.605 696.922 359.605C697.67 359.605 698.175 360.162 698.175 360.875C698.175 361.554 697.67 362.128 696.922 362.128Z" fill="#9591A1"/>
<path d="M558.605 397.855C561.041 397.855 562.712 396.532 562.712 394.443C562.712 392.181 560.728 391.554 558.518 390.823C556.864 390.284 555.82 389.866 555.82 388.544C555.82 387.203 556.882 386.438 558.344 386.438C559.945 386.438 560.885 387.36 561.337 388.457L562.364 387.882C561.737 386.438 560.345 385.254 558.344 385.254C556.325 385.254 554.602 386.455 554.602 388.596C554.602 390.841 556.516 391.363 558.5 392.024C560.293 392.616 561.494 393.069 561.494 394.478C561.494 395.784 560.467 396.671 558.622 396.671C556.708 396.671 555.559 395.731 555.124 394.269L554.08 394.879C554.706 396.723 556.36 397.855 558.605 397.855ZM568.855 397.855C571.396 397.855 573.432 395.871 573.432 393.295C573.432 390.719 571.396 388.735 568.855 388.735C566.314 388.735 564.277 390.719 564.277 393.295C564.277 395.871 566.314 397.855 568.855 397.855ZM568.855 396.741C566.923 396.741 565.426 395.227 565.426 393.295C565.426 391.363 566.923 389.849 568.855 389.849C570.786 389.849 572.283 391.363 572.283 393.295C572.283 395.227 570.786 396.741 568.855 396.741ZM581.48 388.944V393.504C581.48 395.836 580.192 396.741 578.661 396.741C577.147 396.741 576.294 395.836 576.294 394.287V388.944H575.145V394.287C575.145 396.462 576.433 397.855 578.556 397.855C579.792 397.855 580.801 397.385 581.48 396.288V397.646H582.629V388.944H581.48ZM586.207 390.388V388.944H585.059V397.646H586.207V392.808C586.207 390.649 587.565 389.918 588.957 389.918V388.805C587.843 388.805 586.817 389.17 586.207 390.388ZM594.06 397.855C595.765 397.855 597.245 396.967 597.958 395.592L597.001 395.035C596.444 396.045 595.382 396.741 594.06 396.741C592.128 396.741 590.631 395.227 590.631 393.295C590.631 391.363 592.128 389.849 594.06 389.849C595.365 389.849 596.462 390.528 596.931 391.554L597.871 391.015C597.245 389.64 595.783 388.735 594.06 388.735C591.432 388.735 589.483 390.719 589.483 393.295C589.483 395.871 591.432 397.855 594.06 397.855ZM603.543 388.735C600.845 388.735 599 390.736 599 393.295C599 395.923 600.88 397.855 603.63 397.855C605.388 397.855 606.728 397.037 607.459 395.853L606.449 395.261C605.979 396.097 605.022 396.741 603.647 396.741C601.802 396.741 600.427 395.644 600.184 393.869H607.824C607.842 393.695 607.859 393.504 607.859 393.33C607.859 390.945 606.206 388.735 603.543 388.735ZM603.543 389.849C605.039 389.849 606.432 390.841 606.675 392.755H600.184C600.41 391.05 601.715 389.849 603.543 389.849ZM617.431 390.371H615.377L615.638 386.612H621.086V385.463H614.559L614.124 391.554H617.431C619.015 391.554 620.302 392.425 620.302 394.113C620.302 395.801 619.015 396.671 617.431 396.671C616.039 396.671 614.89 396.01 614.542 394.67L613.515 395.261C614.054 396.984 615.673 397.855 617.431 397.855C619.572 397.855 621.521 396.532 621.521 394.113C621.521 391.694 619.572 390.371 617.431 390.371Z" fill="#9591A1"/>
<path d="M679.375 384.518V386.432H684.944L680.732 396.7H682.838L687.12 386.258V384.518H679.375ZM691.37 389.861C693.006 389.861 694.207 388.608 694.207 387.076C694.207 385.51 692.989 384.291 691.37 384.291C689.734 384.291 688.516 385.527 688.516 387.076C688.516 388.608 689.734 389.861 691.37 389.861ZM691.353 388.329C690.622 388.329 690.117 387.772 690.117 387.076C690.117 386.362 690.622 385.806 691.353 385.806C692.101 385.806 692.606 386.362 692.606 387.076C692.606 387.755 692.101 388.329 691.353 388.329ZM689.543 394.908L690.483 395.465L698.506 386.519L697.566 385.98L689.543 394.908ZM696.94 396.909C698.558 396.909 699.776 395.656 699.776 394.125C699.776 392.576 698.558 391.34 696.94 391.34C695.304 391.34 694.085 392.576 694.085 394.125C694.085 395.656 695.304 396.909 696.94 396.909ZM696.922 395.378C696.191 395.378 695.686 394.821 695.686 394.125C695.686 393.411 696.191 392.854 696.922 392.854C697.67 392.854 698.175 393.411 698.175 394.125C698.175 394.803 697.67 395.378 696.922 395.378Z" fill="#9591A1"/>
</g>
<defs>
<filter id="filter0_d_1_8282" x="0" y="0.000488281" width="814" height="584" filterUnits="userSpaceOnUse" color-interpolation-filters="sRGB">
<feFlood flood-opacity="0" result="BackgroundImageFix"/>
<feColorMatrix in="SourceAlpha" type="matrix" values="0 0 0 0 0 0 0 0 0 0 0 0 0 0 0 0 0 0 127 0" result="hardAlpha"/>
<feOffset dy="5"/>
<feGaussianBlur stdDeviation="13.5"/>
<feColorMatrix type="matrix" values="0 0 0 0 0.0968 0 0 0 0 0.08 0 0 0 0 0.2 0 0 0 0.06 0"/>
<feBlend mode="normal" in2="BackgroundImageFix" result="effect1_dropShadow_1_8282"/>
<feBlend mode="normal" in="SourceGraphic" in2="effect1_dropShadow_1_8282" result="shape"/>
</filter>
</defs>
</svg>
