<svg width="814" height="584" viewBox="0 0 814 584" fill="none" xmlns="http://www.w3.org/2000/svg">
<g filter="url(#filter0_d_1_7952)">
<rect x="27" y="22.0005" width="760" height="530" rx="19.9828" fill="white"/>
<rect x="51.3064" y="45.9797" width="711.387" height="481.585" rx="11.9897" fill="#F7F7F7"/>
<g filter="url(#filter1_d_1_7952)">
<rect x="67.2927" y="61.9661" width="679.415" height="54.9527" rx="11.9897" fill="white"/>
<rect x="231.407" y="82.8606" width="13.3816" height="13.1634" rx="1.99828" fill="#1EFFAE"/>
<path fill-rule="evenodd" clip-rule="evenodd" d="M242.79 86.8152L236.96 93.0265L233.405 89.6406L234.37 88.6277L236.904 91.0418L241.77 85.8579L242.79 86.8152Z" fill="white"/>
<path d="M259.208 94.6342C255.947 94.6342 253.421 92.0444 253.421 88.8472C253.421 85.65 255.947 83.0602 259.208 83.0602C262.469 83.0602 264.995 85.65 264.995 88.8472C264.995 92.0444 262.469 94.6342 259.208 94.6342ZM259.208 93.5472C261.862 93.5472 263.876 91.453 263.876 88.8472C263.876 86.2414 261.862 84.1472 259.208 84.1472C256.554 84.1472 254.54 86.2414 254.54 88.8472C254.54 91.453 256.554 93.5472 259.208 93.5472ZM267.804 87.7761C268.363 86.6571 269.307 86.3214 270.33 86.3214V87.3445C269.051 87.3445 267.804 88.0159 267.804 89.9982V94.4424H266.749V86.4493H267.804V87.7761ZM278.166 86.4493H279.221V94.1227C279.221 96.5526 277.271 97.8315 275.208 97.8315C273.37 97.8315 272.043 97.1281 271.42 95.8811L272.347 95.3536C272.747 96.1689 273.482 96.8083 275.208 96.8083C277.063 96.8083 278.166 95.7533 278.166 94.1227V92.8757C277.494 93.9468 276.359 94.6342 274.937 94.6342C272.683 94.6342 270.812 92.8118 270.812 90.4458C270.812 88.0799 272.683 86.2574 274.937 86.2574C276.359 86.2574 277.494 86.9448 278.166 88.0159V86.4493ZM275.017 93.6111C276.791 93.6111 278.166 92.2203 278.166 90.4458C278.166 88.6714 276.791 87.2805 275.017 87.2805C273.242 87.2805 271.867 88.6714 271.867 90.4458C271.867 92.2203 273.242 93.6111 275.017 93.6111ZM288.329 86.4493H289.384V94.4424H288.329V92.8757C287.658 93.9468 286.523 94.6342 285.1 94.6342C282.846 94.6342 280.975 92.8118 280.975 90.4458C280.975 88.0799 282.846 86.2574 285.1 86.2574C286.523 86.2574 287.658 86.9448 288.329 88.0159V86.4493ZM285.18 93.6111C286.954 93.6111 288.329 92.2203 288.329 90.4458C288.329 88.6714 286.954 87.2805 285.18 87.2805C283.405 87.2805 282.03 88.6714 282.03 90.4458C282.03 92.2203 283.405 93.6111 285.18 93.6111ZM295.359 86.2574C297.309 86.2574 298.492 87.5363 298.492 89.5346V94.4424H297.437V89.5346C297.437 88.1118 296.654 87.2805 295.263 87.2805C293.856 87.2805 292.673 88.1118 292.673 90.254V94.4424H291.618V86.4493H292.673V87.6962C293.297 86.6891 294.224 86.2574 295.359 86.2574ZM301.06 84.7547C300.628 84.7547 300.292 84.403 300.292 83.9874C300.292 83.5717 300.628 83.22 301.06 83.22C301.491 83.22 301.827 83.5717 301.827 83.9874C301.827 84.403 301.491 84.7547 301.06 84.7547ZM300.532 94.4424V86.4493H301.587V94.4424H300.532ZM307.551 94.6342C305.137 94.6342 303.347 92.8118 303.347 90.4458C303.347 88.0799 305.137 86.2574 307.551 86.2574C309.134 86.2574 310.477 87.0887 311.052 88.3516L310.189 88.8472C309.757 87.904 308.75 87.2805 307.551 87.2805C305.777 87.2805 304.402 88.6714 304.402 90.4458C304.402 92.2203 305.777 93.6111 307.551 93.6111C308.766 93.6111 309.741 92.9716 310.253 92.0444L311.132 92.556C310.477 93.8189 309.118 94.6342 307.551 94.6342ZM317.171 84.7547C316.739 84.7547 316.404 84.403 316.404 83.9874C316.404 83.5717 316.739 83.22 317.171 83.22C317.603 83.22 317.938 83.5717 317.938 83.9874C317.938 84.403 317.603 84.7547 317.171 84.7547ZM316.643 94.4424V86.4493H317.698V94.4424H316.643ZM323.678 86.2574C325.629 86.2574 326.811 87.5363 326.811 89.5346V94.4424H325.756V89.5346C325.756 88.1118 324.973 87.2805 323.582 87.2805C322.175 87.2805 320.993 88.1118 320.993 90.254V94.4424H319.937V86.4493H320.993V87.6962C321.616 86.6891 322.543 86.2574 323.678 86.2574ZM329.683 88.5435C329.683 90.5258 334.351 89.3907 334.351 92.3322C334.351 93.691 333.168 94.6342 331.457 94.6342C329.859 94.6342 328.772 93.8189 328.372 92.7958L329.267 92.2683C329.555 93.0836 330.386 93.6111 331.457 93.6111C332.401 93.6111 333.296 93.2754 333.296 92.3322C333.296 90.3499 328.628 91.4849 328.628 88.5435C328.628 87.2646 329.763 86.2574 331.361 86.2574C332.672 86.2574 333.695 86.8969 334.159 87.888L333.28 88.3996C332.944 87.5843 332.129 87.2805 331.361 87.2805C330.53 87.2805 329.683 87.6802 329.683 88.5435ZM340.035 87.4724H337.733V92.3162C337.733 93.691 338.484 93.5791 340.035 93.5152V94.4424C337.877 94.7621 336.678 94.2346 336.678 92.3162V87.4724H334.999V86.4493H336.678V84.5309L337.733 84.2112V86.4493H340.035V87.4724ZM348.184 86.4493H349.239V94.4424H348.184V92.8757C347.512 93.9468 346.377 94.6342 344.954 94.6342C342.7 94.6342 340.83 92.8118 340.83 90.4458C340.83 88.0799 342.7 86.2574 344.954 86.2574C346.377 86.2574 347.512 86.9448 348.184 88.0159V86.4493ZM345.034 93.6111C346.809 93.6111 348.184 92.2203 348.184 90.4458C348.184 88.6714 346.809 87.2805 345.034 87.2805C343.26 87.2805 341.885 88.6714 341.885 90.4458C341.885 92.2203 343.26 93.6111 345.034 93.6111ZM351.473 94.4424V82.7724H352.528V94.4424H351.473ZM354.767 94.4424V82.7724H355.822V94.4424H354.767ZM358.892 88.5435C358.892 90.5258 363.56 89.3907 363.56 92.3322C363.56 93.691 362.377 94.6342 360.667 94.6342C359.068 94.6342 357.981 93.8189 357.581 92.7958L358.476 92.2683C358.764 93.0836 359.596 93.6111 360.667 93.6111C361.61 93.6111 362.505 93.2754 362.505 92.3322C362.505 90.3499 357.837 91.4849 357.837 88.5435C357.837 87.2646 358.972 86.2574 360.571 86.2574C361.882 86.2574 362.905 86.8969 363.368 87.888L362.489 88.3996C362.153 87.5843 361.338 87.2805 360.571 87.2805C359.739 87.2805 358.892 87.6802 358.892 88.5435Z" fill="#9591A1"/>
<rect x="414.993" y="82.8606" width="13.3816" height="13.1634" rx="1.99828" fill="#00C2FF"/>
<path fill-rule="evenodd" clip-rule="evenodd" d="M426.377 86.8152L420.547 93.0265L416.992 89.6406L417.956 88.6277L420.491 91.0418L425.357 85.8579L426.377 86.8152Z" fill="white"/>
<path d="M444.841 83.252H445.96V94.4424H445.001L438.766 85.3302V94.4424H437.647V83.252H438.606L444.841 92.3642V83.252ZM452.078 94.6342C449.744 94.6342 447.873 92.8118 447.873 90.4458C447.873 88.0799 449.744 86.2574 452.078 86.2574C454.412 86.2574 456.282 88.0799 456.282 90.4458C456.282 92.8118 454.412 94.6342 452.078 94.6342ZM452.078 93.6111C453.852 93.6111 455.227 92.2203 455.227 90.4458C455.227 88.6714 453.852 87.2805 452.078 87.2805C450.303 87.2805 448.928 88.6714 448.928 90.4458C448.928 92.2203 450.303 93.6111 452.078 93.6111ZM461.788 86.2574C463.739 86.2574 464.922 87.5363 464.922 89.5346V94.4424H463.867V89.5346C463.867 88.1118 463.083 87.2805 461.692 87.2805C460.286 87.2805 459.103 88.1118 459.103 90.254V94.4424H458.048V86.4493H459.103V87.6962C459.726 86.6891 460.653 86.2574 461.788 86.2574ZM467.122 90.0142V88.9911H472.877V90.0142H467.122ZM478.992 94.6342C476.658 94.6342 474.788 92.8118 474.788 90.4458C474.788 88.0799 476.658 86.2574 478.992 86.2574C481.326 86.2574 483.196 88.0799 483.196 90.4458C483.196 92.8118 481.326 94.6342 478.992 94.6342ZM478.992 93.6111C480.766 93.6111 482.141 92.2203 482.141 90.4458C482.141 88.6714 480.766 87.2805 478.992 87.2805C477.217 87.2805 475.843 88.6714 475.843 90.4458C475.843 92.2203 477.217 93.6111 478.992 93.6111ZM486.017 87.7761C486.577 86.6571 487.52 86.3214 488.543 86.3214V87.3445C487.264 87.3445 486.017 88.0159 486.017 89.9982V94.4424H484.962V86.4493H486.017V87.7761ZM496.379 86.4493H497.434V94.1227C497.434 96.5526 495.484 97.8315 493.422 97.8315C491.583 97.8315 490.256 97.1281 489.633 95.8811L490.56 95.3536C490.96 96.1689 491.695 96.8083 493.422 96.8083C495.276 96.8083 496.379 95.7533 496.379 94.1227V92.8757C495.708 93.9468 494.573 94.6342 493.15 94.6342C490.896 94.6342 489.025 92.8118 489.025 90.4458C489.025 88.0799 490.896 86.2574 493.15 86.2574C494.573 86.2574 495.708 86.9448 496.379 88.0159V86.4493ZM493.23 93.6111C495.004 93.6111 496.379 92.2203 496.379 90.4458C496.379 88.6714 495.004 87.2805 493.23 87.2805C491.455 87.2805 490.08 88.6714 490.08 90.4458C490.08 92.2203 491.455 93.6111 493.23 93.6111ZM506.542 86.4493H507.597V94.4424H506.542V92.8757C505.871 93.9468 504.736 94.6342 503.313 94.6342C501.059 94.6342 499.188 92.8118 499.188 90.4458C499.188 88.0799 501.059 86.2574 503.313 86.2574C504.736 86.2574 505.871 86.9448 506.542 88.0159V86.4493ZM503.393 93.6111C505.167 93.6111 506.542 92.2203 506.542 90.4458C506.542 88.6714 505.167 87.2805 503.393 87.2805C501.618 87.2805 500.244 88.6714 500.244 90.4458C500.244 92.2203 501.618 93.6111 503.393 93.6111ZM513.572 86.2574C515.522 86.2574 516.705 87.5363 516.705 89.5346V94.4424H515.65V89.5346C515.65 88.1118 514.867 87.2805 513.476 87.2805C512.069 87.2805 510.886 88.1118 510.886 90.254V94.4424H509.831V86.4493H510.886V87.6962C511.51 86.6891 512.437 86.2574 513.572 86.2574ZM519.273 84.7547C518.841 84.7547 518.506 84.403 518.506 83.9874C518.506 83.5717 518.841 83.22 519.273 83.22C519.705 83.22 520.04 83.5717 520.04 83.9874C520.04 84.403 519.705 84.7547 519.273 84.7547ZM518.745 94.4424V86.4493H519.8V94.4424H518.745ZM525.764 94.6342C523.35 94.6342 521.56 92.8118 521.56 90.4458C521.56 88.0799 523.35 86.2574 525.764 86.2574C527.347 86.2574 528.69 87.0887 529.265 88.3516L528.402 88.8472C527.97 87.904 526.963 87.2805 525.764 87.2805C523.99 87.2805 522.615 88.6714 522.615 90.4458C522.615 92.2203 523.99 93.6111 525.764 93.6111C526.979 93.6111 527.954 92.9716 528.466 92.0444L529.345 92.556C528.69 93.8189 527.331 94.6342 525.764 94.6342ZM535.384 84.7547C534.952 84.7547 534.617 84.403 534.617 83.9874C534.617 83.5717 534.952 83.22 535.384 83.22C535.816 83.22 536.151 83.5717 536.151 83.9874C536.151 84.403 535.816 84.7547 535.384 84.7547ZM534.856 94.4424V86.4493H535.912V94.4424H534.856ZM541.891 86.2574C543.842 86.2574 545.025 87.5363 545.025 89.5346V94.4424H543.97V89.5346C543.97 88.1118 543.186 87.2805 541.795 87.2805C540.389 87.2805 539.206 88.1118 539.206 90.254V94.4424H538.151V86.4493H539.206V87.6962C539.829 86.6891 540.756 86.2574 541.891 86.2574ZM547.896 88.5435C547.896 90.5258 552.564 89.3907 552.564 92.3322C552.564 93.691 551.381 94.6342 549.67 94.6342C548.072 94.6342 546.985 93.8189 546.585 92.7958L547.48 92.2683C547.768 93.0836 548.599 93.6111 549.67 93.6111C550.614 93.6111 551.509 93.2754 551.509 92.3322C551.509 90.3499 546.841 91.4849 546.841 88.5435C546.841 87.2646 547.976 86.2574 549.575 86.2574C550.885 86.2574 551.909 86.8969 552.372 87.888L551.493 88.3996C551.157 87.5843 550.342 87.2805 549.575 87.2805C548.743 87.2805 547.896 87.6802 547.896 88.5435ZM558.248 87.4724H555.946V92.3162C555.946 93.691 556.698 93.5791 558.248 93.5152V94.4424C556.09 94.7621 554.891 94.2346 554.891 92.3162V87.4724H553.213V86.4493H554.891V84.5309L555.946 84.2112V86.4493H558.248V87.4724ZM566.397 86.4493H567.452V94.4424H566.397V92.8757C565.725 93.9468 564.59 94.6342 563.168 94.6342C560.914 94.6342 559.043 92.8118 559.043 90.4458C559.043 88.0799 560.914 86.2574 563.168 86.2574C564.59 86.2574 565.725 86.9448 566.397 88.0159V86.4493ZM563.248 93.6111C565.022 93.6111 566.397 92.2203 566.397 90.4458C566.397 88.6714 565.022 87.2805 563.248 87.2805C561.473 87.2805 560.098 88.6714 560.098 90.4458C560.098 92.2203 561.473 93.6111 563.248 93.6111ZM569.686 94.4424V82.7724H570.741V94.4424H569.686ZM572.98 94.4424V82.7724H574.035V94.4424H572.98ZM577.105 88.5435C577.105 90.5258 581.773 89.3907 581.773 92.3322C581.773 93.691 580.59 94.6342 578.88 94.6342C577.281 94.6342 576.194 93.8189 575.794 92.7958L576.69 92.2683C576.977 93.0836 577.809 93.6111 578.88 93.6111C579.823 93.6111 580.718 93.2754 580.718 92.3322C580.718 90.3499 576.05 91.4849 576.05 88.5435C576.05 87.2646 577.185 86.2574 578.784 86.2574C580.095 86.2574 581.118 86.8969 581.581 87.888L580.702 88.3996C580.366 87.5843 579.551 87.2805 578.784 87.2805C577.952 87.2805 577.105 87.6802 577.105 88.5435Z" fill="#9591A1"/>
</g>
<rect x="67.2927" y="132.905" width="676.417" height="377.675" rx="7.99312" fill="#F7F7F7"/>
<g opacity="0.4">
<line x1="734.715" y1="143.854" x2="107.152" y2="143.854" stroke="#C6C1D2" stroke-width="0.99914" stroke-linecap="round" stroke-linejoin="round" stroke-dasharray="7.99 7.99"/>
<line x1="734.714" y1="225.956" x2="107.151" y2="225.956" stroke="#C6C1D2" stroke-width="0.99914" stroke-linecap="round" stroke-linejoin="round" stroke-dasharray="7.99 7.99"/>
<line x1="734.714" y1="308.059" x2="107.151" y2="308.059" stroke="#C6C1D2" stroke-width="0.99914" stroke-linecap="round" stroke-linejoin="round" stroke-dasharray="7.99 7.99"/>
<line x1="734.714" y1="390.161" x2="107.151" y2="390.161" stroke="#C6C1D2" stroke-width="0.99914" stroke-linecap="round" stroke-linejoin="round" stroke-dasharray="7.99 7.99"/>
<path d="M735.214 471.764L106.652 471.764" stroke="#C6C1D2" stroke-width="0.99914" stroke-linecap="round" stroke-linejoin="round" stroke-dasharray="7.99 7.99"/>
</g>
<path opacity="0.3" d="M67.6334 141.905H72.7001V140.685H69.5128L71.2493 138.948C71.9857 138.201 72.5572 137.399 72.5572 136.442C72.5572 134.915 71.3592 134.069 70.0953 134.069C69.0732 134.069 68.106 134.574 67.6115 135.629L68.6775 136.256C68.9743 135.64 69.4689 135.299 70.1063 135.299C70.7657 135.299 71.2933 135.717 71.2933 136.486C71.2933 137.069 70.8646 137.629 70.3151 138.179L67.6334 140.916V141.905ZM76.4647 142.048C78.399 142.048 79.4871 140.432 79.4871 138.058C79.4871 135.684 78.399 134.069 76.4647 134.069C74.5303 134.069 73.4423 135.684 73.4423 138.058C73.4423 140.432 74.5303 142.048 76.4647 142.048ZM76.4647 140.817C75.3326 140.817 74.7062 139.828 74.7062 138.058C74.7062 136.289 75.3326 135.299 76.4647 135.299C77.6077 135.299 78.2232 136.289 78.2232 138.058C78.2232 139.828 77.6077 140.817 76.4647 140.817ZM85.4756 141.905L82.9698 139.102L85.3877 136.41H83.9369L81.8048 138.838V134.211H80.6178V141.905H81.8048V139.366L84.0578 141.905H85.4756Z" fill="#220D4E"/>
<path opacity="0.3" d="M71.7071 216.314L69.6849 217.029L69.9926 218.106L71.5423 217.666V224.008H72.8062V216.314H71.7071ZM76.6536 219.216H75.6865L75.8184 217.501H78.9397V216.314H74.6534L74.3566 220.447H76.5987C77.434 220.447 78.0055 220.908 78.0055 221.678C78.0055 222.447 77.434 222.92 76.5767 222.92C75.7744 222.92 75.2469 222.557 75.049 221.875L73.961 222.502C74.3676 223.612 75.4117 224.15 76.5767 224.15C77.9945 224.15 79.2694 223.293 79.2694 221.678C79.2694 220.073 78.0494 219.216 76.6536 219.216ZM85.1704 224.008L82.6646 221.205L85.0825 218.512H83.6318L81.4996 220.941V216.314H80.3126V224.008H81.4996V221.469L83.7527 224.008H85.1704Z" fill="#220D4E"/>
<path opacity="0.3" d="M70.5833 298.417L68.5611 299.132L68.8688 300.209L70.4185 299.769V306.111H71.6824V298.417H70.5833ZM75.9695 306.253C77.9038 306.253 78.9919 304.638 78.9919 302.264C78.9919 299.89 77.9038 298.274 75.9695 298.274C74.0351 298.274 72.9471 299.89 72.9471 302.264C72.9471 304.638 74.0351 306.253 75.9695 306.253ZM75.9695 305.023C74.8375 305.023 74.211 304.033 74.211 302.264C74.211 300.494 74.8375 299.505 75.9695 299.505C77.1125 299.505 77.728 300.494 77.728 302.264C77.728 304.033 77.1125 305.023 75.9695 305.023ZM84.9804 306.111L82.4746 303.308L84.8925 300.615H83.4418L81.3096 303.044V298.417H80.1226V306.111H81.3096V303.572L83.5627 306.111H84.9804Z" fill="#220D4E"/>
<path opacity="0.3" d="M77.0627 383.421H76.0955L76.2274 381.706H79.3487V380.519H75.0624L74.7657 384.651H77.0077C77.843 384.651 78.4145 385.113 78.4145 385.882C78.4145 386.652 77.843 387.124 76.9857 387.124C76.1834 387.124 75.6559 386.762 75.4581 386.08L74.37 386.707C74.7766 387.817 75.8207 388.355 76.9857 388.355C78.4035 388.355 79.6784 387.498 79.6784 385.882C79.6784 384.278 78.4585 383.421 77.0627 383.421ZM85.5795 388.212L83.0736 385.41L85.4916 382.717H84.0408L81.9086 385.146V380.519H80.7217V388.212H81.9086V385.674L84.1617 388.212H85.5795Z" fill="#220D4E"/>
<path opacity="0.3" d="M76.3749 470.459C78.3092 470.459 79.3973 468.843 79.3973 466.469C79.3973 464.096 78.3092 462.48 76.3749 462.48C74.4405 462.48 73.3525 464.096 73.3525 466.469C73.3525 468.843 74.4405 470.459 76.3749 470.459ZM76.3749 469.228C75.2428 469.228 74.6164 468.239 74.6164 466.469C74.6164 464.7 75.2428 463.711 76.3749 463.711C77.5179 463.711 78.1333 464.7 78.1333 466.469C78.1333 468.239 77.5179 469.228 76.3749 469.228ZM85.3858 470.316L82.88 467.514L85.2979 464.821H83.8471L81.715 467.25V462.623H80.528V470.316H81.715V467.777L83.968 470.316H85.3858Z" fill="#220D4E"/>
<path opacity="0.3" d="M122.693 504.793C124.924 504.793 126.683 503.034 126.683 500.803C126.683 498.572 124.924 496.813 122.693 496.813C120.473 496.813 118.703 498.572 118.703 500.803C118.703 503.034 120.473 504.793 122.693 504.793ZM122.693 503.562C121.154 503.562 119.967 502.386 119.967 500.803C119.967 499.22 121.154 498.044 122.693 498.044C124.232 498.044 125.419 499.22 125.419 500.803C125.419 502.386 124.232 503.562 122.693 503.562ZM130.352 504.793C131.429 504.793 132.364 504.232 132.825 503.364L131.803 502.781C131.539 503.287 131.001 503.628 130.341 503.628C129.374 503.628 128.638 502.891 128.638 501.902C128.638 500.913 129.374 500.177 130.341 500.177C131.001 500.177 131.539 500.506 131.781 501.023L132.803 500.429C132.364 499.572 131.429 499.012 130.352 499.012C128.693 499.012 127.451 500.264 127.451 501.902C127.451 503.529 128.693 504.793 130.352 504.793ZM136.749 500.297V499.154H135.387V497.616L134.2 497.967V499.154H133.188V500.297H134.2V502.935C134.2 504.364 134.925 504.869 136.749 504.65V503.584C135.848 503.628 135.387 503.639 135.387 502.935V500.297H136.749ZM145.65 499.44C145.65 497.89 144.529 496.813 142.935 496.813C141.342 496.813 140.21 497.89 140.21 499.44C140.21 500.99 141.342 502.067 142.935 502.067H143.067L141.309 504.65H142.759L145.188 500.99C145.485 500.561 145.65 500.034 145.65 499.44ZM141.474 499.44C141.474 498.561 142.1 498.011 142.935 498.011C143.771 498.011 144.386 498.561 144.386 499.44C144.386 500.319 143.771 500.869 142.935 500.869C142.1 500.869 141.474 500.308 141.474 499.44Z" fill="#220D4E"/>
<path opacity="0.3" d="M233.18 504.793C235.411 504.793 237.169 503.034 237.169 500.803C237.169 498.572 235.411 496.813 233.18 496.813C230.959 496.813 229.19 498.572 229.19 500.803C229.19 503.034 230.959 504.793 233.18 504.793ZM233.18 503.562C231.641 503.562 230.454 502.386 230.454 500.803C230.454 499.22 231.641 498.044 233.18 498.044C234.718 498.044 235.905 499.22 235.905 500.803C235.905 502.386 234.718 503.562 233.18 503.562ZM240.839 504.793C241.916 504.793 242.85 504.232 243.312 503.364L242.29 502.781C242.026 503.287 241.487 503.628 240.828 503.628C239.861 503.628 239.124 502.891 239.124 501.902C239.124 500.913 239.861 500.177 240.828 500.177C241.487 500.177 242.026 500.506 242.268 501.023L243.29 500.429C242.85 499.572 241.916 499.012 240.839 499.012C239.179 499.012 237.937 500.264 237.937 501.902C237.937 503.529 239.179 504.793 240.839 504.793ZM247.236 500.297V499.154H245.873V497.616L244.686 497.967V499.154H243.675V500.297H244.686V502.935C244.686 504.364 245.412 504.869 247.236 504.65V503.584C246.335 503.628 245.873 503.639 245.873 502.935V500.297H247.236ZM252.587 496.956L250.564 497.671L250.872 498.748L252.422 498.308V504.65H253.686V496.956H252.587ZM257.973 504.793C259.907 504.793 260.995 503.177 260.995 500.803C260.995 498.429 259.907 496.813 257.973 496.813C256.038 496.813 254.95 498.429 254.95 500.803C254.95 503.177 256.038 504.793 257.973 504.793ZM257.973 503.562C256.841 503.562 256.214 502.572 256.214 500.803C256.214 499.033 256.841 498.044 257.973 498.044C259.116 498.044 259.731 499.033 259.731 500.803C259.731 502.572 259.116 503.562 257.973 503.562Z" fill="#220D4E"/>
<path opacity="0.3" d="M347.593 504.794C349.824 504.794 351.583 503.036 351.583 500.805C351.583 498.574 349.824 496.815 347.593 496.815C345.373 496.815 343.603 498.574 343.603 500.805C343.603 503.036 345.373 504.794 347.593 504.794ZM347.593 503.564C346.054 503.564 344.867 502.388 344.867 500.805C344.867 499.222 346.054 498.046 347.593 498.046C349.132 498.046 350.319 499.222 350.319 500.805C350.319 502.388 349.132 503.564 347.593 503.564ZM355.252 504.794C356.329 504.794 357.264 504.234 357.725 503.366L356.703 502.783C356.439 503.289 355.901 503.629 355.241 503.629C354.274 503.629 353.538 502.893 353.538 501.904C353.538 500.915 354.274 500.178 355.241 500.178C355.901 500.178 356.439 500.508 356.681 501.025L357.703 500.431C357.264 499.574 356.329 499.013 355.252 499.013C353.593 499.013 352.351 500.266 352.351 501.904C352.351 503.531 353.593 504.794 355.252 504.794ZM361.649 500.299V499.156H360.287V497.618L359.1 497.969V499.156H358.088V500.299H359.1V502.937C359.1 504.366 359.825 504.871 361.649 504.652V503.586C360.748 503.629 360.287 503.64 360.287 502.937V500.299H361.649ZM367 496.958L364.978 497.673L365.285 498.75L366.835 498.31V504.652H368.099V496.958H367ZM371.089 496.958L369.067 497.673L369.375 498.75L370.924 498.31V504.652H372.188V496.958H371.089Z" fill="#220D4E"/>
<path opacity="0.3" d="M460.49 504.794C462.721 504.794 464.48 503.035 464.48 500.804C464.48 498.573 462.721 496.814 460.49 496.814C458.27 496.814 456.501 498.573 456.501 500.804C456.501 503.035 458.27 504.794 460.49 504.794ZM460.49 503.563C458.952 503.563 457.765 502.387 457.765 500.804C457.765 499.221 458.952 498.045 460.49 498.045C462.029 498.045 463.216 499.221 463.216 500.804C463.216 502.387 462.029 503.563 460.49 503.563ZM468.15 504.794C469.227 504.794 470.161 504.233 470.622 503.365L469.6 502.782C469.337 503.288 468.798 503.629 468.139 503.629C467.171 503.629 466.435 502.892 466.435 501.903C466.435 500.914 467.171 500.177 468.139 500.177C468.798 500.177 469.337 500.507 469.578 501.024L470.6 500.43C470.161 499.573 469.227 499.012 468.15 499.012C466.49 499.012 465.248 500.265 465.248 501.903C465.248 503.53 466.49 504.794 468.15 504.794ZM474.547 500.298V499.155H473.184V497.617L471.997 497.968V499.155H470.986V500.298H471.997V502.936C471.997 504.365 472.722 504.87 474.547 504.651V503.585C473.646 503.629 473.184 503.64 473.184 502.936V500.298H474.547ZM479.897 496.957L477.875 497.672L478.183 498.749L479.732 498.309V504.651H480.996V496.957H479.897ZM482.162 504.651H487.229V503.431H484.042L485.778 501.694C486.514 500.947 487.086 500.145 487.086 499.188C487.086 497.661 485.888 496.814 484.624 496.814C483.602 496.814 482.635 497.32 482.14 498.375L483.206 499.001C483.503 498.386 483.998 498.045 484.635 498.045C485.294 498.045 485.822 498.463 485.822 499.232C485.822 499.815 485.393 500.375 484.844 500.925L482.162 503.661V504.651Z" fill="#220D4E"/>
<path opacity="0.3" d="M573.432 504.794C575.663 504.794 577.421 503.035 577.421 500.804C577.421 498.573 575.663 496.814 573.432 496.814C571.212 496.814 569.442 498.573 569.442 500.804C569.442 503.035 571.212 504.794 573.432 504.794ZM573.432 503.563C571.893 503.563 570.706 502.387 570.706 500.804C570.706 499.221 571.893 498.045 573.432 498.045C574.97 498.045 576.157 499.221 576.157 500.804C576.157 502.387 574.97 503.563 573.432 503.563ZM581.091 504.794C582.168 504.794 583.102 504.233 583.564 503.365L582.542 502.782C582.278 503.288 581.739 503.629 581.08 503.629C580.113 503.629 579.376 502.892 579.376 501.903C579.376 500.914 580.113 500.177 581.08 500.177C581.739 500.177 582.278 500.507 582.52 501.024L583.542 500.43C583.102 499.573 582.168 499.012 581.091 499.012C579.431 499.012 578.19 500.265 578.19 501.903C578.19 503.53 579.431 504.794 581.091 504.794ZM587.488 500.298V499.155H586.125V497.617L584.938 497.968V499.155H583.927V500.298H584.938V502.936C584.938 504.365 585.664 504.87 587.488 504.651V503.585C586.587 503.629 586.125 503.64 586.125 502.936V500.298H587.488ZM592.839 496.957L590.817 497.672L591.124 498.749L592.674 498.309V504.651H593.938V496.957H592.839ZM598.434 500.101L599.994 498.034V496.957H595.268V498.144H598.489L596.829 500.331L597.335 501.09H597.62C598.489 501.09 599.049 501.551 599.049 502.321C599.049 503.09 598.489 503.563 597.62 503.563C596.851 503.563 596.335 503.222 596.115 502.573L595.038 503.2C595.466 504.277 596.488 504.794 597.62 504.794C599.038 504.794 600.313 503.936 600.313 502.321C600.313 501.123 599.489 500.353 598.434 500.101Z" fill="#220D4E"/>
<path opacity="0.3" d="M685.447 504.794C687.678 504.794 689.437 503.035 689.437 500.804C689.437 498.573 687.678 496.814 685.447 496.814C683.227 496.814 681.458 498.573 681.458 500.804C681.458 503.035 683.227 504.794 685.447 504.794ZM685.447 503.563C683.908 503.563 682.721 502.387 682.721 500.804C682.721 499.221 683.908 498.045 685.447 498.045C686.986 498.045 688.173 499.221 688.173 500.804C688.173 502.387 686.986 503.563 685.447 503.563ZM693.106 504.794C694.183 504.794 695.118 504.233 695.579 503.365L694.557 502.782C694.293 503.288 693.755 503.629 693.095 503.629C692.128 503.629 691.392 502.892 691.392 501.903C691.392 500.914 692.128 500.177 693.095 500.177C693.755 500.177 694.293 500.507 694.535 501.024L695.557 500.43C695.118 499.573 694.183 499.012 693.106 499.012C691.447 499.012 690.205 500.265 690.205 501.903C690.205 503.53 691.447 504.794 693.106 504.794ZM699.504 500.298V499.155H698.141V497.617L696.954 497.968V499.155H695.943V500.298H696.954V502.936C696.954 504.365 697.679 504.87 699.504 504.651V503.585C698.602 503.629 698.141 503.64 698.141 502.936V500.298H699.504ZM704.854 496.957L702.832 497.672L703.14 498.749L704.689 498.309V504.651H705.953V496.957H704.854ZM712.966 502.09H712.087V500.09H710.812V502.09H708.405L711.054 496.957H709.68L707.031 502.09V503.266H710.812V504.651H712.087V503.266H712.966V502.09Z" fill="#220D4E"/>
<path d="M109.097 247.526C109.097 242.612 113.08 238.629 117.994 238.629H167.964C172.877 238.629 176.861 242.612 176.861 247.526V312.185H109.097V247.526Z" fill="#1EFFAE"/>
<path d="M109.097 312.185H176.861V471.764H109.097V312.185Z" fill="#00C2FF"/>
<path d="M218.824 291.161C218.824 286.247 222.808 282.264 227.721 282.264H277.691C282.605 282.264 286.588 286.247 286.588 291.161V342.106H218.824V291.161Z" fill="#1EFFAE"/>
<path d="M218.825 342.106H286.588V471.764H218.825V342.106Z" fill="#00C2FF"/>
<path d="M328.552 274.954C328.552 270.04 332.535 266.057 337.448 266.057H387.419C392.332 266.057 396.315 270.04 396.315 274.954V354.574H328.552V274.954Z" fill="#1EFFAE"/>
<path d="M328.552 354.574H396.315V471.765H328.552V354.574Z" fill="#00C2FF"/>
<path d="M438.28 259.993C438.28 255.08 442.263 251.097 447.176 251.097H497.146C502.06 251.097 506.043 255.08 506.043 259.993V354.574H438.28V259.993Z" fill="#1EFFAE"/>
<path d="M438.279 354.573H506.043V471.764H438.279V354.573Z" fill="#00C2FF"/>
<path d="M548.007 351.003C548.007 346.09 551.99 342.107 556.903 342.107H606.874C611.787 342.107 615.77 346.09 615.77 351.003V411.923H548.007V351.003Z" fill="#1EFFAE"/>
<path d="M548.007 411.922H615.77V471.765H548.007V411.922Z" fill="#00C2FF"/>
<path d="M657.734 301.135C657.734 296.221 661.717 292.238 666.631 292.238H716.601C721.514 292.238 725.497 296.221 725.497 301.134V379.508H657.734V301.135Z" fill="#1EFFAE"/>
<path d="M657.734 379.508H725.497V471.764H657.734V379.508Z" fill="#00C2FF"/>
</g>
<defs>
<filter id="filter0_d_1_7952" x="0" y="0.000488281" width="814" height="584" filterUnits="userSpaceOnUse" color-interpolation-filters="sRGB">
<feFlood flood-opacity="0" result="BackgroundImageFix"/>
<feColorMatrix in="SourceAlpha" type="matrix" values="0 0 0 0 0 0 0 0 0 0 0 0 0 0 0 0 0 0 127 0" result="hardAlpha"/>
<feOffset dy="5"/>
<feGaussianBlur stdDeviation="13.5"/>
<feColorMatrix type="matrix" values="0 0 0 0 0.0968 0 0 0 0 0.08 0 0 0 0 0.2 0 0 0 0.06 0"/>
<feBlend mode="normal" in2="BackgroundImageFix" result="effect1_dropShadow_1_7952"/>
<feBlend mode="normal" in="SourceGraphic" in2="effect1_dropShadow_1_7952" result="shape"/>
</filter>
<filter id="filter1_d_1_7952" x="65.2944" y="60.9669" width="683.411" height="58.9492" filterUnits="userSpaceOnUse" color-interpolation-filters="sRGB">
<feFlood flood-opacity="0" result="BackgroundImageFix"/>
<feColorMatrix in="SourceAlpha" type="matrix" values="0 0 0 0 0 0 0 0 0 0 0 0 0 0 0 0 0 0 127 0" result="hardAlpha"/>
<feOffset dy="0.99914"/>
<feGaussianBlur stdDeviation="0.99914"/>
<feColorMatrix type="matrix" values="0 0 0 0 0 0 0 0 0 0.2015 0 0 0 0 0.3875 0 0 0 0.1 0"/>
<feBlend mode="normal" in2="BackgroundImageFix" result="effect1_dropShadow_1_7952"/>
<feBlend mode="normal" in="SourceGraphic" in2="effect1_dropShadow_1_7952" result="shape"/>
</filter>
</defs>
</svg>
