<svg width="50" height="50" viewBox="0 0 50 50" fill="none" xmlns="http://www.w3.org/2000/svg">
<rect width="50" height="50" rx="11" fill="#C084FC" fill-opacity="0.16"/>
<path d="M22.9374 28.5C22.8482 28.1539 22.6678 27.8381 22.415 27.5854C22.1623 27.3327 21.8465 27.1523 21.5004 27.063L15.3654 25.481C15.2608 25.4513 15.1686 25.3883 15.103 25.3014C15.0374 25.2146 15.002 25.1088 15.002 25C15.002 24.8912 15.0374 24.7854 15.103 24.6986C15.1686 24.6118 15.2608 24.5487 15.3654 24.519L21.5004 22.936C21.8464 22.8468 22.1621 22.6666 22.4148 22.414C22.6675 22.1615 22.848 21.8459 22.9374 21.5L24.5194 15.365C24.5488 15.2599 24.6118 15.1673 24.6987 15.1014C24.7857 15.0355 24.8918 14.9998 25.0009 14.9998C25.11 14.9998 25.2162 15.0355 25.3031 15.1014C25.39 15.1673 25.453 15.2599 25.4824 15.365L27.0634 21.5C27.1527 21.8461 27.3331 22.1619 27.5858 22.4146C27.8385 22.6673 28.1544 22.8477 28.5004 22.937L34.6354 24.518C34.7409 24.5471 34.834 24.61 34.9003 24.6971C34.9666 24.7841 35.0025 24.8906 35.0025 25C35.0025 25.1094 34.9666 25.2159 34.9003 25.3029C34.834 25.39 34.7409 25.4529 34.6354 25.482L28.5004 27.063C28.1544 27.1523 27.8385 27.3327 27.5858 27.5854C27.3331 27.8381 27.1527 28.1539 27.0634 28.5L25.4814 34.635C25.452 34.7401 25.389 34.8327 25.3021 34.8986C25.2152 34.9646 25.109 35.0003 24.9999 35.0003C24.8908 35.0003 24.7847 34.9646 24.6977 34.8986C24.6108 34.8327 24.5478 34.7401 24.5184 34.635L22.9374 28.5Z" stroke="#C084FC" stroke-width="2" stroke-linecap="round" stroke-linejoin="round"/>
<path d="M33 16V20" stroke="#C084FC" stroke-width="2" stroke-linecap="round" stroke-linejoin="round"/>
<path d="M35 18H31" stroke="#C084FC" stroke-width="2" stroke-linecap="round" stroke-linejoin="round"/>
<path d="M17 30V32" stroke="#C084FC" stroke-width="2" stroke-linecap="round" stroke-linejoin="round"/>
<path d="M18 31H16" stroke="#C084FC" stroke-width="2" stroke-linecap="round" stroke-linejoin="round"/>
</svg>
